SplineFontDB: 3.2
FontName: asteain
FullName: asteain
FamilyName: asteain
Weight: Book
Copyright: Copyright (c) 2024, asteain-ninia
Version: 2.0
ItalicAngle: 0
UnderlinePosition: -204
UnderlineWidth: 102
Ascent: 1638
Descent: 410
InvalidEm: 0
sfntRevision: 0x00010000
woffMajor: 0
woffMinor: 0
LayerCount: 2
Layer: 0 1 "+gMyXYgAA" 1
Layer: 1 1 "+Uk2XYgAA" 0
HasVMetrics: 1
XUID: [1021 336 1758819224 29069]
StyleMap: 0x0000
FSType: 0
OS2Version: 4
OS2_WeightWidthSlopeOnly: 0
OS2_UseTypoMetrics: 1
CreationTime: 1710049745
ModificationTime: 1713363806
PfmFamily: 17
TTFWeight: 400
TTFWidth: 5
LineGap: 184
VLineGap: 0
Panose: 2 0 5 3 0 0 0 0 0 0
OS2TypoAscent: 1638
OS2TypoAOffset: 0
OS2TypoDescent: -410
OS2TypoDOffset: 0
OS2TypoLinegap: 184
OS2WinAscent: 1638
OS2WinAOffset: 0
OS2WinDescent: 313
OS2WinDOffset: 0
HheadAscent: 1638
HheadAOffset: 0
HheadDescent: -313
HheadDOffset: 0
OS2SubXSize: 1331
OS2SubYSize: 1434
OS2SubXOff: 0
OS2SubYOff: 287
OS2SupXSize: 1331
OS2SupYSize: 1434
OS2SupXOff: 0
OS2SupYOff: 983
OS2StrikeYSize: 100
OS2StrikeYPos: 528
OS2Vendor: 'PfEd'
OS2CodePages: 00000001.00000000
OS2UnicodeRanges: 00000000.12000000.04000000.00000000
Lookup: 1 0 0 "+fiZm+DBN-2" { "+fiZm+DBN-2-1" ("vert") } ['vrt2' ('DFLT' <'dflt' > ) ]
Lookup: 1 0 0 "+fiZm+DBN" { "+fiZm+DBN--1" ("vert") } ['vert' ('DFLT' <'dflt' > 'kana' <'dflt' > 'latn' <'dflt' > ) ]
Lookup: 258 0 0 "'kern' +aipm+DBNMKsw/DDLMPMwsAAA lookup 1" { "'kern' +aipm+DBNMKsw/DDLMPMwsAAA lookup 1-1" [307,30,2] } ['kern' ('DFLT' <'dflt' > ) ]
MarkAttachClasses: 1
DEI: 91125
ShortTable: maxp 16
  1
  0
  31
  67
  6
  0
  0
  2
  0
  1
  1
  0
  64
  0
  0
  0
EndShort
LangName: 1033 "" "" "Regular" "FontForge : ashogu_asteain : 17-3-2024" "" "Version 001.000"
GaspTable: 1 65535 2 0
Encoding: UnicodeFull
UnicodeInterp: none
NameList: AGL For New Fonts
DisplaySize: -48
AntiAlias: 1
FitToEm: 0
WinInfo: 994528 16 4
BeginPrivate: 0
EndPrivate
BeginChars: 1114116 315

StartChar: .notdef
Encoding: 1114112 -1 0
Width: 1024
GlyphClass: 1
Flags: W
LayerCount: 2
Fore
SplineSet
102 0 m 1,0,-1
 102 1092 l 1,1,-1
 922 1092 l 1,2,-1
 922 0 l 1,3,-1
 102 0 l 1,0,-1
205 102 m 1,4,-1
 819 102 l 1,5,-1
 819 989 l 1,6,-1
 205 989 l 1,7,-1
 205 102 l 1,4,-1
EndSplineSet
Validated: 1
EndChar

StartChar: uF2A01
Encoding: 993793 993793 3
Width: 1151
GlyphClass: 2
Flags: W
LayerCount: 2
Fore
SplineSet
496 166 m 1,0,-1
 496 262 l 1,1,-1
 242 262 l 1,2,3
 250 222 250 222 283 194 c 128,-1,4
 316 166 316 166 358 166 c 2,5,-1
 496 166 l 1,0,-1
143 1030 m 1,6,-1
 143 1190 l 1,7,-1
 1008 1190 l 1,8,-1
 1008 1030 l 1,9,-1
 655 1030 l 1,10,-1
 655 870 l 1,11,-1
 1071 870 l 1,12,-1
 1071 711 l 1,13,-1
 655 711 l 1,14,-1
 655 422 l 1,15,-1
 881 422 l 2,16,17
 947 422 947 422 993.5 375 c 128,-1,18
 1040 328 1040 328 1040 262 c 1,19,-1
 655 262 l 1,20,-1
 655 166 l 2,21,22
 655 100 655 100 608.5 53 c 128,-1,23
 562 6 562 6 496 6 c 2,24,-1
 358 6 l 2,25,26
 243 6 243 6 161.5 87.5 c 128,-1,27
 80 169 80 169 80 285 c 0,28,29
 80 342 80 342 120 382 c 128,-1,30
 160 422 160 422 217 422 c 2,31,-1
 496 422 l 1,32,-1
 496 711 l 1,33,-1
 80 711 l 1,34,-1
 80 870 l 1,35,-1
 496 870 l 1,36,-1
 496 1030 l 1,37,-1
 143 1030 l 1,6,-1
EndSplineSet
Validated: 1
EndChar

StartChar: uF2A02
Encoding: 993794 993794 4
Width: 1120
GlyphClass: 2
Flags: W
LayerCount: 2
Fore
SplineSet
831 1223 m 1,0,-1
 831 1063 l 1,1,2
 771 1063 771 1063 700 1040 c 1,3,4
 765 969 765 969 807 877 c 0,5,6
 845 789 845 789 848 678 c 1,7,-1
 1040 678 l 1,8,-1
 1040 518 l 1,9,-1
 848 518 l 1,10,-1
 848 166 l 2,11,12
 848 100 848 100 801 53 c 128,-1,13
 754 6 754 6 688 6 c 2,14,-1
 432 6 l 2,15,16
 366 6 366 6 319 53 c 128,-1,17
 272 100 272 100 272 166 c 2,18,-1
 272 518 l 1,19,-1
 80 518 l 1,20,-1
 80 678 l 1,21,-1
 272 678 l 1,22,23
 275 789 275 789 313 877 c 0,24,25
 355 969 355 969 420 1040 c 1,26,27
 349 1063 349 1063 289 1063 c 1,28,-1
 289 1223 l 1,29,30
 401 1223 401 1223 502 1180 c 0,31,32
 519 1173 519 1173 559 1151 c 1,33,34
 594 1170 594 1170 618 1180 c 0,35,36
 719 1223 719 1223 831 1223 c 1,0,-1
688 678 m 1,37,38
 685 748 685 748 657 815 c 0,39,40
 624 893 624 893 571 946 c 0,41,42
 569 948 569 948 565 951 c 128,-1,43
 561 954 561 954 559 956 c 1,44,-1
 549 946 l 2,45,46
 496 893 496 893 463 815 c 0,47,48
 435 748 435 748 432 678 c 1,49,-1
 688 678 l 1,37,38
688 518 m 1,50,-1
 432 518 l 1,51,-1
 432 166 l 1,52,-1
 688 166 l 1,53,-1
 688 518 l 1,50,-1
EndSplineSet
Validated: 1
EndChar

StartChar: ashogu_i
Encoding: 993795 993795 5
Width: 320
VWidth: 1632
GlyphClass: 2
Flags: W
LayerCount: 2
Fore
SplineSet
80 6 m 1,0,-1
 80 1190 l 1,1,-1
 240 1190 l 1,2,-1
 240 6 l 1,3,-1
 80 6 l 1,0,-1
EndSplineSet
Validated: 1
Substitution2: "+fiZm+DBN-2-1" ashogu_i.vert
Substitution2: "+fiZm+DBN--1" ashogu_i.vert
EndChar

StartChar: uF2A06
Encoding: 993797 993797 7
Width: 1313
GlyphClass: 2
Flags: W
LayerCount: 2
Fore
SplineSet
80 6 m 1,0,-1
 80 166 l 1,1,-1
 1233 166 l 1,2,-1
 1233 6 l 1,3,-1
 80 6 l 1,0,-1
496 807 m 128,-1,5
 496 873 496 873 542.5 920 c 128,-1,6
 589 967 589 967 655 967 c 128,-1,7
 721 967 721 967 768 920 c 128,-1,8
 815 873 815 873 815 807 c 128,-1,9
 815 741 815 741 768 693 c 128,-1,10
 721 645 721 645 655 645 c 128,-1,11
 589 645 589 645 542.5 693 c 128,-1,4
 496 741 496 741 496 807 c 128,-1,5
EndSplineSet
Validated: 1
EndChar

StartChar: uF2A07
Encoding: 993798 993798 8
Width: 1376
GlyphClass: 2
Flags: W
LayerCount: 2
Fore
SplineSet
465 465 m 1,0,-1
 465 678 l 1,1,-1
 250 678 l 1,2,3
 272 600 272 600 329.5 543.5 c 128,-1,4
 387 487 387 487 465 465 c 1,0,-1
838 678 m 1,5,-1
 625 678 l 1,6,-1
 625 465 l 1,7,8
 703 487 703 487 759.5 543.5 c 128,-1,9
 816 600 816 600 838 678 c 1,5,-1
838 838 m 1,10,11
 816 916 816 916 759.5 973.5 c 128,-1,12
 703 1031 703 1031 625 1053 c 1,13,-1
 625 838 l 1,14,-1
 838 838 l 1,10,11
1001 838 m 1,15,16
 1124 829 1124 829 1210 736.5 c 128,-1,17
 1296 644 1296 644 1296 518 c 2,18,-1
 1296 406 l 2,19,20
 1296 242 1296 242 1178.5 124 c 128,-1,21
 1061 6 1061 6 897 6 c 2,22,-1
 784 6 l 2,23,24
 658 6 658 6 566 91 c 128,-1,25
 474 176 474 176 465 299 c 1,26,27
 301 329 301 329 190.5 458.5 c 128,-1,28
 80 588 80 588 80 758 c 0,29,30
 80 950 80 950 216.5 1086.5 c 128,-1,31
 353 1223 353 1223 545 1223 c 0,32,33
 715 1223 715 1223 843 1113 c 128,-1,34
 971 1003 971 1003 1001 838 c 1,15,16
999 676 m 1,35,36
 973 533 973 533 871 430 c 128,-1,37
 769 327 769 327 627 301 c 1,38,39
 636 243 636 243 680.5 204.5 c 128,-1,40
 725 166 725 166 784 166 c 2,41,-1
 897 166 l 2,42,43
 995 166 995 166 1066 237 c 128,-1,44
 1137 308 1137 308 1137 406 c 2,45,-1
 1137 518 l 2,46,47
 1137 577 1137 577 1097 622 c 128,-1,48
 1057 667 1057 667 999 676 c 1,35,36
465 1053 m 1,49,50
 387 1031 387 1031 329.5 973.5 c 128,-1,51
 272 916 272 916 250 838 c 1,52,-1
 465 838 l 1,53,-1
 465 1053 l 1,49,50
EndSplineSet
Validated: 1
EndChar

StartChar: uF2A08
Encoding: 993799 993799 9
Width: 1280
GlyphClass: 2
Flags: W
LayerCount: 2
Fore
SplineSet
944 1190 m 1,0,-1
 944 1188 l 1,1,-1
 946 1190 l 1,2,-1
 1200 1190 l 1,3,-1
 764 838 l 1,4,-1
 977 838 l 2,5,6
 1043 838 1043 838 1090 791 c 128,-1,7
 1137 744 1137 744 1137 678 c 2,8,-1
 1137 326 l 2,9,10
 1137 194 1137 194 1042 100 c 128,-1,11
 947 6 947 6 815 6 c 2,12,-1
 528 6 l 2,13,14
 462 6 462 6 415.5 53 c 128,-1,15
 369 100 369 100 369 166 c 2,16,-1
 369 229 l 1,17,-1
 160 229 l 2,18,19
 128 229 128 229 104 253 c 128,-1,20
 80 277 80 277 80 309 c 128,-1,21
 80 341 80 341 104 365 c 128,-1,22
 128 389 128 389 160 389 c 2,23,-1
 369 389 l 2,24,25
 435 389 435 389 481.5 342 c 128,-1,26
 528 295 528 295 528 229 c 2,27,-1
 528 166 l 1,28,-1
 815 166 l 2,29,30
 881 166 881 166 929 213 c 128,-1,31
 977 260 977 260 977 326 c 2,32,-1
 977 678 l 1,33,-1
 565 678 l 1,34,-1
 367 518 l 1,35,-1
 113 518 l 1,36,-1
 745 1030 l 1,37,-1
 113 1030 l 1,38,-1
 113 1190 l 1,39,-1
 944 1190 l 1,0,-1
EndSplineSet
Validated: 1
EndChar

StartChar: uF2A09
Encoding: 993800 993800 10
Width: 1247
GlyphClass: 2
Flags: W
LayerCount: 2
Fore
SplineSet
432 1190 m 1,0,-1
 512 1190 l 2,1,2
 544 1190 544 1190 568 1166 c 128,-1,3
 592 1142 592 1142 592 1110 c 2,4,-1
 592 166 l 1,5,-1
 1167 166 l 1,6,-1
 1167 6 l 1,7,-1
 592 6 l 1,8,-1
 432 6 l 1,9,-1
 432 303 l 1,10,11
 405 295 405 295 369 295 c 2,12,-1
 303 295 l 2,13,14
 209 295 209 295 144.5 359.5 c 128,-1,15
 80 424 80 424 80 518 c 2,16,-1
 80 678 l 2,17,18
 80 772 80 772 144.5 836.5 c 128,-1,19
 209 901 209 901 303 901 c 2,20,-1
 369 901 l 2,21,22
 405 901 405 901 432 893 c 1,23,-1
 432 1030 l 1,24,25
 379 1030 379 1030 341 1067.5 c 128,-1,26
 303 1105 303 1105 303 1157 c 2,27,-1
 303 1190 l 1,28,-1
 432 1190 l 1,0,-1
432 678 m 2,29,30
 432 706 432 706 414.5 723.5 c 128,-1,31
 397 741 397 741 369 741 c 2,32,-1
 303 741 l 2,33,34
 275 741 275 741 257.5 723.5 c 128,-1,35
 240 706 240 706 240 678 c 2,36,-1
 240 518 l 2,37,38
 240 490 240 490 257.5 472.5 c 128,-1,39
 275 455 275 455 303 455 c 2,40,-1
 369 455 l 2,41,42
 397 455 397 455 414.5 472.5 c 128,-1,43
 432 490 432 490 432 518 c 2,44,-1
 432 678 l 2,29,30
EndSplineSet
Validated: 1
EndChar

StartChar: uF2A0A
Encoding: 993801 993801 11
Width: 1268
GlyphClass: 2
Flags: W
LayerCount: 2
Fore
SplineSet
660 145 m 1,0,-1
 811 240 l 1,1,-1
 1188 6 l 1,2,-1
 885 6 l 1,3,-1
 660 145 l 1,0,-1
113 551 m 2,4,-1
 113 1030 l 2,5,6
 113 1096 113 1096 159.5 1143 c 128,-1,7
 206 1190 206 1190 272 1190 c 2,8,-1
 1008 1190 l 2,9,10
 1074 1190 1074 1190 1120.5 1143 c 128,-1,11
 1167 1096 1167 1096 1167 1030 c 2,12,-1
 1167 582 l 2,13,14
 1167 540 1167 540 1146 503 c 128,-1,15
 1125 466 1125 466 1090 444 c 2,16,-1
 385 6 l 1,17,-1
 80 6 l 1,18,-1
 1008 582 l 1,19,-1
 1008 1030 l 1,20,-1
 272 1030 l 1,21,-1
 272 551 l 1,22,-1
 592 551 l 1,23,-1
 592 389 l 1,24,-1
 272 389 l 2,25,26
 206 389 206 389 159.5 437 c 128,-1,27
 113 485 113 485 113 551 c 2,4,-1
EndSplineSet
Validated: 1
EndChar

StartChar: uF2A0B
Encoding: 993802 993802 12
Width: 1227
GlyphClass: 2
Flags: W
LayerCount: 2
Fore
SplineSet
160 1190 m 2,0,-1
 240 1190 l 1,1,-1
 246 1190 l 1,2,-1
 248 1190 l 2,3,4
 284 1190 284 1190 309 1159 c 2,5,-1
 655 727 l 1,6,-1
 1001 1159 l 2,7,8
 1026 1190 1026 1190 1065 1190 c 0,9,10
 1100 1190 1100 1190 1123.5 1166.5 c 128,-1,11
 1147 1143 1147 1143 1147 1110 c 0,12,13
 1147 1086 1147 1086 1128 1061 c 2,14,-1
 760 598 l 1,15,-1
 1128 135 l 2,16,17
 1147 110 1147 110 1147 86 c 0,18,19
 1147 53 1147 53 1123.5 29.5 c 128,-1,20
 1100 6 1100 6 1065 6 c 0,21,22
 1026 6 1026 6 1001 37 c 2,23,-1
 655 469 l 1,24,-1
 309 37 l 2,25,26
 284 6 284 6 248 6 c 2,27,-1
 246 6 l 1,28,-1
 240 6 l 1,29,-1
 160 6 l 2,30,31
 128 6 128 6 104 30 c 128,-1,32
 80 54 80 54 80 86 c 2,33,-1
 80 1110 l 2,34,35
 80 1142 80 1142 104 1166 c 128,-1,36
 128 1190 128 1190 160 1190 c 2,0,-1
240 989 m 1,37,-1
 240 207 l 1,38,-1
 553 598 l 1,39,-1
 240 989 l 1,37,-1
EndSplineSet
Validated: 1
EndChar

StartChar: uF2A0C
Encoding: 993803 993803 13
Width: 895
GlyphClass: 2
Flags: W
LayerCount: 2
Fore
SplineSet
399 582 m 1,0,-1
 399 326 l 2,1,2
 399 194 399 194 305.5 100 c 128,-1,3
 212 6 212 6 80 6 c 1,4,-1
 80 166 l 1,5,6
 146 166 146 166 193 213 c 128,-1,7
 240 260 240 260 240 326 c 2,8,-1
 240 1190 l 1,9,-1
 399 1190 l 1,10,-1
 399 741 l 1,11,-1
 815 741 l 1,12,-1
 815 6 l 1,13,-1
 655 6 l 1,14,-1
 655 582 l 1,15,-1
 399 582 l 1,0,-1
EndSplineSet
Validated: 1
EndChar

StartChar: uF2A0D
Encoding: 993804 993804 14
Width: 1122
GlyphClass: 2
Flags: W
LayerCount: 2
Fore
SplineSet
399 582 m 1,0,-1
 399 326 l 2,1,2
 399 194 399 194 305.5 100 c 128,-1,3
 212 6 212 6 80 6 c 1,4,-1
 80 166 l 1,5,6
 146 166 146 166 193 213 c 128,-1,7
 240 260 240 260 240 326 c 2,8,-1
 240 1190 l 1,9,-1
 399 1190 l 1,10,-1
 399 741 l 1,11,-1
 815 741 l 1,12,-1
 815 6 l 1,13,-1
 655 6 l 1,14,-1
 655 582 l 1,15,-1
 399 582 l 1,0,-1
1042 1190 m 1,16,-1
 817 967 l 1,17,-1
 592 967 l 1,18,-1
 815 1190 l 1,19,-1
 1042 1190 l 1,16,-1
EndSplineSet
Validated: 1
EndChar

StartChar: uF2A0E
Encoding: 993805 993805 15
Width: 1120
GlyphClass: 2
Flags: W
LayerCount: 2
Fore
SplineSet
242 1061 m 1,0,1
 240 1041 240 1041 240 262 c 0,2,3
 240 182 240 182 242 168 c 1,4,5
 260 166 260 166 336 166 c 0,6,7
 859 166 859 166 879 168 c 1,8,9
 881 186 881 186 881 262 c 0,10,11
 881 1041 881 1041 879 1061 c 1,12,13
 861 1063 861 1063 784 1063 c 0,14,15
 262 1063 262 1063 242 1061 c 1,0,1
80 967 m 2,16,17
 80 1051 80 1051 84.5 1087 c 128,-1,18
 89 1123 89 1123 109 1153 c 0,19,20
 145 1206 145 1206 203 1217 c 0,21,22
 234 1223 234 1223 299 1223 c 2,23,-1
 336 1223 l 1,24,-1
 784 1223 l 2,25,26
 868 1223 868 1223 905.5 1218.5 c 128,-1,27
 943 1214 943 1214 973 1194 c 0,28,29
 1023 1160 1023 1160 1034 1100 c 0,30,31
 1040 1069 1040 1069 1040 1001 c 2,32,-1
 1040 967 l 1,33,-1
 1040 262 l 1,34,-1
 1040 225 l 2,35,36
 1040 158 1040 158 1034 127 c 0,37,38
 1010 18 1010 18 895 10 c 0,39,40
 866 6 866 6 336 6 c 2,41,-1
 299 6 l 2,42,43
 234 6 234 6 203 12 c 0,44,45
 144 23 144 23 109 74 c 0,46,47
 89 104 89 104 84.5 141 c 128,-1,48
 80 178 80 178 80 262 c 2,49,-1
 80 967 l 2,16,17
303 551 m 1,50,-1
 303 711 l 1,51,-1
 815 711 l 1,52,-1
 815 551 l 1,53,-1
 303 551 l 1,50,-1
EndSplineSet
Validated: 1
EndChar

StartChar: uF2A0F
Encoding: 993806 993806 16
Width: 1342
GlyphClass: 2
Flags: W
LayerCount: 2
Fore
SplineSet
1018 1069 m 1,0,1
 1040 1017 1040 1017 1040 967 c 2,2,-1
 1040 262 l 2,3,4
 1040 156 1040 156 965 81 c 128,-1,5
 890 6 890 6 784 6 c 2,6,-1
 336 6 l 2,7,8
 230 6 230 6 155 81 c 128,-1,9
 80 156 80 156 80 262 c 2,10,-1
 80 967 l 2,11,12
 80 1073 80 1073 155 1148 c 128,-1,13
 230 1223 230 1223 336 1223 c 2,14,-1
 784 1223 l 2,15,16
 843 1223 843 1223 899 1194 c 1,17,-1
 1036 1350 l 1,18,-1
 1262 1350 l 1,19,-1
 1018 1069 l 1,0,1
784 1063 m 2,20,-1
 336 1063 l 2,21,22
 296 1063 296 1063 268 1035 c 128,-1,23
 240 1007 240 1007 240 967 c 2,24,-1
 240 262 l 2,25,26
 240 222 240 222 268 194 c 128,-1,27
 296 166 296 166 336 166 c 2,28,-1
 784 166 l 2,29,30
 824 166 824 166 852.5 194 c 128,-1,31
 881 222 881 222 881 262 c 2,32,-1
 881 967 l 2,33,34
 881 1007 881 1007 852.5 1035 c 128,-1,35
 824 1063 824 1063 784 1063 c 2,20,-1
303 551 m 1,36,-1
 303 711 l 1,37,-1
 815 711 l 1,38,-1
 815 551 l 1,39,-1
 303 551 l 1,36,-1
EndSplineSet
Validated: 1
EndChar

StartChar: less
Encoding: 993807 993807 17
Width: 895
GlyphClass: 2
Flags: W
LayerCount: 2
Fore
SplineSet
80 -217 m 1,0,-1
 80 -57 l 1,1,-1
 815 -57 l 1,2,-1
 815 -217 l 1,3,-1
 80 -217 l 1,0,-1
399 582 m 1,4,-1
 399 326 l 2,5,6
 399 194 399 194 305.5 100 c 128,-1,7
 212 6 212 6 80 6 c 1,8,-1
 80 166 l 1,9,10
 146 166 146 166 193 213 c 128,-1,11
 240 260 240 260 240 326 c 2,12,-1
 240 1190 l 1,13,-1
 399 1190 l 1,14,-1
 399 741 l 1,15,-1
 815 741 l 1,16,-1
 815 6 l 1,17,-1
 655 6 l 1,18,-1
 655 582 l 1,19,-1
 399 582 l 1,4,-1
EndSplineSet
Validated: 1
EndChar

StartChar: uF2A10
Encoding: 993808 993808 19
Width: 1122
Flags: W
LayerCount: 2
Fore
SplineSet
1042 1190 m 1,0,-1
 818 966 l 1,1,-1
 592 966 l 1,2,-1
 816 1190 l 1,3,-1
 1042 1190 l 1,0,-1
400 582 m 1,4,-1
 400 326 l 2,5,6
 400 193 400 193 306.5 99.5 c 128,-1,7
 213 6 213 6 80 6 c 1,8,-1
 80 166 l 1,9,10
 146 166 146 166 193 213 c 128,-1,11
 240 260 240 260 240 326 c 2,12,-1
 240 1190 l 1,13,-1
 400 1190 l 1,14,-1
 400 742 l 1,15,-1
 816 742 l 1,16,-1
 816 6 l 1,17,-1
 656 6 l 1,18,-1
 656 582 l 1,19,-1
 400 582 l 1,4,-1
80 -218 m 1,20,-1
 80 -58 l 1,21,-1
 816 -58 l 1,22,-1
 816 -218 l 1,23,-1
 80 -218 l 1,20,-1
EndSplineSet
Validated: 1
EndChar

StartChar: uF2A20
Encoding: 993824 993824 20
Width: 1338
Flags: W
LayerCount: 2
Fore
SplineSet
81 1158 m 1,0,-1
 81 1157 l 1,1,-1
 80 1158 l 1,2,-1
 81 1158 l 1,0,-1
432 1030 m 1,3,-1
 272 1030 l 2,4,5
 259 1030 259 1030 249.5 1020.5 c 128,-1,6
 240 1011 240 1011 240 998 c 2,7,-1
 240 870 l 2,8,9
 240 857 240 857 249.5 847.5 c 128,-1,10
 259 838 259 838 272 838 c 2,11,-1
 400 838 l 2,12,13
 413 838 413 838 422.5 847.5 c 128,-1,14
 432 857 432 857 432 870 c 2,15,-1
 432 1030 l 1,3,-1
1062 1190 m 1,16,-1
 1095 1190 l 2,17,18
 1119 1190 1119 1190 1138.5 1177 c 128,-1,19
 1158 1164 1158 1164 1167.5 1144.5 c 128,-1,20
 1177 1125 1177 1125 1174.5 1101.5 c 128,-1,21
 1172 1078 1172 1078 1157 1059 c 2,22,-1
 763 579 l 1,23,-1
 1233 6 l 1,24,-1
 1026 6 l 1,25,-1
 659 453 l 1,26,-1
 292 6 l 1,27,-1
 80 6 l 1,28,-1
 920 1030 l 1,29,-1
 592 1030 l 1,30,-1
 592 870 l 2,31,32
 592 790 592 790 536 734 c 128,-1,33
 480 678 480 678 400 678 c 2,34,-1
 272 678 l 2,35,36
 192 678 192 678 136 734 c 128,-1,37
 80 790 80 790 80 870 c 2,38,-1
 80 998 l 2,39,40
 80 1078 80 1078 136 1134 c 128,-1,41
 192 1190 192 1190 272 1190 c 2,42,-1
 836 1190 l 1,43,-1
 1032 1414 l 1,44,-1
 1258 1414 l 1,45,-1
 1062 1190 l 1,16,-1
EndSplineSet
Validated: 1
EndChar

StartChar: uF2A11
Encoding: 993809 993809 21
Width: 1120
Flags: W
LayerCount: 2
Fore
SplineSet
176 -218 m 1,0,-1
 176 -58 l 1,1,-1
 944 -58 l 1,2,-1
 944 -218 l 1,3,-1
 176 -218 l 1,0,-1
240 262 m 0,4,5
 240 188 240 188 242 168 c 1,6,7
 262 166 262 166 784 166 c 0,8,9
 859 166 859 166 878 168 c 1,10,11
 880 188 880 188 880 966 c 0,12,13
 880 1041 880 1041 878 1060 c 1,14,15
 858 1062 858 1062 336 1062 c 0,16,17
 261 1062 261 1062 242 1060 c 1,18,19
 240 1040 240 1040 240 262 c 0,4,5
80 966 m 2,20,21
 80 1050 80 1050 84.5 1087.5 c 128,-1,22
 89 1125 89 1125 108 1155 c 0,23,24
 122 1176 122 1176 141.5 1190.5 c 128,-1,25
 161 1205 161 1205 185 1211 c 128,-1,26
 209 1217 209 1217 223 1218.5 c 128,-1,27
 237 1220 237 1220 257 1221 c 0,28,29
 279 1222 279 1222 784 1222 c 0,30,31
 868 1222 868 1222 905.5 1217.5 c 128,-1,32
 943 1213 943 1213 973 1194 c 0,33,34
 1002 1175 1002 1175 1018 1144 c 0,35,36
 1029 1124 1029 1124 1033.5 1096 c 128,-1,37
 1038 1068 1038 1068 1039 1044 c 128,-1,38
 1040 1020 1040 1020 1040 966 c 0,39,40
 1040 205 1040 205 1039 183 c 0,41,42
 1038 162 1038 162 1036 147 c 128,-1,43
 1034 132 1034 132 1028 109 c 128,-1,44
 1022 86 1022 86 1008 67 c 128,-1,45
 994 48 994 48 973 34.5 c 128,-1,46
 952 21 952 21 923 14.5 c 128,-1,47
 894 8 894 8 868.5 7 c 128,-1,48
 843 6 843 6 784 6 c 0,49,50
 279 6 279 6 257 7 c 0,51,52
 236 8 236 8 221 10 c 128,-1,53
 206 12 206 12 183 18 c 128,-1,54
 160 24 160 24 141 38 c 128,-1,55
 122 52 122 52 108.5 73 c 128,-1,56
 95 94 95 94 88.5 123 c 128,-1,57
 82 152 82 152 81 177.5 c 128,-1,58
 80 203 80 203 80 262 c 2,59,-1
 80 966 l 2,20,21
304 550 m 1,60,-1
 304 710 l 1,61,-1
 816 710 l 1,62,-1
 816 550 l 1,63,-1
 304 550 l 1,60,-1
EndSplineSet
Validated: 1
EndChar

StartChar: uF2A12
Encoding: 993810 993810 22
Width: 1342
Flags: W
LayerCount: 2
Fore
SplineSet
176 -58 m 1,0,-1
 944 -58 l 1,1,-1
 944 -218 l 1,2,-1
 176 -218 l 1,3,-1
 176 -58 l 1,0,-1
1018 1071 m 1,4,5
 1040 1021 1040 1021 1040 966 c 2,6,-1
 1040 262 l 2,7,8
 1040 156 1040 156 965 81 c 128,-1,9
 890 6 890 6 784 6 c 2,10,-1
 336 6 l 2,11,12
 230 6 230 6 155 81 c 128,-1,13
 80 156 80 156 80 262 c 2,14,-1
 80 966 l 2,15,16
 80 1072 80 1072 155 1147 c 128,-1,17
 230 1222 230 1222 336 1222 c 2,18,-1
 784 1222 l 2,19,20
 845 1222 845 1222 900 1194 c 1,21,-1
 1036 1350 l 1,22,-1
 1262 1350 l 1,23,-1
 1018 1071 l 1,4,5
336 1062 m 2,24,25
 296 1062 296 1062 268 1034 c 128,-1,26
 240 1006 240 1006 240 966 c 2,27,-1
 240 262 l 2,28,29
 240 222 240 222 268 194 c 128,-1,30
 296 166 296 166 336 166 c 2,31,-1
 784 166 l 2,32,33
 824 166 824 166 852 194 c 128,-1,34
 880 222 880 222 880 262 c 2,35,-1
 880 966 l 2,36,37
 880 1006 880 1006 852 1034 c 128,-1,38
 824 1062 824 1062 784 1062 c 2,39,-1
 336 1062 l 2,24,25
304 550 m 1,40,-1
 304 710 l 1,41,-1
 816 710 l 1,42,-1
 816 550 l 1,43,-1
 304 550 l 1,40,-1
EndSplineSet
Validated: 1
EndChar

StartChar: uF2A13
Encoding: 993811 993811 23
Width: 896
Flags: W
LayerCount: 2
Fore
SplineSet
400 582 m 1,0,-1
 400 326 l 2,1,2
 400 193 400 193 306.5 99.5 c 128,-1,3
 213 6 213 6 80 6 c 1,4,-1
 80 166 l 1,5,6
 146 166 146 166 193 213 c 128,-1,7
 240 260 240 260 240 326 c 2,8,-1
 240 1190 l 1,9,-1
 400 1190 l 1,10,-1
 400 742 l 1,11,-1
 816 742 l 1,12,-1
 816 6 l 1,13,-1
 656 6 l 1,14,-1
 656 582 l 1,15,-1
 400 582 l 1,0,-1
336 -138 m 128,-1,17
 336 -78 336 -78 378 -36 c 128,-1,18
 420 6 420 6 480 6 c 128,-1,19
 540 6 540 6 582 -36 c 128,-1,20
 624 -78 624 -78 624 -138 c 128,-1,21
 624 -198 624 -198 582 -240 c 128,-1,22
 540 -282 540 -282 480 -282 c 128,-1,23
 420 -282 420 -282 378 -240 c 128,-1,16
 336 -198 336 -198 336 -138 c 128,-1,17
EndSplineSet
Validated: 1
EndChar

StartChar: uF2A14
Encoding: 993812 993812 24
Width: 1122
Flags: W
LayerCount: 2
Fore
SplineSet
1042 1190 m 1,0,-1
 818 966 l 1,1,-1
 592 966 l 1,2,-1
 816 1190 l 1,3,-1
 1042 1190 l 1,0,-1
400 582 m 1,4,-1
 400 326 l 2,5,6
 400 193 400 193 306.5 99.5 c 128,-1,7
 213 6 213 6 80 6 c 1,8,-1
 80 166 l 1,9,10
 146 166 146 166 193 213 c 128,-1,11
 240 260 240 260 240 326 c 2,12,-1
 240 1190 l 1,13,-1
 400 1190 l 1,14,-1
 400 742 l 1,15,-1
 816 742 l 1,16,-1
 816 6 l 1,17,-1
 656 6 l 1,18,-1
 656 582 l 1,19,-1
 400 582 l 1,4,-1
336 -138 m 128,-1,21
 336 -78 336 -78 378 -36 c 128,-1,22
 420 6 420 6 480 6 c 128,-1,23
 540 6 540 6 582 -36 c 128,-1,24
 624 -78 624 -78 624 -138 c 128,-1,25
 624 -198 624 -198 582 -240 c 128,-1,26
 540 -282 540 -282 480 -282 c 128,-1,27
 420 -282 420 -282 378 -240 c 128,-1,20
 336 -198 336 -198 336 -138 c 128,-1,21
EndSplineSet
Validated: 1
EndChar

StartChar: uF2A15
Encoding: 993813 993813 25
Width: 1120
Flags: W
LayerCount: 2
Fore
SplineSet
304 550 m 1,0,-1
 304 710 l 1,1,-1
 816 710 l 1,2,-1
 816 550 l 1,3,-1
 304 550 l 1,0,-1
80 966 m 2,4,5
 80 1050 80 1050 84.5 1087.5 c 128,-1,6
 89 1125 89 1125 108 1155 c 0,7,8
 122 1176 122 1176 141.5 1190.5 c 128,-1,9
 161 1205 161 1205 185 1211 c 128,-1,10
 209 1217 209 1217 223 1218.5 c 128,-1,11
 237 1220 237 1220 257 1221 c 0,12,13
 279 1222 279 1222 784 1222 c 0,14,15
 868 1222 868 1222 905.5 1217.5 c 128,-1,16
 943 1213 943 1213 973 1194 c 0,17,18
 1002 1175 1002 1175 1018 1144 c 0,19,20
 1029 1124 1029 1124 1033.5 1096 c 128,-1,21
 1038 1068 1038 1068 1039 1044 c 128,-1,22
 1040 1020 1040 1020 1040 966 c 0,23,24
 1040 205 1040 205 1039 183 c 0,25,26
 1038 162 1038 162 1036 147 c 128,-1,27
 1034 132 1034 132 1028 109 c 128,-1,28
 1022 86 1022 86 1008 67 c 128,-1,29
 994 48 994 48 973 34.5 c 128,-1,30
 952 21 952 21 923 14.5 c 128,-1,31
 894 8 894 8 868.5 7 c 128,-1,32
 843 6 843 6 784 6 c 0,33,34
 279 6 279 6 257 7 c 0,35,36
 236 8 236 8 221 10 c 128,-1,37
 206 12 206 12 183 18 c 128,-1,38
 160 24 160 24 141 38 c 128,-1,39
 122 52 122 52 108.5 73 c 128,-1,40
 95 94 95 94 88.5 123 c 128,-1,41
 82 152 82 152 81 177.5 c 128,-1,42
 80 203 80 203 80 262 c 2,43,44
 80 262 80 262 80 966 c 2,4,5
240 262 m 0,45,46
 240 188 240 188 242 168 c 1,47,48
 262 166 262 166 784 166 c 0,49,50
 859 166 859 166 878 168 c 1,51,52
 880 188 880 188 880 966 c 0,53,54
 880 1041 880 1041 878 1060 c 1,55,56
 858 1062 858 1062 336 1062 c 0,57,58
 261 1062 261 1062 242 1060 c 1,59,60
 240 1040 240 1040 240 262 c 0,45,46
432 -170 m 128,-1,62
 432 -110 432 -110 474 -68 c 128,-1,63
 516 -26 516 -26 576 -26 c 128,-1,64
 636 -26 636 -26 678 -68 c 128,-1,65
 720 -110 720 -110 720 -170 c 128,-1,66
 720 -230 720 -230 678 -272 c 128,-1,67
 636 -314 636 -314 576 -314 c 128,-1,68
 516 -314 516 -314 474 -272 c 128,-1,61
 432 -230 432 -230 432 -170 c 128,-1,62
EndSplineSet
Validated: 1
EndChar

StartChar: uF2A16
Encoding: 993814 993814 26
Width: 1342
Flags: W
LayerCount: 2
Fore
SplineSet
432 -170 m 128,-1,1
 432 -110 432 -110 474 -68 c 128,-1,2
 516 -26 516 -26 576 -26 c 128,-1,3
 636 -26 636 -26 678 -68 c 128,-1,4
 720 -110 720 -110 720 -170 c 128,-1,5
 720 -230 720 -230 678 -272 c 128,-1,6
 636 -314 636 -314 576 -314 c 128,-1,7
 516 -314 516 -314 474 -272 c 128,-1,0
 432 -230 432 -230 432 -170 c 128,-1,1
1018 1071 m 1,8,9
 1040 1021 1040 1021 1040 966 c 2,10,-1
 1040 262 l 2,11,12
 1040 156 1040 156 965 81 c 128,-1,13
 890 6 890 6 784 6 c 2,14,-1
 336 6 l 2,15,16
 230 6 230 6 155 81 c 128,-1,17
 80 156 80 156 80 262 c 2,18,-1
 80 966 l 2,19,20
 80 1072 80 1072 155 1147 c 128,-1,21
 230 1222 230 1222 336 1222 c 2,22,-1
 784 1222 l 2,23,24
 845 1222 845 1222 900 1194 c 1,25,-1
 1036 1350 l 1,26,-1
 1262 1350 l 1,27,-1
 1018 1071 l 1,8,9
784 1062 m 2,28,-1
 336 1062 l 2,29,30
 296 1062 296 1062 268 1034 c 128,-1,31
 240 1006 240 1006 240 966 c 2,32,-1
 240 262 l 2,33,34
 240 222 240 222 268 194 c 128,-1,35
 296 166 296 166 336 166 c 2,36,-1
 784 166 l 2,37,38
 824 166 824 166 852 194 c 128,-1,39
 880 222 880 222 880 262 c 2,40,-1
 880 966 l 2,41,42
 880 1006 880 1006 852 1034 c 128,-1,43
 824 1062 824 1062 784 1062 c 2,28,-1
304 550 m 1,44,-1
 304 710 l 1,45,-1
 816 710 l 1,46,-1
 816 550 l 1,47,-1
 304 550 l 1,44,-1
EndSplineSet
Validated: 1
EndChar

StartChar: uF2A17
Encoding: 993815 993815 27
Width: 1152
Flags: W
LayerCount: 2
Fore
SplineSet
1072 6 m 1,0,-1
 912 6 l 1,1,-1
 912 1286 l 1,2,-1
 592 1286 l 1,3,-1
 592 1030 l 1,4,-1
 432 1030 l 1,5,-1
 432 1302 l 2,6,7
 432 1362 432 1362 474 1404 c 128,-1,8
 516 1446 516 1446 576 1446 c 2,9,-1
 928 1446 l 2,10,11
 988 1446 988 1446 1030 1404 c 128,-1,12
 1072 1362 1072 1362 1072 1302 c 2,13,-1
 1072 6 l 1,0,-1
400 582 m 1,14,-1
 400 326 l 2,15,16
 400 193 400 193 306.5 99.5 c 128,-1,17
 213 6 213 6 80 6 c 1,18,-1
 80 166 l 1,19,20
 146 166 146 166 193 213 c 128,-1,21
 240 260 240 260 240 326 c 2,22,-1
 240 1190 l 1,23,-1
 400 1190 l 1,24,-1
 400 742 l 1,25,-1
 816 742 l 1,26,-1
 816 6 l 1,27,-1
 656 6 l 1,28,-1
 656 582 l 1,29,-1
 400 582 l 1,14,-1
EndSplineSet
Validated: 1
EndChar

StartChar: uF2A18
Encoding: 993816 993816 28
Width: 1346
Flags: W
LayerCount: 2
Fore
SplineSet
1072 6 m 1,0,-1
 912 6 l 1,1,-1
 912 1286 l 1,2,-1
 592 1286 l 1,3,-1
 592 1030 l 1,4,-1
 432 1030 l 1,5,-1
 432 1302 l 2,6,7
 432 1362 432 1362 474 1404 c 128,-1,8
 516 1446 516 1446 576 1446 c 2,9,-1
 900 1446 l 1,10,-1
 1040 1606 l 1,11,-1
 1266 1606 l 1,12,-1
 1057 1367 l 1,13,14
 1072 1337 1072 1337 1072 1302 c 2,15,-1
 1072 6 l 1,0,-1
400 582 m 1,16,-1
 400 326 l 2,17,18
 400 193 400 193 306.5 99.5 c 128,-1,19
 213 6 213 6 80 6 c 1,20,-1
 80 166 l 1,21,22
 146 166 146 166 193 213 c 128,-1,23
 240 260 240 260 240 326 c 2,24,-1
 240 1190 l 1,25,-1
 400 1190 l 1,26,-1
 400 742 l 1,27,-1
 816 742 l 1,28,-1
 816 6 l 1,29,-1
 656 6 l 1,30,-1
 656 582 l 1,31,-1
 400 582 l 1,16,-1
EndSplineSet
Validated: 1
EndChar

StartChar: uF2A19
Encoding: 993817 993817 29
Width: 1376
Flags: W
LayerCount: 2
Fore
SplineSet
304 550 m 1,0,-1
 304 710 l 1,1,-1
 816 710 l 1,2,-1
 816 550 l 1,3,-1
 304 550 l 1,0,-1
336 1062 m 2,4,5
 296 1062 296 1062 268 1034 c 128,-1,6
 240 1006 240 1006 240 966 c 2,7,-1
 240 262 l 2,8,9
 240 222 240 222 268 194 c 128,-1,10
 296 166 296 166 336 166 c 2,11,-1
 784 166 l 2,12,13
 824 166 824 166 852 194 c 128,-1,14
 880 222 880 222 880 262 c 2,15,-1
 880 966 l 2,16,17
 880 1006 880 1006 852 1034 c 128,-1,18
 824 1062 824 1062 784 1062 c 2,19,-1
 336 1062 l 2,4,5
624 1302 m 2,20,21
 624 1362 624 1362 666 1404 c 128,-1,22
 708 1446 708 1446 768 1446 c 2,23,-1
 1152 1446 l 2,24,25
 1212 1446 1212 1446 1254 1404 c 128,-1,26
 1296 1362 1296 1362 1296 1302 c 2,27,-1
 1296 6 l 1,28,-1
 1136 6 l 1,29,-1
 1136 1286 l 1,30,-1
 784 1286 l 1,31,-1
 784 1222 l 1,32,33
 890 1222 890 1222 965 1147 c 128,-1,34
 1040 1072 1040 1072 1040 966 c 2,35,-1
 1040 262 l 2,36,37
 1040 156 1040 156 965 81 c 128,-1,38
 890 6 890 6 784 6 c 2,39,-1
 336 6 l 2,40,41
 230 6 230 6 155 81 c 128,-1,42
 80 156 80 156 80 262 c 2,43,-1
 80 966 l 2,44,45
 80 1072 80 1072 155 1147 c 128,-1,46
 230 1222 230 1222 336 1222 c 2,47,-1
 624 1222 l 1,48,-1
 624 1302 l 2,20,21
EndSplineSet
Validated: 1
EndChar

StartChar: uF2A1A
Encoding: 993818 993818 30
Width: 1506
Flags: W
LayerCount: 2
Fore
SplineSet
304 550 m 1,0,-1
 304 710 l 1,1,-1
 816 710 l 1,2,-1
 816 550 l 1,3,-1
 304 550 l 1,0,-1
336 1062 m 2,4,5
 296 1062 296 1062 268 1034 c 128,-1,6
 240 1006 240 1006 240 966 c 2,7,-1
 240 262 l 2,8,9
 240 222 240 222 268 194 c 128,-1,10
 296 166 296 166 336 166 c 2,11,-1
 784 166 l 2,12,13
 824 166 824 166 852 194 c 128,-1,14
 880 222 880 222 880 262 c 2,15,-1
 880 966 l 2,16,17
 880 1006 880 1006 852 1034 c 128,-1,18
 824 1062 824 1062 784 1062 c 2,19,-1
 336 1062 l 2,4,5
1426 1606 m 1,20,-1
 1236 1388 l 1,21,22
 1264 1350 1264 1350 1264 1302 c 2,23,-1
 1264 6 l 1,24,-1
 1104 6 l 1,25,-1
 1104 1286 l 1,26,-1
 752 1286 l 1,27,-1
 752 1222 l 1,28,-1
 784 1222 l 2,29,30
 890 1222 890 1222 965 1147 c 128,-1,31
 1040 1072 1040 1072 1040 966 c 2,32,-1
 1040 262 l 2,33,34
 1040 156 1040 156 965 81 c 128,-1,35
 890 6 890 6 784 6 c 2,36,-1
 336 6 l 2,37,38
 230 6 230 6 155 81 c 128,-1,39
 80 156 80 156 80 262 c 2,40,-1
 80 966 l 2,41,42
 80 1072 80 1072 155 1147 c 128,-1,43
 230 1222 230 1222 336 1222 c 2,44,-1
 592 1222 l 1,45,-1
 592 1302 l 2,46,47
 592 1362 592 1362 634 1404 c 128,-1,48
 676 1446 676 1446 736 1446 c 2,49,-1
 1060 1446 l 1,50,-1
 1200 1606 l 1,51,-1
 1426 1606 l 1,20,-1
EndSplineSet
Validated: 1
EndChar

StartChar: uF2A1B
Encoding: 993819 993819 31
Width: 896
Flags: W
LayerCount: 2
Fore
SplineSet
400 582 m 1,0,-1
 400 326 l 2,1,2
 400 193 400 193 306.5 99.5 c 128,-1,3
 213 6 213 6 80 6 c 1,4,-1
 80 166 l 1,5,6
 146 166 146 166 193 213 c 128,-1,7
 240 260 240 260 240 326 c 2,8,-1
 240 1190 l 1,9,-1
 400 1190 l 1,10,-1
 400 742 l 1,11,-1
 816 742 l 1,12,-1
 816 6 l 1,13,-1
 656 6 l 1,14,-1
 656 582 l 1,15,-1
 400 582 l 1,0,-1
688 -218 m 1,16,-1
 561 -218 l 1,17,18
 561 -199 561 -199 554 -181 c 128,-1,19
 547 -163 547 -163 533 -149 c 128,-1,20
 519 -135 519 -135 501 -128 c 128,-1,21
 483 -121 483 -121 464 -121 c 128,-1,22
 445 -121 445 -121 427 -128 c 128,-1,23
 409 -135 409 -135 395 -149 c 128,-1,24
 381 -163 381 -163 374 -181 c 128,-1,25
 367 -199 367 -199 367 -218 c 1,26,-1
 240 -218 l 1,27,28
 240 -173 240 -173 257 -132 c 128,-1,29
 274 -91 274 -91 305.5 -59.5 c 128,-1,30
 337 -28 337 -28 378 -11 c 128,-1,31
 419 6 419 6 464 6 c 128,-1,32
 509 6 509 6 550 -11 c 128,-1,33
 591 -28 591 -28 622.5 -59.5 c 128,-1,34
 654 -91 654 -91 671 -132 c 128,-1,35
 688 -173 688 -173 688 -218 c 1,16,-1
EndSplineSet
Validated: 1
EndChar

StartChar: uF2A1C
Encoding: 993820 993820 32
Width: 1122
Flags: W
LayerCount: 2
Fore
SplineSet
1042 1190 m 1,0,-1
 818 934 l 1,1,-1
 592 934 l 1,2,-1
 816 1190 l 1,3,-1
 1042 1190 l 1,0,-1
400 582 m 1,4,-1
 400 326 l 2,5,6
 400 193 400 193 306.5 99.5 c 128,-1,7
 213 6 213 6 80 6 c 1,8,-1
 80 166 l 1,9,10
 146 166 146 166 193 213 c 128,-1,11
 240 260 240 260 240 326 c 2,12,-1
 240 1190 l 1,13,-1
 400 1190 l 1,14,-1
 400 742 l 1,15,-1
 816 742 l 1,16,-1
 816 6 l 1,17,-1
 656 6 l 1,18,-1
 656 582 l 1,19,-1
 400 582 l 1,4,-1
688 -218 m 1,20,-1
 561 -218 l 1,21,22
 561 -199 561 -199 554 -181 c 128,-1,23
 547 -163 547 -163 533 -149 c 128,-1,24
 519 -135 519 -135 501 -128 c 128,-1,25
 483 -121 483 -121 464 -121 c 128,-1,26
 445 -121 445 -121 427 -128 c 128,-1,27
 409 -135 409 -135 395 -149 c 128,-1,28
 381 -163 381 -163 374 -181 c 128,-1,29
 367 -199 367 -199 367 -218 c 1,30,-1
 240 -218 l 1,31,32
 240 -173 240 -173 257 -132 c 128,-1,33
 274 -91 274 -91 305.5 -59.5 c 128,-1,34
 337 -28 337 -28 378 -11 c 128,-1,35
 419 6 419 6 464 6 c 128,-1,36
 509 6 509 6 550 -11 c 128,-1,37
 591 -28 591 -28 622.5 -59.5 c 128,-1,38
 654 -91 654 -91 671 -132 c 128,-1,39
 688 -173 688 -173 688 -218 c 1,20,-1
EndSplineSet
Validated: 1
EndChar

StartChar: uF2A1D
Encoding: 993821 993821 33
Width: 1120
Flags: W
LayerCount: 2
Fore
SplineSet
784 -314 m 1,0,-1
 657 -314 l 1,1,2
 657 -295 657 -295 650 -277 c 128,-1,3
 643 -259 643 -259 629 -245 c 128,-1,4
 615 -231 615 -231 597 -224 c 128,-1,5
 579 -217 579 -217 560 -217 c 128,-1,6
 541 -217 541 -217 523 -224 c 128,-1,7
 505 -231 505 -231 491 -245 c 128,-1,8
 477 -259 477 -259 470 -277 c 128,-1,9
 463 -295 463 -295 463 -314 c 1,10,-1
 336 -314 l 1,11,12
 336 -269 336 -269 353 -228 c 128,-1,13
 370 -187 370 -187 401.5 -155.5 c 128,-1,14
 433 -124 433 -124 474 -107 c 128,-1,15
 515 -90 515 -90 560 -90 c 128,-1,16
 605 -90 605 -90 646 -107 c 128,-1,17
 687 -124 687 -124 718.5 -155.5 c 128,-1,18
 750 -187 750 -187 767 -228 c 128,-1,19
 784 -269 784 -269 784 -314 c 1,0,-1
240 262 m 0,20,21
 240 188 240 188 242 168 c 1,22,23
 261 166 261 166 784 166 c 0,24,25
 858 166 858 166 878 168 c 1,26,27
 880 187 880 187 880 966 c 0,28,29
 880 1040 880 1040 878 1060 c 1,30,31
 859 1062 859 1062 336 1062 c 0,32,33
 262 1062 262 1062 242 1060 c 1,34,35
 240 1040 240 1040 240 262 c 0,20,21
80 966 m 2,36,37
 80 1050 80 1050 84.5 1087.5 c 128,-1,38
 89 1125 89 1125 108 1155 c 0,39,40
 122 1177 122 1177 141.5 1191 c 128,-1,41
 161 1205 161 1205 185 1211 c 128,-1,42
 209 1217 209 1217 222.5 1218.5 c 128,-1,43
 236 1220 236 1220 257 1221 c 0,44,45
 279 1222 279 1222 784 1222 c 0,46,47
 868 1222 868 1222 905.5 1217.5 c 128,-1,48
 943 1213 943 1213 973 1194 c 0,49,50
 1002 1175 1002 1175 1018 1144 c 0,51,52
 1028 1124 1028 1124 1033 1096 c 128,-1,53
 1038 1068 1038 1068 1039 1044 c 128,-1,54
 1040 1020 1040 1020 1040 966 c 0,55,56
 1040 205 1040 205 1039 183 c 0,57,58
 1038 162 1038 162 1036 147 c 128,-1,59
 1034 132 1034 132 1028 109 c 128,-1,60
 1022 86 1022 86 1008 67 c 128,-1,61
 994 48 994 48 973 34.5 c 128,-1,62
 952 21 952 21 923 14.5 c 128,-1,63
 894 8 894 8 868.5 7 c 128,-1,64
 843 6 843 6 784 6 c 0,65,66
 279 6 279 6 257 7 c 0,67,68
 236 8 236 8 221 10 c 128,-1,69
 206 12 206 12 183 18 c 128,-1,70
 160 24 160 24 141 38 c 128,-1,71
 122 52 122 52 108.5 73 c 128,-1,72
 95 94 95 94 88.5 123 c 128,-1,73
 82 152 82 152 81 177.5 c 128,-1,74
 80 203 80 203 80 262 c 2,75,76
 80 262 80 262 80 966 c 2,36,37
304 550 m 1,77,-1
 304 710 l 1,78,-1
 816 710 l 1,79,-1
 816 550 l 1,80,-1
 304 550 l 1,77,-1
EndSplineSet
Validated: 1
EndChar

StartChar: uF2A1E
Encoding: 993822 993822 34
Width: 1342
Flags: W
LayerCount: 2
Fore
SplineSet
304 550 m 1,0,-1
 304 710 l 1,1,-1
 816 710 l 1,2,-1
 816 550 l 1,3,-1
 304 550 l 1,0,-1
784 1062 m 2,4,-1
 336 1062 l 2,5,6
 296 1062 296 1062 268 1034 c 128,-1,7
 240 1006 240 1006 240 966 c 2,8,-1
 240 262 l 2,9,10
 240 222 240 222 268 194 c 128,-1,11
 296 166 296 166 336 166 c 2,12,-1
 784 166 l 2,13,14
 824 166 824 166 852 194 c 128,-1,15
 880 222 880 222 880 262 c 2,16,-1
 880 966 l 2,17,18
 880 1006 880 1006 852 1034 c 128,-1,19
 824 1062 824 1062 784 1062 c 2,4,-1
1018 1071 m 1,20,21
 1040 1021 1040 1021 1040 966 c 2,22,-1
 1040 262 l 2,23,24
 1040 156 1040 156 965 81 c 128,-1,25
 890 6 890 6 784 6 c 2,26,-1
 336 6 l 2,27,28
 230 6 230 6 155 81 c 128,-1,29
 80 156 80 156 80 262 c 2,30,-1
 80 966 l 2,31,32
 80 1072 80 1072 155 1147 c 128,-1,33
 230 1222 230 1222 336 1222 c 2,34,-1
 784 1222 l 2,35,36
 845 1222 845 1222 900 1194 c 1,37,-1
 1036 1350 l 1,38,-1
 1262 1350 l 1,39,-1
 1018 1071 l 1,20,21
784 -314 m 1,40,-1
 657 -314 l 1,41,42
 657 -295 657 -295 650 -277 c 128,-1,43
 643 -259 643 -259 629 -245 c 128,-1,44
 615 -231 615 -231 597 -224 c 128,-1,45
 579 -217 579 -217 560 -217 c 128,-1,46
 541 -217 541 -217 523 -224 c 128,-1,47
 505 -231 505 -231 491 -245 c 128,-1,48
 477 -259 477 -259 470 -277 c 128,-1,49
 463 -295 463 -295 463 -314 c 1,50,-1
 336 -314 l 1,51,52
 336 -269 336 -269 353 -228 c 128,-1,53
 370 -187 370 -187 401.5 -155.5 c 128,-1,54
 433 -124 433 -124 474 -107 c 128,-1,55
 515 -90 515 -90 560 -90 c 128,-1,56
 605 -90 605 -90 646 -107 c 128,-1,57
 687 -124 687 -124 718.5 -155.5 c 128,-1,58
 750 -187 750 -187 767 -228 c 128,-1,59
 784 -269 784 -269 784 -314 c 1,40,-1
EndSplineSet
Validated: 1
EndChar

StartChar: uF2A1F
Encoding: 993823 993823 35
Width: 1313
Flags: W
LayerCount: 2
Fore
SplineSet
81 1158 m 1,0,-1
 81 1157 l 1,1,-1
 80 1158 l 1,2,-1
 81 1158 l 1,0,-1
432 1030 m 1,3,-1
 272 1030 l 2,4,5
 259 1030 259 1030 249.5 1020.5 c 128,-1,6
 240 1011 240 1011 240 998 c 2,7,-1
 240 870 l 2,8,9
 240 857 240 857 249.5 847.5 c 128,-1,10
 259 838 259 838 272 838 c 2,11,-1
 400 838 l 2,12,13
 413 838 413 838 422.5 847.5 c 128,-1,14
 432 857 432 857 432 870 c 2,15,-1
 432 1030 l 1,3,-1
80 6 m 1,16,-1
 920 1030 l 1,17,-1
 592 1030 l 1,18,-1
 592 870 l 2,19,20
 592 790 592 790 536 734 c 128,-1,21
 480 678 480 678 400 678 c 2,22,-1
 272 678 l 2,23,24
 192 678 192 678 136 734 c 128,-1,25
 80 790 80 790 80 870 c 2,26,-1
 80 998 l 2,27,28
 80 1078 80 1078 136 1134 c 128,-1,29
 192 1190 192 1190 272 1190 c 2,30,-1
 1095 1190 l 2,31,32
 1119 1190 1119 1190 1138.5 1177 c 128,-1,33
 1158 1164 1158 1164 1167.5 1144.5 c 128,-1,34
 1177 1125 1177 1125 1174.5 1101.5 c 128,-1,35
 1172 1078 1172 1078 1157 1059 c 2,36,-1
 763 579 l 1,37,-1
 1233 6 l 1,38,-1
 1026 6 l 1,39,-1
 659 453 l 1,40,-1
 292 6 l 1,41,-1
 80 6 l 1,16,-1
EndSplineSet
Validated: 1
EndChar

StartChar: uF2A21
Encoding: 993825 993825 36
Width: 1184
Flags: W
LayerCount: 2
Fore
SplineSet
1104 1190 m 1,0,-1
 1104 1030 l 1,1,-1
 400 1030 l 1,2,-1
 400 706 l 1,3,4
 467 742 467 742 544 742 c 2,5,-1
 816 742 l 2,6,7
 896 742 896 742 952 686 c 128,-1,8
 1008 630 1008 630 1008 550 c 2,9,-1
 1008 6 l 1,10,-1
 848 6 l 1,11,-1
 848 550 l 2,12,13
 848 563 848 563 838.5 572.5 c 128,-1,14
 829 582 829 582 816 582 c 2,15,-1
 544 582 l 2,16,17
 484 582 484 582 442 540 c 128,-1,18
 400 498 400 498 400 438 c 2,19,-1
 400 6 l 1,20,-1
 240 6 l 1,21,-1
 240 1030 l 1,22,-1
 80 1030 l 1,23,-1
 80 1190 l 1,24,-1
 1104 1190 l 1,0,-1
EndSplineSet
Validated: 1
EndChar

StartChar: uF2A22
Encoding: 993826 993826 37
Width: 1242
Flags: W
LayerCount: 2
Fore
SplineSet
966 1190 m 1,0,-1
 1104 1190 l 1,1,-1
 1104 1030 l 1,2,-1
 400 1030 l 1,3,-1
 400 706 l 1,4,5
 467 742 467 742 544 742 c 2,6,-1
 816 742 l 2,7,8
 896 742 896 742 952 686 c 128,-1,9
 1008 630 1008 630 1008 550 c 2,10,-1
 1008 6 l 1,11,-1
 848 6 l 1,12,-1
 848 550 l 2,13,14
 848 563 848 563 838.5 572.5 c 128,-1,15
 829 582 829 582 816 582 c 2,16,-1
 544 582 l 2,17,18
 484 582 484 582 442 540 c 128,-1,19
 400 498 400 498 400 438 c 2,20,-1
 400 6 l 1,21,-1
 240 6 l 1,22,-1
 240 1030 l 1,23,-1
 80 1030 l 1,24,-1
 80 1190 l 1,25,-1
 740 1190 l 1,26,-1
 936 1414 l 1,27,-1
 1162 1414 l 1,28,-1
 966 1190 l 1,0,-1
EndSplineSet
Validated: 1
EndChar

StartChar: uF2A23
Encoding: 993827 993827 38
Width: 1313
Flags: W
LayerCount: 2
Fore
SplineSet
80 1158 m 1,0,-1
 81 1158 l 1,1,-1
 81 1157 l 1,2,-1
 80 1158 l 1,0,-1
272 1030 m 2,3,4
 259 1030 259 1030 249.5 1020.5 c 128,-1,5
 240 1011 240 1011 240 998 c 2,6,-1
 240 870 l 2,7,8
 240 857 240 857 249.5 847.5 c 128,-1,9
 259 838 259 838 272 838 c 2,10,-1
 400 838 l 2,11,12
 413 838 413 838 422.5 847.5 c 128,-1,13
 432 857 432 857 432 870 c 2,14,-1
 432 1030 l 1,15,-1
 272 1030 l 2,3,4
920 1030 m 1,16,-1
 592 1030 l 1,17,-1
 592 870 l 2,18,19
 592 790 592 790 536 734 c 128,-1,20
 480 678 480 678 400 678 c 2,21,-1
 272 678 l 2,22,23
 192 678 192 678 136 734 c 128,-1,24
 80 790 80 790 80 870 c 2,25,-1
 80 998 l 2,26,27
 80 1078 80 1078 136 1134 c 128,-1,28
 192 1190 192 1190 272 1190 c 2,29,-1
 1095 1190 l 2,30,31
 1119 1190 1119 1190 1138.5 1177 c 128,-1,32
 1158 1164 1158 1164 1167.5 1144.5 c 128,-1,33
 1177 1125 1177 1125 1174.5 1101.5 c 128,-1,34
 1172 1078 1172 1078 1157 1059 c 2,35,-1
 763 579 l 1,36,-1
 1233 6 l 1,37,-1
 1026 6 l 1,38,-1
 659 453 l 1,39,-1
 292 6 l 1,40,-1
 80 6 l 1,41,-1
 920 1030 l 1,16,-1
464 6 m 1,42,-1
 464 166 l 1,43,-1
 848 166 l 1,44,-1
 848 6 l 1,45,-1
 464 6 l 1,42,-1
EndSplineSet
Validated: 1
EndChar

StartChar: uF2A24
Encoding: 993828 993828 39
Width: 1338
Flags: W
LayerCount: 2
Fore
SplineSet
81 1158 m 1,0,-1
 81 1157 l 1,1,-1
 80 1158 l 1,2,-1
 81 1158 l 1,0,-1
432 1030 m 1,3,-1
 272 1030 l 2,4,5
 259 1030 259 1030 249.5 1020.5 c 128,-1,6
 240 1011 240 1011 240 998 c 2,7,-1
 240 870 l 2,8,9
 240 857 240 857 249.5 847.5 c 128,-1,10
 259 838 259 838 272 838 c 2,11,-1
 400 838 l 2,12,13
 413 838 413 838 422.5 847.5 c 128,-1,14
 432 857 432 857 432 870 c 2,15,-1
 432 1030 l 1,3,-1
1062 1190 m 1,16,-1
 1095 1190 l 2,17,18
 1119 1190 1119 1190 1138.5 1177 c 128,-1,19
 1158 1164 1158 1164 1167.5 1144.5 c 128,-1,20
 1177 1125 1177 1125 1174.5 1101.5 c 128,-1,21
 1172 1078 1172 1078 1157 1059 c 2,22,-1
 763 579 l 1,23,-1
 1233 6 l 1,24,-1
 1026 6 l 1,25,-1
 659 453 l 1,26,-1
 292 6 l 1,27,-1
 80 6 l 1,28,-1
 920 1030 l 1,29,-1
 592 1030 l 1,30,-1
 592 870 l 2,31,32
 592 790 592 790 536 734 c 128,-1,33
 480 678 480 678 400 678 c 2,34,-1
 272 678 l 2,35,36
 192 678 192 678 136 734 c 128,-1,37
 80 790 80 790 80 870 c 2,38,-1
 80 998 l 2,39,40
 80 1078 80 1078 136 1134 c 128,-1,41
 192 1190 192 1190 272 1190 c 2,42,-1
 836 1190 l 1,43,-1
 1032 1414 l 1,44,-1
 1258 1414 l 1,45,-1
 1062 1190 l 1,16,-1
464 6 m 1,46,-1
 464 166 l 1,47,-1
 848 166 l 1,48,-1
 848 6 l 1,49,-1
 464 6 l 1,46,-1
EndSplineSet
Validated: 1
EndChar

StartChar: uF2A25
Encoding: 993829 993829 40
Width: 1184
Flags: W
LayerCount: 2
Fore
SplineSet
400 -218 m 1,0,-1
 400 -58 l 1,1,-1
 848 -58 l 1,2,-1
 848 -218 l 1,3,-1
 400 -218 l 1,0,-1
1104 1190 m 1,4,-1
 1104 1030 l 1,5,-1
 400 1030 l 1,6,-1
 400 706 l 1,7,8
 467 742 467 742 544 742 c 2,9,-1
 816 742 l 2,10,11
 896 742 896 742 952 686 c 128,-1,12
 1008 630 1008 630 1008 550 c 2,13,-1
 1008 6 l 1,14,-1
 848 6 l 1,15,-1
 848 550 l 2,16,17
 848 563 848 563 838.5 572.5 c 128,-1,18
 829 582 829 582 816 582 c 2,19,-1
 544 582 l 2,20,21
 484 582 484 582 442 540 c 128,-1,22
 400 498 400 498 400 438 c 2,23,-1
 400 6 l 1,24,-1
 240 6 l 1,25,-1
 240 1030 l 1,26,-1
 80 1030 l 1,27,-1
 80 1190 l 1,28,-1
 1104 1190 l 1,4,-1
EndSplineSet
Validated: 1
EndChar

StartChar: uF2A26
Encoding: 993830 993830 41
Width: 1242
Flags: W
LayerCount: 2
Fore
SplineSet
966 1190 m 1,0,-1
 1104 1190 l 1,1,-1
 1104 1030 l 1,2,-1
 400 1030 l 1,3,-1
 400 706 l 1,4,5
 467 742 467 742 544 742 c 2,6,-1
 816 742 l 2,7,8
 896 742 896 742 952 686 c 128,-1,9
 1008 630 1008 630 1008 550 c 2,10,-1
 1008 6 l 1,11,-1
 848 6 l 1,12,-1
 848 550 l 2,13,14
 848 563 848 563 838.5 572.5 c 128,-1,15
 829 582 829 582 816 582 c 2,16,-1
 544 582 l 2,17,18
 484 582 484 582 442 540 c 128,-1,19
 400 498 400 498 400 438 c 2,20,-1
 400 6 l 1,21,-1
 240 6 l 1,22,-1
 240 1030 l 1,23,-1
 80 1030 l 1,24,-1
 80 1190 l 1,25,-1
 740 1190 l 1,26,-1
 936 1414 l 1,27,-1
 1162 1414 l 1,28,-1
 966 1190 l 1,0,-1
400 -218 m 1,29,-1
 400 -58 l 1,30,-1
 848 -58 l 1,31,-1
 848 -218 l 1,32,-1
 400 -218 l 1,29,-1
EndSplineSet
Validated: 1
EndChar

StartChar: uF2A27
Encoding: 993831 993831 42
Width: 1313
Flags: W
LayerCount: 2
Fore
SplineSet
80 1158 m 1,0,-1
 81 1158 l 1,1,-1
 81 1157 l 1,2,-1
 80 1158 l 1,0,-1
272 1030 m 2,3,4
 259 1030 259 1030 249.5 1020.5 c 128,-1,5
 240 1011 240 1011 240 998 c 2,6,-1
 240 870 l 2,7,8
 240 857 240 857 249.5 847.5 c 128,-1,9
 259 838 259 838 272 838 c 2,10,-1
 400 838 l 2,11,12
 413 838 413 838 422.5 847.5 c 128,-1,13
 432 857 432 857 432 870 c 2,14,-1
 432 1030 l 1,15,-1
 272 1030 l 2,3,4
920 1030 m 1,16,-1
 592 1030 l 1,17,-1
 592 870 l 2,18,19
 592 790 592 790 536 734 c 128,-1,20
 480 678 480 678 400 678 c 2,21,-1
 272 678 l 2,22,23
 192 678 192 678 136 734 c 128,-1,24
 80 790 80 790 80 870 c 2,25,-1
 80 998 l 2,26,27
 80 1078 80 1078 136 1134 c 128,-1,28
 192 1190 192 1190 272 1190 c 2,29,-1
 1095 1190 l 2,30,31
 1119 1190 1119 1190 1138.5 1177 c 128,-1,32
 1158 1164 1158 1164 1167.5 1144.5 c 128,-1,33
 1177 1125 1177 1125 1174.5 1101.5 c 128,-1,34
 1172 1078 1172 1078 1157 1059 c 2,35,-1
 763 579 l 1,36,-1
 1233 6 l 1,37,-1
 1026 6 l 1,38,-1
 659 453 l 1,39,-1
 292 6 l 1,40,-1
 80 6 l 1,41,-1
 920 1030 l 1,16,-1
528 134 m 128,-1,43
 528 187 528 187 565.5 224.5 c 128,-1,44
 603 262 603 262 656 262 c 128,-1,45
 709 262 709 262 746.5 224.5 c 128,-1,46
 784 187 784 187 784 134 c 128,-1,47
 784 81 784 81 746.5 43.5 c 128,-1,48
 709 6 709 6 656 6 c 128,-1,49
 603 6 603 6 565.5 43.5 c 128,-1,42
 528 81 528 81 528 134 c 128,-1,43
EndSplineSet
Validated: 1
EndChar

StartChar: uF2A28
Encoding: 993832 993832 43
Width: 1338
Flags: W
LayerCount: 2
Fore
SplineSet
528 134 m 128,-1,1
 528 187 528 187 565.5 224.5 c 128,-1,2
 603 262 603 262 656 262 c 128,-1,3
 709 262 709 262 746.5 224.5 c 128,-1,4
 784 187 784 187 784 134 c 128,-1,5
 784 81 784 81 746.5 43.5 c 128,-1,6
 709 6 709 6 656 6 c 128,-1,7
 603 6 603 6 565.5 43.5 c 128,-1,0
 528 81 528 81 528 134 c 128,-1,1
1062 1190 m 1,8,-1
 1095 1190 l 2,9,10
 1119 1190 1119 1190 1138.5 1177 c 128,-1,11
 1158 1164 1158 1164 1167.5 1144.5 c 128,-1,12
 1177 1125 1177 1125 1174.5 1101.5 c 128,-1,13
 1172 1078 1172 1078 1157 1059 c 2,14,-1
 763 579 l 1,15,-1
 1233 6 l 1,16,-1
 1026 6 l 1,17,-1
 659 453 l 1,18,-1
 292 6 l 1,19,-1
 80 6 l 1,20,-1
 920 1030 l 1,21,-1
 592 1030 l 1,22,-1
 592 870 l 2,23,24
 592 790 592 790 536 734 c 128,-1,25
 480 678 480 678 400 678 c 2,26,-1
 272 678 l 2,27,28
 192 678 192 678 136 734 c 128,-1,29
 80 790 80 790 80 870 c 2,30,-1
 80 998 l 2,31,32
 80 1078 80 1078 136 1134 c 128,-1,33
 192 1190 192 1190 272 1190 c 2,34,-1
 836 1190 l 1,35,-1
 1032 1414 l 1,36,-1
 1258 1414 l 1,37,-1
 1062 1190 l 1,8,-1
432 1030 m 1,38,-1
 272 1030 l 2,39,40
 259 1030 259 1030 249.5 1020.5 c 128,-1,41
 240 1011 240 1011 240 998 c 2,42,-1
 240 870 l 2,43,44
 240 857 240 857 249.5 847.5 c 128,-1,45
 259 838 259 838 272 838 c 2,46,-1
 400 838 l 2,47,48
 413 838 413 838 422.5 847.5 c 128,-1,49
 432 857 432 857 432 870 c 2,50,-1
 432 1030 l 1,38,-1
81 1158 m 1,51,-1
 81 1157 l 1,52,-1
 80 1158 l 1,53,-1
 81 1158 l 1,51,-1
EndSplineSet
Validated: 1
EndChar

StartChar: uF2A29
Encoding: 993833 993833 44
Width: 1184
Flags: W
LayerCount: 2
Fore
SplineSet
1104 1190 m 1,0,-1
 1104 1030 l 1,1,-1
 400 1030 l 1,2,-1
 400 706 l 1,3,4
 467 742 467 742 544 742 c 2,5,-1
 816 742 l 2,6,7
 896 742 896 742 952 686 c 128,-1,8
 1008 630 1008 630 1008 550 c 2,9,-1
 1008 6 l 1,10,-1
 848 6 l 1,11,-1
 848 550 l 2,12,13
 848 563 848 563 838.5 572.5 c 128,-1,14
 829 582 829 582 816 582 c 2,15,-1
 544 582 l 2,16,17
 484 582 484 582 442 540 c 128,-1,18
 400 498 400 498 400 438 c 2,19,-1
 400 6 l 1,20,-1
 240 6 l 1,21,-1
 240 1030 l 1,22,-1
 80 1030 l 1,23,-1
 80 1190 l 1,24,-1
 1104 1190 l 1,0,-1
496 -122 m 128,-1,26
 496 -69 496 -69 533.5 -31.5 c 128,-1,27
 571 6 571 6 624 6 c 128,-1,28
 677 6 677 6 714.5 -31.5 c 128,-1,29
 752 -69 752 -69 752 -122 c 128,-1,30
 752 -175 752 -175 714.5 -212.5 c 128,-1,31
 677 -250 677 -250 624 -250 c 128,-1,32
 571 -250 571 -250 533.5 -212.5 c 128,-1,25
 496 -175 496 -175 496 -122 c 128,-1,26
EndSplineSet
Validated: 1
EndChar

StartChar: uF2A2A
Encoding: 993834 993834 45
Width: 1242
Flags: W
LayerCount: 2
Fore
SplineSet
496 -122 m 128,-1,1
 496 -69 496 -69 533.5 -31.5 c 128,-1,2
 571 6 571 6 624 6 c 128,-1,3
 677 6 677 6 714.5 -31.5 c 128,-1,4
 752 -69 752 -69 752 -122 c 128,-1,5
 752 -175 752 -175 714.5 -212.5 c 128,-1,6
 677 -250 677 -250 624 -250 c 128,-1,7
 571 -250 571 -250 533.5 -212.5 c 128,-1,0
 496 -175 496 -175 496 -122 c 128,-1,1
966 1190 m 1,8,-1
 1104 1190 l 1,9,-1
 1104 1030 l 1,10,-1
 400 1030 l 1,11,-1
 400 706 l 1,12,13
 467 742 467 742 544 742 c 2,14,-1
 816 742 l 2,15,16
 896 742 896 742 952 686 c 128,-1,17
 1008 630 1008 630 1008 550 c 2,18,-1
 1008 6 l 1,19,-1
 848 6 l 1,20,-1
 848 550 l 2,21,22
 848 563 848 563 838.5 572.5 c 128,-1,23
 829 582 829 582 816 582 c 2,24,-1
 544 582 l 2,25,26
 484 582 484 582 442 540 c 128,-1,27
 400 498 400 498 400 438 c 2,28,-1
 400 6 l 1,29,-1
 240 6 l 1,30,-1
 240 1030 l 1,31,-1
 80 1030 l 1,32,-1
 80 1190 l 1,33,-1
 740 1190 l 1,34,-1
 936 1414 l 1,35,-1
 1162 1414 l 1,36,-1
 966 1190 l 1,8,-1
EndSplineSet
Validated: 1
EndChar

StartChar: uF2A2B
Encoding: 993835 993835 46
Width: 1504
Flags: W
LayerCount: 2
Fore
SplineSet
81 1158 m 1,0,-1
 81 1157 l 1,1,-1
 80 1158 l 1,2,-1
 81 1158 l 1,0,-1
432 1030 m 1,3,-1
 272 1030 l 2,4,5
 259 1030 259 1030 249.5 1020.5 c 128,-1,6
 240 1011 240 1011 240 998 c 2,7,-1
 240 870 l 2,8,9
 240 857 240 857 249.5 847.5 c 128,-1,10
 259 838 259 838 272 838 c 2,11,-1
 400 838 l 2,12,13
 413 838 413 838 422.5 847.5 c 128,-1,14
 432 857 432 857 432 870 c 2,15,-1
 432 1030 l 1,3,-1
752 1302 m 2,16,17
 752 1362 752 1362 794 1404 c 128,-1,18
 836 1446 836 1446 896 1446 c 2,19,-1
 1280 1446 l 2,20,21
 1340 1446 1340 1446 1382 1404 c 128,-1,22
 1424 1362 1424 1362 1424 1302 c 2,23,-1
 1424 6 l 1,24,-1
 1264 6 l 1,25,-1
 1264 1286 l 1,26,-1
 912 1286 l 1,27,-1
 912 1190 l 1,28,-1
 1095 1190 l 2,29,30
 1119 1190 1119 1190 1138.5 1177 c 128,-1,31
 1158 1164 1158 1164 1167.5 1144.5 c 128,-1,32
 1177 1125 1177 1125 1174.5 1101.5 c 128,-1,33
 1172 1078 1172 1078 1157 1059 c 2,34,-1
 763 579 l 1,35,-1
 1233 6 l 1,36,-1
 1026 6 l 1,37,-1
 659 453 l 1,38,-1
 292 6 l 1,39,-1
 80 6 l 1,40,-1
 920 1030 l 1,41,-1
 592 1030 l 1,42,-1
 592 870 l 2,43,44
 592 790 592 790 536 734 c 128,-1,45
 480 678 480 678 400 678 c 2,46,-1
 272 678 l 2,47,48
 192 678 192 678 136 734 c 128,-1,49
 80 790 80 790 80 870 c 2,50,-1
 80 998 l 2,51,52
 80 1078 80 1078 136 1134 c 128,-1,53
 192 1190 192 1190 272 1190 c 2,54,-1
 752 1190 l 1,55,-1
 752 1302 l 2,16,17
EndSplineSet
Validated: 1
EndChar

StartChar: uF2A2C
Encoding: 993836 993836 47
Width: 1754
Flags: W
LayerCount: 2
Fore
SplineSet
80 1158 m 1,0,-1
 81 1158 l 1,1,-1
 81 1157 l 1,2,-1
 80 1158 l 1,0,-1
272 1030 m 2,3,4
 259 1030 259 1030 249.5 1020.5 c 128,-1,5
 240 1011 240 1011 240 998 c 2,6,-1
 240 870 l 2,7,8
 240 857 240 857 249.5 847.5 c 128,-1,9
 259 838 259 838 272 838 c 2,10,-1
 400 838 l 2,11,12
 413 838 413 838 422.5 847.5 c 128,-1,13
 432 857 432 857 432 870 c 2,14,-1
 432 1030 l 1,15,-1
 272 1030 l 2,3,4
1418 1345 m 1,16,17
 1424 1324 1424 1324 1424 1302 c 2,18,-1
 1424 6 l 1,19,-1
 1264 6 l 1,20,-1
 1264 1286 l 1,21,-1
 912 1286 l 1,22,-1
 912 1190 l 1,23,-1
 1095 1190 l 2,24,25
 1119 1190 1119 1190 1138.5 1177 c 128,-1,26
 1158 1164 1158 1164 1167.5 1144.5 c 128,-1,27
 1177 1125 1177 1125 1174.5 1101.5 c 128,-1,28
 1172 1078 1172 1078 1157 1059 c 2,29,-1
 763 579 l 1,30,-1
 1233 6 l 1,31,-1
 1026 6 l 1,32,-1
 659 453 l 1,33,-1
 292 6 l 1,34,-1
 80 6 l 1,35,-1
 920 1030 l 1,36,-1
 592 1030 l 1,37,-1
 592 870 l 2,38,39
 592 790 592 790 536 734 c 128,-1,40
 480 678 480 678 400 678 c 2,41,-1
 272 678 l 2,42,43
 192 678 192 678 136 734 c 128,-1,44
 80 790 80 790 80 870 c 2,45,-1
 80 998 l 2,46,47
 80 1078 80 1078 136 1134 c 128,-1,48
 192 1190 192 1190 272 1190 c 2,49,-1
 752 1190 l 1,50,-1
 752 1302 l 2,51,52
 752 1362 752 1362 794 1404 c 128,-1,53
 836 1446 836 1446 896 1446 c 2,54,-1
 1280 1446 l 1,55,-1
 1448 1638 l 1,56,-1
 1674 1638 l 1,57,-1
 1418 1345 l 1,16,17
EndSplineSet
Validated: 1
EndChar

StartChar: uF2A2D
Encoding: 993837 993837 48
Width: 1440
Flags: W
LayerCount: 2
Fore
SplineSet
688 1302 m 2,0,1
 688 1362 688 1362 730 1404 c 128,-1,2
 772 1446 772 1446 832 1446 c 2,3,-1
 1216 1446 l 2,4,5
 1276 1446 1276 1446 1318 1404 c 128,-1,6
 1360 1362 1360 1362 1360 1302 c 2,7,-1
 1360 6 l 1,8,-1
 1200 6 l 1,9,-1
 1200 1286 l 1,10,-1
 848 1286 l 1,11,-1
 848 1190 l 1,12,-1
 1104 1190 l 1,13,-1
 1104 1030 l 1,14,-1
 400 1030 l 1,15,-1
 400 706 l 1,16,17
 467 742 467 742 544 742 c 2,18,-1
 816 742 l 2,19,20
 896 742 896 742 952 686 c 128,-1,21
 1008 630 1008 630 1008 550 c 2,22,-1
 1008 6 l 1,23,-1
 848 6 l 1,24,-1
 848 550 l 2,25,26
 848 563 848 563 838.5 572.5 c 128,-1,27
 829 582 829 582 816 582 c 2,28,-1
 544 582 l 2,29,30
 484 582 484 582 442 540 c 128,-1,31
 400 498 400 498 400 438 c 2,32,-1
 400 6 l 1,33,-1
 240 6 l 1,34,-1
 240 1030 l 1,35,-1
 80 1030 l 1,36,-1
 80 1190 l 1,37,-1
 688 1190 l 1,38,-1
 688 1302 l 2,0,1
EndSplineSet
Validated: 1
EndChar

StartChar: uF2A2E
Encoding: 993838 993838 49
Width: 1722
Flags: W
LayerCount: 2
Fore
SplineSet
1362 1318 m 1,0,-1
 1359 1318 l 1,1,2
 1360 1310 1360 1310 1360 1302 c 2,3,-1
 1360 6 l 1,4,-1
 1200 6 l 1,5,-1
 1200 1286 l 1,6,-1
 848 1286 l 1,7,-1
 848 1190 l 1,8,-1
 1104 1190 l 1,9,-1
 1104 1030 l 1,10,-1
 400 1030 l 1,11,-1
 400 706 l 1,12,13
 467 742 467 742 544 742 c 2,14,-1
 816 742 l 2,15,16
 896 742 896 742 952 686 c 128,-1,17
 1008 630 1008 630 1008 550 c 2,18,-1
 1008 6 l 1,19,-1
 848 6 l 1,20,-1
 848 550 l 2,21,22
 848 563 848 563 838.5 572.5 c 128,-1,23
 829 582 829 582 816 582 c 2,24,-1
 544 582 l 2,25,26
 484 582 484 582 442 540 c 128,-1,27
 400 498 400 498 400 438 c 2,28,-1
 400 6 l 1,29,-1
 240 6 l 1,30,-1
 240 1030 l 1,31,-1
 80 1030 l 1,32,-1
 80 1190 l 1,33,-1
 688 1190 l 1,34,-1
 688 1302 l 2,35,36
 688 1362 688 1362 730 1404 c 128,-1,37
 772 1446 772 1446 832 1446 c 2,38,-1
 1216 1446 l 2,39,40
 1231 1446 1231 1446 1245 1443 c 1,41,-1
 1416 1638 l 1,42,-1
 1642 1638 l 1,43,-1
 1362 1318 l 1,0,-1
EndSplineSet
Validated: 1
EndChar

StartChar: uF2A31
Encoding: 993841 993841 50
Width: 1184
Flags: W
LayerCount: 2
Fore
SplineSet
1104 1190 m 1,0,-1
 1104 1030 l 1,1,-1
 400 1030 l 1,2,-1
 400 706 l 1,3,4
 467 742 467 742 544 742 c 2,5,-1
 816 742 l 2,6,7
 896 742 896 742 952 686 c 128,-1,8
 1008 630 1008 630 1008 550 c 2,9,-1
 1008 6 l 1,10,-1
 848 6 l 1,11,-1
 848 550 l 2,12,13
 848 563 848 563 838.5 572.5 c 128,-1,14
 829 582 829 582 816 582 c 2,15,-1
 544 582 l 2,16,17
 484 582 484 582 442 540 c 128,-1,18
 400 498 400 498 400 438 c 2,19,-1
 400 6 l 1,20,-1
 240 6 l 1,21,-1
 240 1030 l 1,22,-1
 80 1030 l 1,23,-1
 80 1190 l 1,24,-1
 1104 1190 l 1,0,-1
467 6 m 0,25,26
 498 36 498 36 538 53 c 0,27,28
 579 70 579 70 624 70 c 128,-1,29
 669 70 669 70 710 53 c 0,30,31
 750 36 750 36 781 6 c 0,32,33
 782 5 782 5 782 4 c 0,34,35
 814 -28 814 -28 831 -68.5 c 128,-1,36
 848 -109 848 -109 848 -154 c 1,37,-1
 721 -154 l 1,38,39
 721 -135 721 -135 714 -117 c 128,-1,40
 707 -99 707 -99 693 -85 c 128,-1,41
 679 -71 679 -71 661 -64 c 128,-1,42
 643 -57 643 -57 624 -57 c 128,-1,43
 605 -57 605 -57 587 -64 c 128,-1,44
 569 -71 569 -71 555 -85 c 128,-1,45
 541 -99 541 -99 534 -117 c 128,-1,46
 527 -135 527 -135 527 -154 c 1,47,-1
 400 -154 l 1,48,49
 400 -109 400 -109 417 -68 c 128,-1,50
 434 -27 434 -27 466 4 c 0,51,52
 466 5 466 5 467 6 c 0,25,26
EndSplineSet
Validated: 1
EndChar

StartChar: uF2A32
Encoding: 993842 993842 51
Width: 1242
Flags: W
LayerCount: 2
Fore
SplineSet
966 1190 m 1,0,-1
 1104 1190 l 1,1,-1
 1104 1030 l 1,2,-1
 400 1030 l 1,3,-1
 400 706 l 1,4,5
 467 742 467 742 544 742 c 2,6,-1
 816 742 l 2,7,8
 896 742 896 742 952 686 c 128,-1,9
 1008 630 1008 630 1008 550 c 2,10,-1
 1008 6 l 1,11,-1
 848 6 l 1,12,-1
 848 550 l 2,13,14
 848 563 848 563 838.5 572.5 c 128,-1,15
 829 582 829 582 816 582 c 2,16,-1
 544 582 l 2,17,18
 484 582 484 582 442 540 c 128,-1,19
 400 498 400 498 400 438 c 2,20,-1
 400 6 l 1,21,-1
 240 6 l 1,22,-1
 240 1030 l 1,23,-1
 80 1030 l 1,24,-1
 80 1190 l 1,25,-1
 740 1190 l 1,26,-1
 936 1414 l 1,27,-1
 1162 1414 l 1,28,-1
 966 1190 l 1,0,-1
467 6 m 0,29,30
 498 36 498 36 538 53 c 0,31,32
 579 70 579 70 624 70 c 128,-1,33
 669 70 669 70 710 53 c 0,34,35
 750 36 750 36 781 6 c 0,36,37
 782 5 782 5 782 4 c 0,38,39
 814 -28 814 -28 831 -68.5 c 128,-1,40
 848 -109 848 -109 848 -154 c 1,41,-1
 721 -154 l 1,42,43
 721 -135 721 -135 714 -117 c 128,-1,44
 707 -99 707 -99 693 -85 c 128,-1,45
 679 -71 679 -71 661 -64 c 128,-1,46
 643 -57 643 -57 624 -57 c 128,-1,47
 605 -57 605 -57 587 -64 c 128,-1,48
 569 -71 569 -71 555 -85 c 128,-1,49
 541 -99 541 -99 534 -117 c 128,-1,50
 527 -135 527 -135 527 -154 c 1,51,-1
 400 -154 l 1,52,53
 400 -109 400 -109 417 -68 c 128,-1,54
 434 -27 434 -27 466 4 c 0,55,56
 466 5 466 5 467 6 c 0,29,30
EndSplineSet
Validated: 1
EndChar

StartChar: uF2A2F
Encoding: 993839 993839 52
Width: 1313
Flags: W
LayerCount: 2
Fore
SplineSet
80 1158 m 1,0,-1
 81 1158 l 1,1,-1
 81 1157 l 1,2,-1
 80 1158 l 1,0,-1
272 1030 m 2,3,4
 259 1030 259 1030 249.5 1020.5 c 128,-1,5
 240 1011 240 1011 240 998 c 2,6,-1
 240 870 l 2,7,8
 240 857 240 857 249.5 847.5 c 128,-1,9
 259 838 259 838 272 838 c 2,10,-1
 400 838 l 2,11,12
 413 838 413 838 422.5 847.5 c 128,-1,13
 432 857 432 857 432 870 c 2,14,-1
 432 1030 l 1,15,-1
 272 1030 l 2,3,4
920 1030 m 1,16,-1
 592 1030 l 1,17,-1
 592 870 l 2,18,19
 592 790 592 790 536 734 c 128,-1,20
 480 678 480 678 400 678 c 2,21,-1
 272 678 l 2,22,23
 192 678 192 678 136 734 c 128,-1,24
 80 790 80 790 80 870 c 2,25,-1
 80 998 l 2,26,27
 80 1078 80 1078 136 1134 c 128,-1,28
 192 1190 192 1190 272 1190 c 2,29,-1
 1095 1190 l 2,30,31
 1119 1190 1119 1190 1138.5 1177 c 128,-1,32
 1158 1164 1158 1164 1167.5 1144.5 c 128,-1,33
 1177 1125 1177 1125 1174.5 1101.5 c 128,-1,34
 1172 1078 1172 1078 1157 1059 c 2,35,-1
 763 579 l 1,36,-1
 1233 6 l 1,37,-1
 1026 6 l 1,38,-1
 659 453 l 1,39,-1
 292 6 l 1,40,-1
 80 6 l 1,41,-1
 920 1030 l 1,16,-1
499 166 m 0,42,43
 530 196 530 196 570 213 c 0,44,45
 611 230 611 230 656 230 c 128,-1,46
 701 230 701 230 742 213 c 0,47,48
 782 196 782 196 813 166 c 0,49,50
 814 165 814 165 814 164 c 0,51,52
 846 132 846 132 863 91.5 c 128,-1,53
 880 51 880 51 880 6 c 1,54,-1
 753 6 l 1,55,56
 753 25 753 25 746 43 c 128,-1,57
 739 61 739 61 725 75 c 128,-1,58
 711 89 711 89 693 96 c 128,-1,59
 675 103 675 103 656 103 c 128,-1,60
 637 103 637 103 619 96 c 128,-1,61
 601 89 601 89 587 75 c 128,-1,62
 573 61 573 61 566 43 c 128,-1,63
 559 25 559 25 559 6 c 1,64,-1
 432 6 l 1,65,66
 432 51 432 51 449 92 c 128,-1,67
 466 133 466 133 498 164 c 0,68,69
 498 165 498 165 499 166 c 0,42,43
EndSplineSet
Validated: 1
EndChar

StartChar: uF2A30
Encoding: 993840 993840 53
Width: 1338
Flags: W
LayerCount: 2
Fore
SplineSet
81 1158 m 1,0,-1
 81 1157 l 1,1,-1
 80 1158 l 1,2,-1
 81 1158 l 1,0,-1
432 1030 m 1,3,-1
 272 1030 l 2,4,5
 259 1030 259 1030 249.5 1020.5 c 128,-1,6
 240 1011 240 1011 240 998 c 2,7,-1
 240 870 l 2,8,9
 240 857 240 857 249.5 847.5 c 128,-1,10
 259 838 259 838 272 838 c 2,11,-1
 400 838 l 2,12,13
 413 838 413 838 422.5 847.5 c 128,-1,14
 432 857 432 857 432 870 c 2,15,-1
 432 1030 l 1,3,-1
1062 1190 m 1,16,-1
 1095 1190 l 2,17,18
 1119 1190 1119 1190 1138.5 1177 c 128,-1,19
 1158 1164 1158 1164 1167.5 1144.5 c 128,-1,20
 1177 1125 1177 1125 1174.5 1101.5 c 128,-1,21
 1172 1078 1172 1078 1157 1059 c 2,22,-1
 763 579 l 1,23,-1
 1233 6 l 1,24,-1
 1026 6 l 1,25,-1
 659 453 l 1,26,-1
 292 6 l 1,27,-1
 80 6 l 1,28,-1
 920 1030 l 1,29,-1
 592 1030 l 1,30,-1
 592 870 l 2,31,32
 592 790 592 790 536 734 c 128,-1,33
 480 678 480 678 400 678 c 2,34,-1
 272 678 l 2,35,36
 192 678 192 678 136 734 c 128,-1,37
 80 790 80 790 80 870 c 2,38,-1
 80 998 l 2,39,40
 80 1078 80 1078 136 1134 c 128,-1,41
 192 1190 192 1190 272 1190 c 2,42,-1
 836 1190 l 1,43,-1
 1032 1414 l 1,44,-1
 1258 1414 l 1,45,-1
 1062 1190 l 1,16,-1
499 166 m 0,46,47
 530 196 530 196 570 213 c 0,48,49
 611 230 611 230 656 230 c 128,-1,50
 701 230 701 230 742 213 c 0,51,52
 782 196 782 196 813 166 c 0,53,54
 814 165 814 165 814 164 c 0,55,56
 846 132 846 132 863 91.5 c 128,-1,57
 880 51 880 51 880 6 c 1,58,-1
 753 6 l 1,59,60
 753 25 753 25 746 43 c 128,-1,61
 739 61 739 61 725 75 c 128,-1,62
 711 89 711 89 693 96 c 128,-1,63
 675 103 675 103 656 103 c 128,-1,64
 637 103 637 103 619 96 c 128,-1,65
 601 89 601 89 587 75 c 128,-1,66
 573 61 573 61 566 43 c 128,-1,67
 559 25 559 25 559 6 c 1,68,-1
 432 6 l 1,69,70
 432 51 432 51 449 92 c 128,-1,71
 466 133 466 133 498 164 c 0,72,73
 498 165 498 165 499 166 c 0,46,47
EndSplineSet
Validated: 1
EndChar

StartChar: uF2AB5
Encoding: 993973 993973 54
Width: 1088
Flags: W
LayerCount: 2
Fore
SplineSet
1008 902 m 2,0,-1
 1008 6 l 1,1,-1
 848 6 l 1,2,-1
 848 902 l 2,3,4
 848 968 848 968 801 1015 c 128,-1,5
 754 1062 754 1062 688 1062 c 2,6,-1
 400 1062 l 2,7,8
 334 1062 334 1062 287 1015 c 128,-1,9
 240 968 240 968 240 902 c 2,10,-1
 240 6 l 1,11,-1
 80 6 l 1,12,-1
 80 902 l 2,13,14
 80 1035 80 1035 173.5 1128.5 c 128,-1,15
 267 1222 267 1222 400 1222 c 2,16,-1
 688 1222 l 2,17,18
 821 1222 821 1222 914.5 1128.5 c 128,-1,19
 1008 1035 1008 1035 1008 902 c 2,0,-1
EndSplineSet
Validated: 1
EndChar

StartChar: uF2AB6
Encoding: 993974 993974 55
Width: 720
Flags: W
LayerCount: 2
Fore
SplineSet
40 358 m 2,0,1
 40 477 40 477 124.5 561.5 c 128,-1,2
 209 646 209 646 328 646 c 0,3,4
 474 646 474 646 577 543 c 128,-1,5
 680 440 680 440 680 294 c 2,6,-1
 680 6 l 2,7,8
 680 -153 680 -153 567.5 -265.5 c 128,-1,9
 455 -378 455 -378 296 -378 c 2,10,-1
 200 -378 l 1,11,-1
 200 -218 l 1,12,-1
 296 -218 l 2,13,14
 389 -218 389 -218 454.5 -152.5 c 128,-1,15
 520 -87 520 -87 520 6 c 2,16,-1
 520 294 l 2,17,18
 520 374 520 374 464 430 c 128,-1,19
 408 486 408 486 328 486 c 0,20,21
 275 486 275 486 237.5 448.5 c 128,-1,22
 200 411 200 411 200 358 c 2,23,-1
 200 326 l 2,24,25
 200 273 200 273 237.5 235.5 c 128,-1,26
 275 198 275 198 328 198 c 1,27,-1
 328 38 l 1,28,29
 209 38 209 38 124.5 122.5 c 128,-1,30
 40 207 40 207 40 326 c 2,31,-1
 40 358 l 2,0,1
EndSplineSet
Validated: 1
EndChar

StartChar: uF2AC6
Encoding: 993990 993990 56
Width: 688
Flags: W
LayerCount: 2
Fore
SplineSet
200 646 m 2,0,-1
 264 646 l 1,1,-1
 328 646 l 1,2,-1
 408 646 l 2,3,4
 507 646 507 646 577.5 575.5 c 128,-1,5
 648 505 648 505 648 406 c 0,6,7
 648 338 648 338 613 281 c 128,-1,8
 578 224 578 224 520 194 c 1,9,-1
 520 -26 l 2,10,11
 520 -172 520 -172 417 -275 c 128,-1,12
 314 -378 314 -378 168 -378 c 1,13,-1
 168 -218 l 1,14,15
 248 -218 248 -218 304 -162 c 128,-1,16
 360 -106 360 -106 360 -26 c 2,17,-1
 360 166 l 1,18,-1
 264 166 l 1,19,-1
 264 326 l 1,20,-1
 408 326 l 2,21,22
 441 326 441 326 464.5 349.5 c 128,-1,23
 488 373 488 373 488 406 c 128,-1,24
 488 439 488 439 464.5 462.5 c 128,-1,25
 441 486 441 486 408 486 c 2,26,-1
 328 486 l 1,27,-1
 264 486 l 1,28,-1
 40 486 l 1,29,30
 40 552 40 552 87 599 c 128,-1,31
 134 646 134 646 200 646 c 2,0,-1
EndSplineSet
Validated: 1
EndChar

StartChar: uF2AC7
Encoding: 993991 993991 57
Width: 720
Flags: W
LayerCount: 2
Fore
SplineSet
40 486 m 1,0,1
 40 552 40 552 87 599 c 128,-1,2
 134 646 134 646 200 646 c 2,3,-1
 408 646 l 2,4,5
 507 646 507 646 577.5 575.5 c 128,-1,6
 648 505 648 505 648 406 c 0,7,8
 648 338 648 338 613 281 c 128,-1,9
 578 224 578 224 520 194 c 1,10,-1
 520 70 l 1,11,-1
 680 70 l 1,12,-1
 680 -90 l 1,13,-1
 514 -90 l 1,14,15
 491 -214 491 -214 393.5 -296 c 128,-1,16
 296 -378 296 -378 168 -378 c 1,17,-1
 168 -218 l 1,18,19
 230 -218 230 -218 279.5 -182.5 c 128,-1,20
 329 -147 329 -147 349 -90 c 1,21,-1
 168 -90 l 1,22,-1
 168 70 l 1,23,-1
 360 70 l 1,24,-1
 360 166 l 1,25,-1
 264 166 l 1,26,-1
 264 326 l 1,27,-1
 408 326 l 2,28,29
 441 326 441 326 464.5 349.5 c 128,-1,30
 488 373 488 373 488 406 c 128,-1,31
 488 439 488 439 464.5 462.5 c 128,-1,32
 441 486 441 486 408 486 c 2,33,-1
 40 486 l 1,0,1
EndSplineSet
Validated: 1
EndChar

StartChar: uF2AC8
Encoding: 993992 993992 58
Width: 880
Flags: W
LayerCount: 2
Fore
SplineSet
360 198 m 1,0,1
 254 198 254 198 179 273 c 128,-1,2
 104 348 104 348 104 454 c 2,3,-1
 104 646 l 1,4,-1
 264 646 l 1,5,-1
 264 454 l 2,6,7
 264 414 264 414 292 386 c 128,-1,8
 320 358 320 358 360 358 c 1,9,-1
 360 454 l 2,10,11
 360 534 360 534 416 590 c 128,-1,12
 472 646 472 646 552 646 c 2,13,-1
 616 646 l 2,14,15
 709 646 709 646 774.5 580.5 c 128,-1,16
 840 515 840 515 840 422 c 128,-1,17
 840 329 840 329 774.5 263.5 c 128,-1,18
 709 198 709 198 616 198 c 2,19,-1
 520 198 l 1,20,-1
 520 70 l 1,21,22
 626 70 626 70 701 -5 c 128,-1,23
 776 -80 776 -80 776 -186 c 2,24,-1
 776 -378 l 1,25,-1
 616 -378 l 1,26,-1
 616 -186 l 2,27,28
 616 -146 616 -146 588 -118 c 128,-1,29
 560 -90 560 -90 520 -90 c 1,30,-1
 520 -186 l 2,31,32
 520 -266 520 -266 464 -322 c 128,-1,33
 408 -378 408 -378 328 -378 c 2,34,-1
 264 -378 l 2,35,36
 171 -378 171 -378 105.5 -312.5 c 128,-1,37
 40 -247 40 -247 40 -154 c 128,-1,38
 40 -61 40 -61 105.5 4.5 c 128,-1,39
 171 70 171 70 264 70 c 2,40,-1
 360 70 l 1,41,-1
 360 198 l 1,0,1
616 358 m 2,42,43
 643 358 643 358 661.5 376.5 c 128,-1,44
 680 395 680 395 680 422 c 128,-1,45
 680 449 680 449 661.5 467.5 c 128,-1,46
 643 486 643 486 616 486 c 2,47,-1
 552 486 l 2,48,49
 539 486 539 486 529.5 476.5 c 128,-1,50
 520 467 520 467 520 454 c 2,51,-1
 520 358 l 1,52,-1
 616 358 l 2,42,43
264 -218 m 2,53,-1
 328 -218 l 2,54,55
 341 -218 341 -218 350.5 -208.5 c 128,-1,56
 360 -199 360 -199 360 -186 c 2,57,-1
 360 -90 l 1,58,-1
 264 -90 l 2,59,60
 237 -90 237 -90 218.5 -108.5 c 128,-1,61
 200 -127 200 -127 200 -154 c 128,-1,62
 200 -181 200 -181 218.5 -199.5 c 128,-1,63
 237 -218 237 -218 264 -218 c 2,53,-1
EndSplineSet
Validated: 1
EndChar

StartChar: uF2A33
Encoding: 993843 993843 59
Width: 1184
Flags: W
LayerCount: 2
Fore
SplineSet
80 870 m 2,0,1
 80 1003 80 1003 173.5 1096.5 c 128,-1,2
 267 1190 267 1190 400 1190 c 2,3,-1
 784 1190 l 2,4,5
 917 1190 917 1190 1010.5 1096.5 c 128,-1,6
 1104 1003 1104 1003 1104 870 c 2,7,-1
 1104 838 l 1,8,-1
 944 838 l 1,9,-1
 944 870 l 2,10,11
 944 936 944 936 897 983 c 128,-1,12
 850 1030 850 1030 784 1030 c 2,13,-1
 400 1030 l 2,14,15
 334 1030 334 1030 287 983 c 128,-1,16
 240 936 240 936 240 870 c 2,17,-1
 240 646 l 1,18,-1
 944 646 l 2,19,20
 1010 646 1010 646 1057 599 c 128,-1,21
 1104 552 1104 552 1104 486 c 2,22,-1
 1104 454 l 2,23,24
 1104 332 1104 332 1044 229 c 128,-1,25
 984 126 984 126 881 66 c 128,-1,26
 778 6 778 6 656 6 c 2,27,-1
 528 6 l 2,28,29
 406 6 406 6 303 66 c 128,-1,30
 200 126 200 126 140 229 c 128,-1,31
 80 332 80 332 80 454 c 2,32,-1
 80 870 l 2,0,1
656 198 m 2,33,34
 775 198 775 198 859.5 282.5 c 128,-1,35
 944 367 944 367 944 486 c 2,36,-1
 944 518 l 1,37,-1
 240 518 l 1,38,-1
 240 486 l 2,39,40
 240 367 240 367 324.5 282.5 c 128,-1,41
 409 198 409 198 528 198 c 2,42,-1
 656 198 l 2,33,34
EndSplineSet
Validated: 1
EndChar

StartChar: uF2A34
Encoding: 993844 993844 60
Width: 1242
Flags: W
LayerCount: 2
Fore
SplineSet
944 486 m 2,0,-1
 944 518 l 1,1,-1
 240 518 l 1,2,-1
 240 486 l 2,3,4
 240 367 240 367 324.5 282.5 c 128,-1,5
 409 198 409 198 528 198 c 2,6,-1
 656 198 l 2,7,8
 775 198 775 198 859.5 282.5 c 128,-1,9
 944 367 944 367 944 486 c 2,0,-1
952 1142 m 1,10,11
 1022 1099 1022 1099 1063 1027 c 128,-1,12
 1104 955 1104 955 1104 870 c 2,13,-1
 1104 838 l 1,14,-1
 944 838 l 1,15,-1
 944 870 l 2,16,17
 944 936 944 936 897 983 c 128,-1,18
 850 1030 850 1030 784 1030 c 2,19,-1
 400 1030 l 2,20,21
 334 1030 334 1030 287 983 c 128,-1,22
 240 936 240 936 240 870 c 2,23,-1
 240 646 l 1,24,-1
 944 646 l 2,25,26
 1010 646 1010 646 1057 599 c 128,-1,27
 1104 552 1104 552 1104 486 c 2,28,-1
 1104 454 l 2,29,30
 1104 332 1104 332 1044 229 c 128,-1,31
 984 126 984 126 881 66 c 128,-1,32
 778 6 778 6 656 6 c 2,33,-1
 528 6 l 2,34,35
 406 6 406 6 303 66 c 128,-1,36
 200 126 200 126 140 229 c 128,-1,37
 80 332 80 332 80 454 c 2,38,-1
 80 870 l 2,39,40
 80 1003 80 1003 173.5 1096.5 c 128,-1,41
 267 1190 267 1190 400 1190 c 2,42,-1
 768 1190 l 1,43,-1
 936 1382 l 1,44,-1
 1162 1382 l 1,45,-1
 952 1142 l 1,10,11
EndSplineSet
Validated: 1
EndChar

StartChar: uF2A35
Encoding: 993845 993845 61
Width: 992
Flags: W
LayerCount: 2
Fore
SplineSet
752 1190 m 1,0,-1
 752 326 l 2,1,2
 752 260 752 260 799 213 c 128,-1,3
 846 166 846 166 912 166 c 1,4,-1
 912 6 l 1,5,6
 779 6 779 6 685.5 99.5 c 128,-1,7
 592 193 592 193 592 326 c 2,8,-1
 592 1030 l 1,9,-1
 80 1030 l 1,10,-1
 80 1190 l 1,11,-1
 752 1190 l 1,0,-1
EndSplineSet
Validated: 1
EndChar

StartChar: uF2A36
Encoding: 993846 993846 62
Width: 1114
Flags: W
LayerCount: 2
Fore
SplineSet
752 1030 m 1,0,-1
 752 326 l 2,1,2
 752 260 752 260 799 213 c 128,-1,3
 846 166 846 166 912 166 c 1,4,-1
 912 6 l 1,5,6
 779 6 779 6 685.5 99.5 c 128,-1,7
 592 193 592 193 592 326 c 2,8,-1
 592 1030 l 1,9,-1
 80 1030 l 1,10,-1
 80 1190 l 1,11,-1
 668 1190 l 1,12,-1
 808 1350 l 1,13,-1
 1034 1350 l 1,14,-1
 754 1030 l 1,15,-1
 752 1030 l 1,0,-1
EndSplineSet
Validated: 1
EndChar

StartChar: uF2A37
Encoding: 993847 993847 63
Width: 1184
VWidth: 2016
Flags: W
LayerCount: 2
Fore
SplineSet
656 166 m 2,0,1
 775 166 775 166 859.5 250.5 c 128,-1,2
 944 335 944 335 944 454 c 2,3,-1
 944 486 l 1,4,-1
 240 486 l 1,5,-1
 240 454 l 2,6,7
 240 335 240 335 324.5 250.5 c 128,-1,8
 409 166 409 166 528 166 c 2,9,-1
 656 166 l 2,0,1
80 870 m 2,10,11
 80 1003 80 1003 173.5 1096.5 c 128,-1,12
 267 1190 267 1190 400 1190 c 2,13,-1
 784 1190 l 2,14,15
 917 1190 917 1190 1010.5 1096.5 c 128,-1,16
 1104 1003 1104 1003 1104 870 c 2,17,-1
 1104 838 l 1,18,-1
 944 838 l 1,19,-1
 944 870 l 2,20,21
 944 936 944 936 897 983 c 128,-1,22
 850 1030 850 1030 784 1030 c 2,23,-1
 400 1030 l 2,24,25
 334 1030 334 1030 287 983 c 128,-1,26
 240 936 240 936 240 870 c 2,27,-1
 240 646 l 1,28,-1
 944 646 l 2,29,30
 1010 646 1010 646 1057 599 c 128,-1,31
 1104 552 1104 552 1104 486 c 2,32,-1
 1104 454 l 2,33,34
 1104 332 1104 332 1044 229 c 128,-1,35
 984 126 984 126 881 66 c 128,-1,36
 778 6 778 6 656 6 c 2,37,-1
 528 6 l 2,38,39
 406 6 406 6 303 66 c 128,-1,40
 200 126 200 126 140 229 c 128,-1,41
 80 332 80 332 80 454 c 2,42,-1
 80 870 l 2,10,11
208 -250 m 1,43,-1
 208 -90 l 1,44,-1
 976 -90 l 1,45,-1
 976 -250 l 1,46,-1
 208 -250 l 1,43,-1
EndSplineSet
Validated: 1
EndChar

StartChar: uF2A38
Encoding: 993848 993848 64
Width: 1242
VWidth: 2016
Flags: W
LayerCount: 2
Fore
SplineSet
944 454 m 2,0,-1
 944 486 l 1,1,-1
 240 486 l 1,2,-1
 240 454 l 2,3,4
 240 335 240 335 324.5 250.5 c 128,-1,5
 409 166 409 166 528 166 c 2,6,-1
 656 166 l 2,7,8
 775 166 775 166 859.5 250.5 c 128,-1,9
 944 335 944 335 944 454 c 2,0,-1
952 1142 m 1,10,11
 1022 1099 1022 1099 1063 1027 c 128,-1,12
 1104 955 1104 955 1104 870 c 2,13,-1
 1104 838 l 1,14,-1
 944 838 l 1,15,-1
 944 870 l 2,16,17
 944 936 944 936 897 983 c 128,-1,18
 850 1030 850 1030 784 1030 c 2,19,-1
 400 1030 l 2,20,21
 334 1030 334 1030 287 983 c 128,-1,22
 240 936 240 936 240 870 c 2,23,-1
 240 646 l 1,24,-1
 944 646 l 2,25,26
 1010 646 1010 646 1057 599 c 128,-1,27
 1104 552 1104 552 1104 486 c 2,28,-1
 1104 454 l 2,29,30
 1104 332 1104 332 1044 229 c 128,-1,31
 984 126 984 126 881 66 c 128,-1,32
 778 6 778 6 656 6 c 2,33,-1
 528 6 l 2,34,35
 406 6 406 6 303 66 c 128,-1,36
 200 126 200 126 140 229 c 128,-1,37
 80 332 80 332 80 454 c 2,38,-1
 80 870 l 2,39,40
 80 1003 80 1003 173.5 1096.5 c 128,-1,41
 267 1190 267 1190 400 1190 c 2,42,-1
 768 1190 l 1,43,-1
 936 1382 l 1,44,-1
 1162 1382 l 1,45,-1
 952 1142 l 1,10,11
208 -250 m 1,46,-1
 208 -90 l 1,47,-1
 976 -90 l 1,48,-1
 976 -250 l 1,49,-1
 208 -250 l 1,46,-1
EndSplineSet
Validated: 1
EndChar

StartChar: uF2A39
Encoding: 993849 993849 65
Width: 1088
Flags: W
LayerCount: 2
Fore
SplineSet
240 518 m 5,0,-1
 240 678 l 5,1,-1
 592 678 l 5,2,-1
 592 1030 l 5,3,-1
 80 1030 l 5,4,-1
 80 1190 l 5,5,-1
 752 1190 l 5,6,-1
 752 678 l 5,7,-1
 1008 678 l 5,8,-1
 1008 518 l 5,9,-1
 752 518 l 5,10,-1
 752 326 l 6,11,12
 752 260 752 260 799 213 c 132,-1,13
 846 166 846 166 912 166 c 5,14,-1
 912 6 l 5,15,16
 779 6 779 6 685.5 99.5 c 132,-1,17
 592 193 592 193 592 326 c 6,18,-1
 592 518 l 5,19,-1
 240 518 l 5,0,-1
EndSplineSet
Validated: 1
EndChar

StartChar: uF2A3A
Encoding: 993850 993850 66
Width: 1114
Flags: W
LayerCount: 2
Fore
SplineSet
240 518 m 1,0,-1
 240 678 l 1,1,-1
 592 678 l 1,2,-1
 592 1030 l 1,3,-1
 80 1030 l 1,4,-1
 80 1190 l 1,5,-1
 668 1190 l 1,6,-1
 808 1350 l 1,7,-1
 1034 1350 l 1,8,-1
 754 1030 l 1,9,-1
 752 1030 l 1,10,-1
 752 678 l 1,11,-1
 1008 678 l 1,12,-1
 1008 518 l 1,13,-1
 752 518 l 1,14,-1
 752 326 l 2,15,16
 752 260 752 260 799 213 c 128,-1,17
 846 166 846 166 912 166 c 1,18,-1
 912 6 l 1,19,20
 779 6 779 6 685.5 99.5 c 128,-1,21
 592 193 592 193 592 326 c 2,22,-1
 592 518 l 1,23,-1
 240 518 l 1,0,-1
EndSplineSet
Validated: 1
EndChar

StartChar: uF2AC9
Encoding: 993993 993993 67
Width: 530
Flags: W
LayerCount: 2
Fore
SplineSet
490 1190 m 1,0,-1
 266 934 l 1,1,-1
 40 934 l 1,2,-1
 264 1190 l 1,3,-1
 490 1190 l 1,0,-1
EndSplineSet
Validated: 1
EndChar

StartChar: uF2A3B
Encoding: 993851 993851 68
Width: 1184
VWidth: 2016
Flags: W
LayerCount: 2
Fore
SplineSet
464 -154 m 128,-1,1
 464 -101 464 -101 501.5 -63.5 c 128,-1,2
 539 -26 539 -26 592 -26 c 128,-1,3
 645 -26 645 -26 682.5 -63.5 c 128,-1,4
 720 -101 720 -101 720 -154 c 128,-1,5
 720 -207 720 -207 682.5 -244.5 c 128,-1,6
 645 -282 645 -282 592 -282 c 128,-1,7
 539 -282 539 -282 501.5 -244.5 c 128,-1,0
 464 -207 464 -207 464 -154 c 128,-1,1
80 870 m 2,8,9
 80 1003 80 1003 173.5 1096.5 c 128,-1,10
 267 1190 267 1190 400 1190 c 2,11,-1
 784 1190 l 2,12,13
 917 1190 917 1190 1010.5 1096.5 c 128,-1,14
 1104 1003 1104 1003 1104 870 c 2,15,-1
 1104 838 l 1,16,-1
 944 838 l 1,17,-1
 944 870 l 2,18,19
 944 936 944 936 897 983 c 128,-1,20
 850 1030 850 1030 784 1030 c 2,21,-1
 400 1030 l 2,22,23
 334 1030 334 1030 287 983 c 128,-1,24
 240 936 240 936 240 870 c 2,25,-1
 240 646 l 1,26,-1
 944 646 l 2,27,28
 1010 646 1010 646 1057 599 c 128,-1,29
 1104 552 1104 552 1104 486 c 2,30,-1
 1104 454 l 2,31,32
 1104 332 1104 332 1044 229 c 128,-1,33
 984 126 984 126 881 66 c 128,-1,34
 778 6 778 6 656 6 c 2,35,-1
 528 6 l 2,36,37
 406 6 406 6 303 66 c 128,-1,38
 200 126 200 126 140 229 c 128,-1,39
 80 332 80 332 80 454 c 2,40,-1
 80 870 l 2,8,9
656 166 m 2,41,42
 775 166 775 166 859.5 250.5 c 128,-1,43
 944 335 944 335 944 454 c 2,44,-1
 944 486 l 1,45,-1
 240 486 l 1,46,-1
 240 454 l 2,47,48
 240 335 240 335 324.5 250.5 c 128,-1,49
 409 166 409 166 528 166 c 2,50,-1
 656 166 l 2,41,42
EndSplineSet
Validated: 1
EndChar

StartChar: uF2A3C
Encoding: 993852 993852 69
Width: 1242
VWidth: 2016
Flags: W
LayerCount: 2
Fore
SplineSet
464 -154 m 128,-1,1
 464 -101 464 -101 501.5 -63.5 c 128,-1,2
 539 -26 539 -26 592 -26 c 128,-1,3
 645 -26 645 -26 682.5 -63.5 c 128,-1,4
 720 -101 720 -101 720 -154 c 128,-1,5
 720 -207 720 -207 682.5 -244.5 c 128,-1,6
 645 -282 645 -282 592 -282 c 128,-1,7
 539 -282 539 -282 501.5 -244.5 c 128,-1,0
 464 -207 464 -207 464 -154 c 128,-1,1
952 1142 m 1,8,9
 1022 1099 1022 1099 1063 1027 c 128,-1,10
 1104 955 1104 955 1104 870 c 2,11,-1
 1104 838 l 1,12,-1
 944 838 l 1,13,-1
 944 870 l 2,14,15
 944 936 944 936 897 983 c 128,-1,16
 850 1030 850 1030 784 1030 c 2,17,-1
 400 1030 l 2,18,19
 334 1030 334 1030 287 983 c 128,-1,20
 240 936 240 936 240 870 c 2,21,-1
 240 646 l 1,22,-1
 944 646 l 2,23,24
 1010 646 1010 646 1057 599 c 128,-1,25
 1104 552 1104 552 1104 486 c 2,26,-1
 1104 454 l 2,27,28
 1104 332 1104 332 1044 229 c 128,-1,29
 984 126 984 126 881 66 c 128,-1,30
 778 6 778 6 656 6 c 2,31,-1
 528 6 l 2,32,33
 406 6 406 6 303 66 c 128,-1,34
 200 126 200 126 140 229 c 128,-1,35
 80 332 80 332 80 454 c 2,36,-1
 80 870 l 2,37,38
 80 1003 80 1003 173.5 1096.5 c 128,-1,39
 267 1190 267 1190 400 1190 c 2,40,-1
 768 1190 l 1,41,-1
 936 1382 l 1,42,-1
 1162 1382 l 1,43,-1
 952 1142 l 1,8,9
944 454 m 2,44,-1
 944 486 l 1,45,-1
 240 486 l 1,46,-1
 240 454 l 2,47,48
 240 335 240 335 324.5 250.5 c 128,-1,49
 409 166 409 166 528 166 c 2,50,-1
 656 166 l 2,51,52
 775 166 775 166 859.5 250.5 c 128,-1,53
 944 335 944 335 944 454 c 2,44,-1
EndSplineSet
Validated: 1
EndChar

StartChar: uF2A3D
Encoding: 993853 993853 70
Width: 992
VWidth: 1984
Flags: W
LayerCount: 2
Fore
SplineSet
336 -186 m 128,-1,1
 336 -133 336 -133 373.5 -95.5 c 128,-1,2
 411 -58 411 -58 464 -58 c 128,-1,3
 517 -58 517 -58 554.5 -95.5 c 128,-1,4
 592 -133 592 -133 592 -186 c 128,-1,5
 592 -239 592 -239 554.5 -276.5 c 128,-1,6
 517 -314 517 -314 464 -314 c 128,-1,7
 411 -314 411 -314 373.5 -276.5 c 128,-1,0
 336 -239 336 -239 336 -186 c 128,-1,1
752 1190 m 1,8,-1
 752 326 l 2,9,10
 752 260 752 260 799 213 c 128,-1,11
 846 166 846 166 912 166 c 1,12,-1
 912 6 l 1,13,14
 779 6 779 6 685.5 99.5 c 128,-1,15
 592 193 592 193 592 326 c 2,16,-1
 592 1030 l 1,17,-1
 80 1030 l 1,18,-1
 80 1190 l 1,19,-1
 752 1190 l 1,8,-1
EndSplineSet
Validated: 1
EndChar

StartChar: uF2A3E
Encoding: 993854 993854 71
Width: 1114
VWidth: 1984
Flags: W
LayerCount: 2
Fore
SplineSet
336 -186 m 128,-1,1
 336 -133 336 -133 373.5 -95.5 c 128,-1,2
 411 -58 411 -58 464 -58 c 128,-1,3
 517 -58 517 -58 554.5 -95.5 c 128,-1,4
 592 -133 592 -133 592 -186 c 128,-1,5
 592 -239 592 -239 554.5 -276.5 c 128,-1,6
 517 -314 517 -314 464 -314 c 128,-1,7
 411 -314 411 -314 373.5 -276.5 c 128,-1,0
 336 -239 336 -239 336 -186 c 128,-1,1
752 1030 m 1,8,-1
 752 326 l 2,9,10
 752 260 752 260 799 213 c 128,-1,11
 846 166 846 166 912 166 c 1,12,-1
 912 6 l 1,13,14
 779 6 779 6 685.5 99.5 c 128,-1,15
 592 193 592 193 592 326 c 2,16,-1
 592 1030 l 1,17,-1
 80 1030 l 1,18,-1
 80 1190 l 1,19,-1
 668 1190 l 1,20,-1
 808 1350 l 1,21,-1
 1034 1350 l 1,22,-1
 754 1030 l 1,23,-1
 752 1030 l 1,8,-1
EndSplineSet
Validated: 1
EndChar

StartChar: uF2A3F
Encoding: 993855 993855 72
Width: 1440
Flags: W
LayerCount: 2
Fore
SplineSet
656 166 m 2,0,1
 775 166 775 166 859.5 250.5 c 128,-1,2
 944 335 944 335 944 454 c 2,3,-1
 944 486 l 1,4,-1
 240 486 l 1,5,-1
 240 454 l 2,6,7
 240 335 240 335 324.5 250.5 c 128,-1,8
 409 166 409 166 528 166 c 2,9,-1
 656 166 l 2,0,1
848 1184 m 1,10,11
 959 1162 959 1162 1031.5 1073.5 c 128,-1,12
 1104 985 1104 985 1104 870 c 2,13,-1
 1104 838 l 1,14,-1
 944 838 l 1,15,-1
 944 870 l 2,16,17
 944 936 944 936 897 983 c 128,-1,18
 850 1030 850 1030 784 1030 c 2,19,-1
 400 1030 l 2,20,21
 334 1030 334 1030 287 983 c 128,-1,22
 240 936 240 936 240 870 c 2,23,-1
 240 646 l 1,24,-1
 944 646 l 2,25,26
 1010 646 1010 646 1057 599 c 128,-1,27
 1104 552 1104 552 1104 486 c 2,28,-1
 1104 454 l 2,29,30
 1104 332 1104 332 1044 229 c 128,-1,31
 984 126 984 126 881 66 c 128,-1,32
 778 6 778 6 656 6 c 2,33,-1
 528 6 l 2,34,35
 406 6 406 6 303 66 c 128,-1,36
 200 126 200 126 140 229 c 128,-1,37
 80 332 80 332 80 454 c 2,38,-1
 80 870 l 2,39,40
 80 1003 80 1003 173.5 1096.5 c 128,-1,41
 267 1190 267 1190 400 1190 c 2,42,-1
 688 1190 l 1,43,-1
 688 1302 l 2,44,45
 688 1362 688 1362 730 1404 c 128,-1,46
 772 1446 772 1446 832 1446 c 2,47,-1
 1216 1446 l 2,48,49
 1276 1446 1276 1446 1318 1404 c 128,-1,50
 1360 1362 1360 1362 1360 1302 c 2,51,-1
 1360 6 l 1,52,-1
 1200 6 l 1,53,-1
 1200 1286 l 1,54,-1
 848 1286 l 1,55,-1
 848 1184 l 1,10,11
EndSplineSet
Validated: 1
EndChar

StartChar: uF2A40
Encoding: 993856 993856 73
Width: 1658
Flags: W
LayerCount: 2
Fore
SplineSet
656 166 m 2,0,1
 775 166 775 166 859.5 250.5 c 128,-1,2
 944 335 944 335 944 454 c 2,3,-1
 944 486 l 1,4,-1
 240 486 l 1,5,-1
 240 454 l 2,6,7
 240 335 240 335 324.5 250.5 c 128,-1,8
 409 166 409 166 528 166 c 2,9,-1
 656 166 l 2,0,1
1353 1348 m 1,10,11
 1360 1326 1360 1326 1360 1302 c 2,12,-1
 1360 6 l 1,13,-1
 1200 6 l 1,14,-1
 1200 1286 l 1,15,-1
 848 1286 l 1,16,-1
 848 1184 l 1,17,18
 959 1162 959 1162 1031.5 1073.5 c 128,-1,19
 1104 985 1104 985 1104 870 c 2,20,-1
 1104 838 l 1,21,-1
 944 838 l 1,22,-1
 944 870 l 2,23,24
 944 936 944 936 897 983 c 128,-1,25
 850 1030 850 1030 784 1030 c 2,26,-1
 400 1030 l 2,27,28
 334 1030 334 1030 287 983 c 128,-1,29
 240 936 240 936 240 870 c 2,30,-1
 240 646 l 1,31,-1
 944 646 l 2,32,33
 1010 646 1010 646 1057 599 c 128,-1,34
 1104 552 1104 552 1104 486 c 2,35,-1
 1104 454 l 2,36,37
 1104 332 1104 332 1044 229 c 128,-1,38
 984 126 984 126 881 66 c 128,-1,39
 778 6 778 6 656 6 c 2,40,-1
 528 6 l 2,41,42
 406 6 406 6 303 66 c 128,-1,43
 200 126 200 126 140 229 c 128,-1,44
 80 332 80 332 80 454 c 2,45,-1
 80 870 l 2,46,47
 80 1003 80 1003 173.5 1096.5 c 128,-1,48
 267 1190 267 1190 400 1190 c 2,49,-1
 688 1190 l 1,50,-1
 688 1302 l 2,51,52
 688 1362 688 1362 730 1404 c 128,-1,53
 772 1446 772 1446 832 1446 c 2,54,-1
 1212 1446 l 1,55,-1
 1352 1606 l 1,56,-1
 1578 1606 l 1,57,-1
 1353 1348 l 1,10,11
EndSplineSet
Validated: 1
EndChar

StartChar: uF2A41
Encoding: 993857 993857 74
Width: 1280
Flags: W
LayerCount: 2
Fore
SplineSet
528 1302 m 2,0,1
 528 1362 528 1362 570 1404 c 128,-1,2
 612 1446 612 1446 672 1446 c 2,3,-1
 1056 1446 l 2,4,5
 1116 1446 1116 1446 1158 1404 c 128,-1,6
 1200 1362 1200 1362 1200 1302 c 2,7,-1
 1200 6 l 1,8,-1
 1040 6 l 1,9,-1
 1040 1286 l 1,10,-1
 688 1286 l 1,11,-1
 688 1190 l 1,12,-1
 752 1190 l 1,13,-1
 752 326 l 2,14,15
 752 260 752 260 799 213 c 128,-1,16
 846 166 846 166 912 166 c 1,17,-1
 912 6 l 1,18,19
 779 6 779 6 685.5 99.5 c 128,-1,20
 592 193 592 193 592 326 c 2,21,-1
 592 1030 l 1,22,-1
 80 1030 l 1,23,-1
 80 1190 l 1,24,-1
 528 1190 l 1,25,-1
 528 1302 l 2,0,1
EndSplineSet
Validated: 1
EndChar

StartChar: uF2A42
Encoding: 993858 993858 75
Width: 1530
Flags: W
LayerCount: 2
Fore
SplineSet
1194 1345 m 1,0,1
 1200 1324 1200 1324 1200 1302 c 2,2,-1
 1200 6 l 1,3,-1
 1040 6 l 1,4,-1
 1040 1286 l 1,5,-1
 688 1286 l 1,6,-1
 688 1190 l 1,7,-1
 752 1190 l 1,8,-1
 752 326 l 2,9,10
 752 260 752 260 799 213 c 128,-1,11
 846 166 846 166 912 166 c 1,12,-1
 912 6 l 1,13,14
 779 6 779 6 685.5 99.5 c 128,-1,15
 592 193 592 193 592 326 c 2,16,-1
 592 1030 l 1,17,-1
 80 1030 l 1,18,-1
 80 1190 l 1,19,-1
 528 1190 l 1,20,-1
 528 1302 l 2,21,22
 528 1362 528 1362 570 1404 c 128,-1,23
 612 1446 612 1446 672 1446 c 2,24,-1
 1056 1446 l 1,25,-1
 1224 1638 l 1,26,-1
 1450 1638 l 1,27,-1
 1194 1345 l 1,0,1
EndSplineSet
Validated: 1
EndChar

StartChar: uF2A43
Encoding: 993859 993859 76
Width: 1184
VWidth: 2016
Flags: W
LayerCount: 2
Fore
SplineSet
435 -90 m 0,0,1
 466 -60 466 -60 506 -43 c 0,2,3
 547 -26 547 -26 592 -26 c 128,-1,4
 637 -26 637 -26 678 -43 c 0,5,6
 718 -60 718 -60 749 -90 c 0,7,8
 750 -91 750 -91 750 -92 c 0,9,10
 782 -124 782 -124 799 -164.5 c 128,-1,11
 816 -205 816 -205 816 -250 c 1,12,-1
 689 -250 l 1,13,14
 689 -231 689 -231 682 -213 c 128,-1,15
 675 -195 675 -195 661 -181 c 128,-1,16
 647 -167 647 -167 629 -160 c 128,-1,17
 611 -153 611 -153 592 -153 c 128,-1,18
 573 -153 573 -153 555 -160 c 128,-1,19
 537 -167 537 -167 523 -181 c 128,-1,20
 509 -195 509 -195 502 -213 c 128,-1,21
 495 -231 495 -231 495 -250 c 1,22,-1
 368 -250 l 1,23,24
 368 -205 368 -205 385 -164 c 128,-1,25
 402 -123 402 -123 434 -92 c 0,26,27
 434 -91 434 -91 435 -90 c 0,0,1
656 166 m 2,28,29
 775 166 775 166 859.5 250.5 c 128,-1,30
 944 335 944 335 944 454 c 2,31,-1
 944 486 l 1,32,-1
 240 486 l 1,33,-1
 240 454 l 2,34,35
 240 335 240 335 324.5 250.5 c 128,-1,36
 409 166 409 166 528 166 c 2,37,-1
 656 166 l 2,28,29
80 870 m 2,38,39
 80 1003 80 1003 173.5 1096.5 c 128,-1,40
 267 1190 267 1190 400 1190 c 2,41,-1
 784 1190 l 2,42,43
 917 1190 917 1190 1010.5 1096.5 c 128,-1,44
 1104 1003 1104 1003 1104 870 c 2,45,-1
 1104 838 l 1,46,-1
 944 838 l 1,47,-1
 944 870 l 2,48,49
 944 936 944 936 897 983 c 128,-1,50
 850 1030 850 1030 784 1030 c 2,51,-1
 400 1030 l 2,52,53
 334 1030 334 1030 287 983 c 128,-1,54
 240 936 240 936 240 870 c 2,55,-1
 240 646 l 1,56,-1
 944 646 l 2,57,58
 1010 646 1010 646 1057 599 c 128,-1,59
 1104 552 1104 552 1104 486 c 2,60,-1
 1104 454 l 2,61,62
 1104 332 1104 332 1044 229 c 128,-1,63
 984 126 984 126 881 66 c 128,-1,64
 778 6 778 6 656 6 c 2,65,-1
 528 6 l 2,66,67
 406 6 406 6 303 66 c 128,-1,68
 200 126 200 126 140 229 c 128,-1,69
 80 332 80 332 80 454 c 2,70,-1
 80 870 l 2,38,39
EndSplineSet
Validated: 1
EndChar

StartChar: uF2A44
Encoding: 993860 993860 77
Width: 1242
VWidth: 2016
Flags: W
LayerCount: 2
Fore
SplineSet
944 454 m 2,0,-1
 944 486 l 1,1,-1
 240 486 l 1,2,-1
 240 454 l 2,3,4
 240 335 240 335 324.5 250.5 c 128,-1,5
 409 166 409 166 528 166 c 2,6,-1
 656 166 l 2,7,8
 775 166 775 166 859.5 250.5 c 128,-1,9
 944 335 944 335 944 454 c 2,0,-1
952 1142 m 1,10,11
 1022 1099 1022 1099 1063 1027 c 128,-1,12
 1104 955 1104 955 1104 870 c 2,13,-1
 1104 838 l 1,14,-1
 944 838 l 1,15,-1
 944 870 l 2,16,17
 944 936 944 936 897 983 c 128,-1,18
 850 1030 850 1030 784 1030 c 2,19,-1
 400 1030 l 2,20,21
 334 1030 334 1030 287 983 c 128,-1,22
 240 936 240 936 240 870 c 2,23,-1
 240 646 l 1,24,-1
 944 646 l 2,25,26
 1010 646 1010 646 1057 599 c 128,-1,27
 1104 552 1104 552 1104 486 c 2,28,-1
 1104 454 l 2,29,30
 1104 332 1104 332 1044 229 c 128,-1,31
 984 126 984 126 881 66 c 128,-1,32
 778 6 778 6 656 6 c 2,33,-1
 528 6 l 2,34,35
 406 6 406 6 303 66 c 128,-1,36
 200 126 200 126 140 229 c 128,-1,37
 80 332 80 332 80 454 c 2,38,-1
 80 870 l 2,39,40
 80 1003 80 1003 173.5 1096.5 c 128,-1,41
 267 1190 267 1190 400 1190 c 2,42,-1
 768 1190 l 1,43,-1
 936 1382 l 1,44,-1
 1162 1382 l 1,45,-1
 952 1142 l 1,10,11
435 -90 m 0,46,47
 466 -60 466 -60 506 -43 c 0,48,49
 547 -26 547 -26 592 -26 c 128,-1,50
 637 -26 637 -26 678 -43 c 0,51,52
 718 -60 718 -60 749 -90 c 0,53,54
 750 -91 750 -91 750 -92 c 0,55,56
 782 -124 782 -124 799 -164.5 c 128,-1,57
 816 -205 816 -205 816 -250 c 1,58,-1
 689 -250 l 1,59,60
 689 -231 689 -231 682 -213 c 128,-1,61
 675 -195 675 -195 661 -181 c 128,-1,62
 647 -167 647 -167 629 -160 c 128,-1,63
 611 -153 611 -153 592 -153 c 128,-1,64
 573 -153 573 -153 555 -160 c 128,-1,65
 537 -167 537 -167 523 -181 c 128,-1,66
 509 -195 509 -195 502 -213 c 128,-1,67
 495 -231 495 -231 495 -250 c 1,68,-1
 368 -250 l 1,69,70
 368 -205 368 -205 385 -164 c 128,-1,71
 402 -123 402 -123 434 -92 c 0,72,73
 434 -91 434 -91 435 -90 c 0,46,47
EndSplineSet
Validated: 1
EndChar

StartChar: uF2A45
Encoding: 993861 993861 78
Width: 992
Flags: W
LayerCount: 2
Fore
SplineSet
339 6 m 0,0,1
 370 36 370 36 410 53 c 0,2,3
 451 70 451 70 496 70 c 128,-1,4
 541 70 541 70 582 53 c 0,5,6
 622 36 622 36 653 6 c 0,7,8
 654 5 654 5 654 4 c 0,9,10
 686 -28 686 -28 703 -68.5 c 128,-1,11
 720 -109 720 -109 720 -154 c 1,12,-1
 593 -154 l 1,13,14
 593 -135 593 -135 586 -117 c 128,-1,15
 579 -99 579 -99 565 -85 c 128,-1,16
 551 -71 551 -71 533 -64 c 128,-1,17
 515 -57 515 -57 496 -57 c 128,-1,18
 477 -57 477 -57 459 -64 c 128,-1,19
 441 -71 441 -71 427 -85 c 128,-1,20
 413 -99 413 -99 406 -117 c 128,-1,21
 399 -135 399 -135 399 -154 c 1,22,-1
 272 -154 l 1,23,24
 272 -109 272 -109 289 -68 c 128,-1,25
 306 -27 306 -27 338 4 c 0,26,27
 338 5 338 5 339 6 c 0,0,1
752 1254 m 1,28,-1
 752 390 l 2,29,30
 752 324 752 324 799 277 c 128,-1,31
 846 230 846 230 912 230 c 1,32,-1
 912 70 l 1,33,34
 779 70 779 70 685.5 163.5 c 128,-1,35
 592 257 592 257 592 390 c 2,36,-1
 592 1094 l 1,37,-1
 80 1094 l 1,38,-1
 80 1254 l 1,39,-1
 752 1254 l 1,28,-1
EndSplineSet
Validated: 1
EndChar

StartChar: uF2A47
Encoding: 993863 993863 79
Width: 1376
Flags: W
LayerCount: 2
Fore
SplineSet
240 1190 m 1,0,-1
 240 6 l 1,1,-1
 80 6 l 1,2,-1
 80 1190 l 1,3,-1
 240 1190 l 1,0,-1
1216 1190 m 2,4,5
 1249 1190 1249 1190 1272.5 1166.5 c 128,-1,6
 1296 1143 1296 1143 1296 1110 c 2,7,-1
 1296 86 l 2,8,9
 1296 53 1296 53 1272.5 29.5 c 128,-1,10
 1249 6 1249 6 1216 6 c 2,11,-1
 1136 6 l 1,12,-1
 1136 7 l 1,13,-1
 744 474 l 1,14,-1
 352 7 l 1,15,-1
 336 7 l 1,16,-1
 336 237 l 1,17,-1
 640 599 l 1,18,-1
 336 960 l 1,19,-1
 336 1190 l 1,20,-1
 352 1190 l 1,21,-1
 744 723 l 1,22,-1
 1136 1190 l 1,23,-1
 1216 1190 l 2,4,5
849 599 m 1,24,-1
 1136 256 l 1,25,-1
 1136 941 l 1,26,-1
 849 599 l 1,24,-1
EndSplineSet
Validated: 1
EndChar

StartChar: uF2A46
Encoding: 993862 993862 80
Width: 1114
Flags: W
LayerCount: 2
Fore
SplineSet
339 6 m 0,0,1
 370 36 370 36 410 53 c 0,2,3
 451 70 451 70 496 70 c 128,-1,4
 541 70 541 70 582 53 c 0,5,6
 622 36 622 36 653 6 c 0,7,8
 654 5 654 5 654 4 c 0,9,10
 686 -28 686 -28 703 -68.5 c 128,-1,11
 720 -109 720 -109 720 -154 c 1,12,-1
 593 -154 l 1,13,14
 593 -135 593 -135 586 -117 c 128,-1,15
 579 -99 579 -99 565 -85 c 128,-1,16
 551 -71 551 -71 533 -64 c 128,-1,17
 515 -57 515 -57 496 -57 c 128,-1,18
 477 -57 477 -57 459 -64 c 128,-1,19
 441 -71 441 -71 427 -85 c 128,-1,20
 413 -99 413 -99 406 -117 c 128,-1,21
 399 -135 399 -135 399 -154 c 1,22,-1
 272 -154 l 1,23,24
 272 -109 272 -109 289 -68 c 128,-1,25
 306 -27 306 -27 338 4 c 0,26,27
 338 5 338 5 339 6 c 0,0,1
752 1094 m 1,28,-1
 752 390 l 2,29,30
 752 324 752 324 799 277 c 128,-1,31
 846 230 846 230 912 230 c 1,32,-1
 912 70 l 1,33,34
 779 70 779 70 685.5 163.5 c 128,-1,35
 592 257 592 257 592 390 c 2,36,-1
 592 1094 l 1,37,-1
 80 1094 l 1,38,-1
 80 1254 l 1,39,-1
 668 1254 l 1,40,-1
 808 1414 l 1,41,-1
 1034 1414 l 1,42,-1
 754 1094 l 1,43,-1
 752 1094 l 1,28,-1
EndSplineSet
Validated: 1
EndChar

StartChar: uF2ACA
Encoding: 993994 993994 81
Width: 560
Flags: W
LayerCount: 2
Fore
SplineSet
384 1366 m 1,0,-1
 520 1366 l 1,1,2
 520 1318 520 1318 502 1274 c 0,3,4
 486 1236 486 1236 459 1206 c 0,5,6
 455 1201 455 1201 450 1196 c 0,7,8
 416 1162 416 1162 372 1144 c 128,-1,9
 328 1126 328 1126 280 1126 c 128,-1,10
 232 1126 232 1126 188 1144.5 c 128,-1,11
 144 1163 144 1163 110 1196 c 0,12,13
 105 1201 105 1201 101 1206 c 0,14,15
 74 1236 74 1236 58 1274 c 0,16,17
 40 1318 40 1318 40 1366 c 1,18,-1
 176 1366 l 1,19,20
 176 1345 176 1345 183.5 1326 c 128,-1,21
 191 1307 191 1307 206 1292 c 128,-1,22
 221 1277 221 1277 240 1269.5 c 128,-1,23
 259 1262 259 1262 280 1262 c 128,-1,24
 301 1262 301 1262 320 1269.5 c 128,-1,25
 339 1277 339 1277 354 1292 c 128,-1,26
 369 1307 369 1307 376.5 1326 c 128,-1,27
 384 1345 384 1345 384 1366 c 1,0,-1
EndSplineSet
Validated: 1
EndChar

StartChar: uF2A48
Encoding: 993864 993864 82
Width: 1754
Flags: W
LayerCount: 2
Fore
SplineSet
80 1190 m 1,0,-1
 240 1190 l 1,1,-1
 240 6 l 1,2,-1
 80 6 l 1,3,-1
 80 1190 l 1,0,-1
1136 256 m 1,4,-1
 1136 941 l 1,5,-1
 849 599 l 1,6,-1
 1136 256 l 1,4,-1
1394 1094 m 1,7,-1
 1296 1094 l 1,8,-1
 1296 86 l 2,9,10
 1296 53 1296 53 1272.5 29.5 c 128,-1,11
 1249 6 1249 6 1216 6 c 2,12,-1
 1136 6 l 1,13,-1
 1136 7 l 1,14,-1
 744 474 l 1,15,-1
 352 7 l 1,16,-1
 336 7 l 1,17,-1
 336 237 l 1,18,-1
 640 599 l 1,19,-1
 336 960 l 1,20,-1
 336 1190 l 1,21,-1
 352 1190 l 1,22,-1
 744 723 l 1,23,-1
 1136 1190 l 1,24,-1
 1216 1190 l 2,25,26
 1232 1190 1232 1190 1247 1184 c 1,27,-1
 1448 1414 l 1,28,-1
 1674 1414 l 1,29,-1
 1394 1094 l 1,7,-1
EndSplineSet
Validated: 1
EndChar

StartChar: uF2A49
Encoding: 993865 993865 83
Width: 1824
Flags: W
LayerCount: 2
Fore
SplineSet
849 599 m 1,0,-1
 1136 256 l 1,1,-1
 1136 941 l 1,2,-1
 849 599 l 1,0,-1
1216 1190 m 2,3,4
 1249 1190 1249 1190 1272.5 1166.5 c 128,-1,5
 1296 1143 1296 1143 1296 1110 c 2,6,-1
 1296 86 l 2,7,8
 1296 53 1296 53 1272.5 29.5 c 128,-1,9
 1249 6 1249 6 1216 6 c 2,10,-1
 1136 6 l 1,11,-1
 1136 7 l 1,12,-1
 744 474 l 1,13,-1
 352 7 l 1,14,-1
 336 7 l 1,15,-1
 336 237 l 1,16,-1
 640 599 l 1,17,-1
 336 960 l 1,18,-1
 336 1190 l 1,19,-1
 352 1190 l 1,20,-1
 744 723 l 1,21,-1
 1136 1190 l 1,22,-1
 1216 1190 l 2,3,4
240 1190 m 1,23,-1
 240 6 l 1,24,-1
 80 6 l 1,25,-1
 80 1190 l 1,26,-1
 240 1190 l 1,23,-1
1325 1206 m 0,27,28
 1298 1236 1298 1236 1282 1274 c 0,29,30
 1264 1318 1264 1318 1264 1366 c 1,31,-1
 1400 1366 l 1,32,33
 1400 1345 1400 1345 1407.5 1326 c 128,-1,34
 1415 1307 1415 1307 1430 1292 c 128,-1,35
 1445 1277 1445 1277 1464 1269.5 c 128,-1,36
 1483 1262 1483 1262 1504 1262 c 128,-1,37
 1525 1262 1525 1262 1544 1269.5 c 128,-1,38
 1563 1277 1563 1277 1578 1292 c 128,-1,39
 1593 1307 1593 1307 1600.5 1326 c 128,-1,40
 1608 1345 1608 1345 1608 1366 c 1,41,-1
 1744 1366 l 1,42,43
 1744 1318 1744 1318 1726 1274 c 0,44,45
 1710 1236 1710 1236 1683 1206 c 0,46,47
 1679 1201 1679 1201 1674 1196 c 0,48,49
 1640 1162 1640 1162 1596 1144 c 128,-1,50
 1552 1126 1552 1126 1504 1126 c 128,-1,51
 1456 1126 1456 1126 1412 1144.5 c 128,-1,52
 1368 1163 1368 1163 1334 1196 c 0,53,54
 1329 1201 1329 1201 1325 1206 c 0,27,28
EndSplineSet
Validated: 1
EndChar

StartChar: uF2A4A
Encoding: 993866 993866 84
Width: 704
Flags: W
LayerCount: 2
Fore
SplineSet
240 1222 m 1,0,-1
 240 902 l 1,1,-1
 432 902 l 2,2,3
 512 902 512 902 568 846 c 128,-1,4
 624 790 624 790 624 710 c 2,5,-1
 624 550 l 2,6,7
 624 439 624 439 581 338.5 c 128,-1,8
 538 238 538 238 465 165 c 128,-1,9
 392 92 392 92 291.5 49 c 128,-1,10
 191 6 191 6 80 6 c 1,11,-1
 80 166 l 1,12,13
 184 166 184 166 272.5 217.5 c 128,-1,14
 361 269 361 269 412.5 357.5 c 128,-1,15
 464 446 464 446 464 550 c 2,16,-1
 464 710 l 2,17,18
 464 723 464 723 454.5 732.5 c 128,-1,19
 445 742 445 742 432 742 c 2,20,-1
 80 742 l 1,21,-1
 80 1222 l 1,22,-1
 240 1222 l 1,0,-1
EndSplineSet
Validated: 1
EndChar

StartChar: uF2A4B
Encoding: 993867 993867 85
Width: 986
Flags: W
LayerCount: 2
Fore
SplineSet
240 1222 m 1,0,-1
 240 902 l 1,1,-1
 432 902 l 2,2,3
 512 902 512 902 568 846 c 128,-1,4
 624 790 624 790 624 710 c 2,5,-1
 624 550 l 2,6,7
 624 439 624 439 581 338.5 c 128,-1,8
 538 238 538 238 465 165 c 128,-1,9
 392 92 392 92 291.5 49 c 128,-1,10
 191 6 191 6 80 6 c 1,11,-1
 80 166 l 1,12,13
 184 166 184 166 272.5 217.5 c 128,-1,14
 361 269 361 269 412.5 357.5 c 128,-1,15
 464 446 464 446 464 550 c 2,16,-1
 464 710 l 2,17,18
 464 723 464 723 454.5 732.5 c 128,-1,19
 445 742 445 742 432 742 c 2,20,-1
 80 742 l 1,21,-1
 80 1222 l 1,22,-1
 240 1222 l 1,0,-1
906 1382 m 1,23,-1
 626 1062 l 1,24,-1
 400 1062 l 1,25,-1
 680 1382 l 1,26,-1
 906 1382 l 1,23,-1
EndSplineSet
Validated: 1
EndChar

StartChar: uF2A4C
Encoding: 993868 993868 86
Width: 960
Flags: W
LayerCount: 2
Fore
SplineSet
240 1222 m 1,0,-1
 240 902 l 1,1,-1
 432 902 l 2,2,3
 512 902 512 902 568 846 c 128,-1,4
 624 790 624 790 624 710 c 2,5,-1
 624 550 l 2,6,7
 624 439 624 439 581 338.5 c 128,-1,8
 538 238 538 238 465 165 c 128,-1,9
 392 92 392 92 291.5 49 c 128,-1,10
 191 6 191 6 80 6 c 1,11,-1
 80 166 l 1,12,13
 184 166 184 166 272.5 217.5 c 128,-1,14
 361 269 361 269 412.5 357.5 c 128,-1,15
 464 446 464 446 464 550 c 2,16,-1
 464 710 l 2,17,18
 464 723 464 723 454.5 732.5 c 128,-1,19
 445 742 445 742 432 742 c 2,20,-1
 80 742 l 1,21,-1
 80 1222 l 1,22,-1
 240 1222 l 1,0,-1
744 1366 m 1,23,-1
 880 1366 l 1,24,25
 880 1318 880 1318 862 1274 c 0,26,27
 846 1236 846 1236 819 1206 c 0,28,29
 815 1201 815 1201 810 1196 c 0,30,31
 776 1162 776 1162 732 1144 c 128,-1,32
 688 1126 688 1126 640 1126 c 128,-1,33
 592 1126 592 1126 548 1144.5 c 128,-1,34
 504 1163 504 1163 470 1196 c 0,35,36
 465 1201 465 1201 461 1206 c 0,37,38
 434 1236 434 1236 418 1274 c 0,39,40
 400 1318 400 1318 400 1366 c 1,41,-1
 536 1366 l 1,42,43
 536 1345 536 1345 543.5 1326 c 128,-1,44
 551 1307 551 1307 566 1292 c 128,-1,45
 581 1277 581 1277 600 1269.5 c 128,-1,46
 619 1262 619 1262 640 1262 c 128,-1,47
 661 1262 661 1262 680 1269.5 c 128,-1,48
 699 1277 699 1277 714 1292 c 128,-1,49
 729 1307 729 1307 736.5 1326 c 128,-1,50
 744 1345 744 1345 744 1366 c 1,23,-1
EndSplineSet
Validated: 1
EndChar

StartChar: uF2A4D
Encoding: 993869 993869 87
Width: 1376
Flags: W
LayerCount: 2
Fore
SplineSet
560 6 m 1,0,-1
 560 166 l 1,1,-1
 912 166 l 1,2,-1
 912 6 l 1,3,-1
 560 6 l 1,0,-1
240 1190 m 1,4,-1
 240 6 l 1,5,-1
 80 6 l 1,6,-1
 80 1190 l 1,7,-1
 240 1190 l 1,4,-1
1216 1190 m 2,8,9
 1249 1190 1249 1190 1272.5 1166.5 c 128,-1,10
 1296 1143 1296 1143 1296 1110 c 2,11,-1
 1296 86 l 2,12,13
 1296 53 1296 53 1272.5 29.5 c 128,-1,14
 1249 6 1249 6 1216 6 c 2,15,-1
 1136 6 l 1,16,-1
 1136 7 l 1,17,-1
 744 474 l 1,18,-1
 352 7 l 1,19,-1
 336 7 l 1,20,-1
 336 237 l 1,21,-1
 640 599 l 1,22,-1
 336 960 l 1,23,-1
 336 1190 l 1,24,-1
 352 1190 l 1,25,-1
 744 723 l 1,26,-1
 1136 1190 l 1,27,-1
 1216 1190 l 2,8,9
849 599 m 1,28,-1
 1136 256 l 1,29,-1
 1136 941 l 1,30,-1
 849 599 l 1,28,-1
EndSplineSet
Validated: 1
EndChar

StartChar: uF2A4E
Encoding: 993870 993870 88
Width: 1754
Flags: W
LayerCount: 2
Fore
SplineSet
560 6 m 1,0,-1
 560 166 l 1,1,-1
 912 166 l 1,2,-1
 912 6 l 1,3,-1
 560 6 l 1,0,-1
1394 1094 m 1,4,-1
 1296 1094 l 1,5,-1
 1296 86 l 2,6,7
 1296 53 1296 53 1272.5 29.5 c 128,-1,8
 1249 6 1249 6 1216 6 c 2,9,-1
 1136 6 l 1,10,-1
 1136 7 l 1,11,-1
 744 474 l 1,12,-1
 352 7 l 1,13,-1
 336 7 l 1,14,-1
 336 237 l 1,15,-1
 640 599 l 1,16,-1
 336 960 l 1,17,-1
 336 1190 l 1,18,-1
 352 1190 l 1,19,-1
 744 723 l 1,20,-1
 1136 1190 l 1,21,-1
 1216 1190 l 2,22,23
 1232 1190 1232 1190 1247 1184 c 1,24,-1
 1448 1414 l 1,25,-1
 1674 1414 l 1,26,-1
 1394 1094 l 1,4,-1
1136 256 m 1,27,-1
 1136 941 l 1,28,-1
 849 599 l 1,29,-1
 1136 256 l 1,27,-1
80 1190 m 1,30,-1
 240 1190 l 1,31,-1
 240 6 l 1,32,-1
 80 6 l 1,33,-1
 80 1190 l 1,30,-1
EndSplineSet
Validated: 1
EndChar

StartChar: uF2A4F
Encoding: 993871 993871 89
Width: 1824
Flags: W
LayerCount: 2
Fore
SplineSet
1608 1366 m 1,0,-1
 1744 1366 l 1,1,2
 1744 1318 1744 1318 1726 1274 c 0,3,4
 1710 1236 1710 1236 1683 1206 c 0,5,6
 1679 1201 1679 1201 1674 1196 c 0,7,8
 1640 1162 1640 1162 1596 1144 c 128,-1,9
 1552 1126 1552 1126 1504 1126 c 128,-1,10
 1456 1126 1456 1126 1412 1144.5 c 128,-1,11
 1368 1163 1368 1163 1334 1196 c 0,12,13
 1329 1201 1329 1201 1325 1206 c 0,14,15
 1298 1236 1298 1236 1282 1274 c 0,16,17
 1264 1318 1264 1318 1264 1366 c 1,18,-1
 1400 1366 l 1,19,20
 1400 1345 1400 1345 1407.5 1326 c 128,-1,21
 1415 1307 1415 1307 1430 1292 c 128,-1,22
 1445 1277 1445 1277 1464 1269.5 c 128,-1,23
 1483 1262 1483 1262 1504 1262 c 128,-1,24
 1525 1262 1525 1262 1544 1269.5 c 128,-1,25
 1563 1277 1563 1277 1578 1292 c 128,-1,26
 1593 1307 1593 1307 1600.5 1326 c 128,-1,27
 1608 1345 1608 1345 1608 1366 c 1,0,-1
560 6 m 1,28,-1
 560 166 l 1,29,-1
 912 166 l 1,30,-1
 912 6 l 1,31,-1
 560 6 l 1,28,-1
240 1190 m 1,32,-1
 240 6 l 1,33,-1
 80 6 l 1,34,-1
 80 1190 l 1,35,-1
 240 1190 l 1,32,-1
1216 1190 m 2,36,37
 1249 1190 1249 1190 1272.5 1166.5 c 128,-1,38
 1296 1143 1296 1143 1296 1110 c 2,39,-1
 1296 86 l 2,40,41
 1296 53 1296 53 1272.5 29.5 c 128,-1,42
 1249 6 1249 6 1216 6 c 2,43,-1
 1136 6 l 1,44,-1
 1136 7 l 1,45,-1
 744 474 l 1,46,-1
 352 7 l 1,47,-1
 336 7 l 1,48,-1
 336 237 l 1,49,-1
 640 599 l 1,50,-1
 336 960 l 1,51,-1
 336 1190 l 1,52,-1
 352 1190 l 1,53,-1
 744 723 l 1,54,-1
 1136 1190 l 1,55,-1
 1216 1190 l 2,36,37
849 599 m 1,56,-1
 1136 256 l 1,57,-1
 1136 941 l 1,58,-1
 849 599 l 1,56,-1
EndSplineSet
Validated: 1
EndChar

StartChar: uF2A50
Encoding: 993872 993872 90
Width: 928
Flags: W
LayerCount: 2
Fore
SplineSet
368 1222 m 1,0,-1
 368 902 l 1,1,-1
 560 902 l 2,2,3
 640 902 640 902 696 846 c 128,-1,4
 752 790 752 790 752 710 c 2,5,-1
 752 550 l 2,6,7
 752 439 752 439 709 338.5 c 128,-1,8
 666 238 666 238 593 165 c 128,-1,9
 520 92 520 92 419.5 49 c 128,-1,10
 319 6 319 6 208 6 c 1,11,-1
 208 166 l 1,12,13
 312 166 312 166 400.5 217.5 c 128,-1,14
 489 269 489 269 540.5 357.5 c 128,-1,15
 592 446 592 446 592 550 c 2,16,-1
 592 710 l 2,17,18
 592 723 592 723 582.5 732.5 c 128,-1,19
 573 742 573 742 560 742 c 2,20,-1
 208 742 l 1,21,-1
 208 1222 l 1,22,-1
 368 1222 l 1,0,-1
80 -218 m 1,23,-1
 80 -58 l 1,24,-1
 848 -58 l 1,25,-1
 848 -218 l 1,26,-1
 80 -218 l 1,23,-1
EndSplineSet
Validated: 1
EndChar

StartChar: uF2A51
Encoding: 993873 993873 91
Width: 1114
Flags: W
LayerCount: 2
Fore
SplineSet
1034 1382 m 1,0,-1
 754 1062 l 1,1,-1
 528 1062 l 1,2,-1
 808 1382 l 1,3,-1
 1034 1382 l 1,0,-1
208 1222 m 1,4,-1
 368 1222 l 1,5,-1
 368 902 l 1,6,-1
 560 902 l 2,7,8
 565 902 565 902 569 902 c 0,9,10
 643 899 643 899 696 846 c 0,11,12
 752 790 752 790 752 710 c 2,13,-1
 752 550 l 2,14,15
 752 402 752 402 679 277 c 128,-1,16
 606 152 606 152 481 79 c 128,-1,17
 356 6 356 6 208 6 c 1,18,-1
 208 166 l 1,19,20
 312 166 312 166 401 217 c 0,21,22
 417 226 417 226 431 237 c 0,23,24
 456 255 456 255 479.5 278.5 c 128,-1,25
 503 302 503 302 521 327 c 0,26,27
 531 342 531 342 541 357 c 0,28,29
 592 445 592 445 592 550 c 2,30,-1
 592 710 l 2,31,32
 592 723 592 723 582.5 732.5 c 128,-1,33
 573 742 573 742 560 742 c 2,34,-1
 208 742 l 1,35,-1
 208 1222 l 1,4,-1
848 -218 m 1,36,-1
 80 -218 l 1,37,-1
 80 -58 l 1,38,-1
 848 -58 l 1,39,-1
 848 -218 l 1,36,-1
EndSplineSet
Validated: 1
EndChar

StartChar: uF2A52
Encoding: 993874 993874 92
Width: 1088
Flags: W
LayerCount: 2
Fore
SplineSet
368 1222 m 1,0,-1
 368 902 l 1,1,-1
 560 902 l 2,2,3
 640 902 640 902 696 846 c 128,-1,4
 752 790 752 790 752 710 c 2,5,-1
 752 550 l 2,6,7
 752 439 752 439 709 338.5 c 128,-1,8
 666 238 666 238 593 165 c 128,-1,9
 520 92 520 92 419.5 49 c 128,-1,10
 319 6 319 6 208 6 c 1,11,-1
 208 166 l 1,12,13
 312 166 312 166 400.5 217.5 c 128,-1,14
 489 269 489 269 540.5 357.5 c 128,-1,15
 592 446 592 446 592 550 c 2,16,-1
 592 710 l 2,17,18
 592 723 592 723 582.5 732.5 c 128,-1,19
 573 742 573 742 560 742 c 2,20,-1
 208 742 l 1,21,-1
 208 1222 l 1,22,-1
 368 1222 l 1,0,-1
589 1206 m 0,23,24
 562 1236 562 1236 546 1274 c 0,25,26
 528 1318 528 1318 528 1366 c 1,27,-1
 664 1366 l 1,28,29
 664 1345 664 1345 671.5 1326 c 128,-1,30
 679 1307 679 1307 694 1292 c 128,-1,31
 709 1277 709 1277 728 1269.5 c 128,-1,32
 747 1262 747 1262 768 1262 c 128,-1,33
 789 1262 789 1262 808 1269.5 c 128,-1,34
 827 1277 827 1277 842 1292 c 128,-1,35
 857 1307 857 1307 864.5 1326 c 128,-1,36
 872 1345 872 1345 872 1366 c 1,37,-1
 1008 1366 l 1,38,39
 1008 1318 1008 1318 990 1274 c 0,40,41
 974 1236 974 1236 947 1206 c 0,42,43
 943 1201 943 1201 938 1196 c 0,44,45
 904 1162 904 1162 860 1144 c 128,-1,46
 816 1126 816 1126 768 1126 c 128,-1,47
 720 1126 720 1126 676 1144.5 c 128,-1,48
 632 1163 632 1163 598 1196 c 0,49,50
 593 1201 593 1201 589 1206 c 0,23,24
80 -218 m 1,51,-1
 80 -58 l 1,52,-1
 848 -58 l 1,53,-1
 848 -218 l 1,54,-1
 80 -218 l 1,51,-1
EndSplineSet
Validated: 1
EndChar

StartChar: uF2A53
Encoding: 993875 993875 93
Width: 1376
Flags: W
LayerCount: 2
Fore
SplineSet
849 599 m 1,0,-1
 1136 256 l 1,1,-1
 1136 941 l 1,2,-1
 849 599 l 1,0,-1
1216 1190 m 2,3,4
 1249 1190 1249 1190 1272.5 1166.5 c 128,-1,5
 1296 1143 1296 1143 1296 1110 c 2,6,-1
 1296 86 l 2,7,8
 1296 53 1296 53 1272.5 29.5 c 128,-1,9
 1249 6 1249 6 1216 6 c 2,10,-1
 1136 6 l 1,11,-1
 1136 7 l 1,12,-1
 744 474 l 1,13,-1
 352 7 l 1,14,-1
 336 7 l 1,15,-1
 336 237 l 1,16,-1
 640 599 l 1,17,-1
 336 960 l 1,18,-1
 336 1190 l 1,19,-1
 352 1190 l 1,20,-1
 744 723 l 1,21,-1
 1136 1190 l 1,22,-1
 1216 1190 l 2,3,4
240 1190 m 1,23,-1
 240 6 l 1,24,-1
 80 6 l 1,25,-1
 80 1190 l 1,26,-1
 240 1190 l 1,23,-1
624 134 m 128,-1,28
 624 187 624 187 661.5 224.5 c 128,-1,29
 699 262 699 262 752 262 c 128,-1,30
 805 262 805 262 842.5 224.5 c 128,-1,31
 880 187 880 187 880 134 c 128,-1,32
 880 81 880 81 842.5 43.5 c 128,-1,33
 805 6 805 6 752 6 c 128,-1,34
 699 6 699 6 661.5 43.5 c 128,-1,27
 624 81 624 81 624 134 c 128,-1,28
EndSplineSet
Validated: 1
EndChar

StartChar: uF2A54
Encoding: 993876 993876 94
Width: 1754
Flags: W
LayerCount: 2
Fore
SplineSet
80 1190 m 1,0,-1
 240 1190 l 1,1,-1
 240 6 l 1,2,-1
 80 6 l 1,3,-1
 80 1190 l 1,0,-1
1136 256 m 1,4,-1
 1136 941 l 1,5,-1
 849 599 l 1,6,-1
 1136 256 l 1,4,-1
1394 1094 m 1,7,-1
 1296 1094 l 1,8,-1
 1296 86 l 2,9,10
 1296 53 1296 53 1272.5 29.5 c 128,-1,11
 1249 6 1249 6 1216 6 c 2,12,-1
 1136 6 l 1,13,-1
 1136 7 l 1,14,-1
 744 474 l 1,15,-1
 352 7 l 1,16,-1
 336 7 l 1,17,-1
 336 237 l 1,18,-1
 640 599 l 1,19,-1
 336 960 l 1,20,-1
 336 1190 l 1,21,-1
 352 1190 l 1,22,-1
 744 723 l 1,23,-1
 1136 1190 l 1,24,-1
 1216 1190 l 2,25,26
 1232 1190 1232 1190 1247 1184 c 1,27,-1
 1448 1414 l 1,28,-1
 1674 1414 l 1,29,-1
 1394 1094 l 1,7,-1
624 134 m 128,-1,31
 624 187 624 187 661.5 224.5 c 128,-1,32
 699 262 699 262 752 262 c 128,-1,33
 805 262 805 262 842.5 224.5 c 128,-1,34
 880 187 880 187 880 134 c 128,-1,35
 880 81 880 81 842.5 43.5 c 128,-1,36
 805 6 805 6 752 6 c 128,-1,37
 699 6 699 6 661.5 43.5 c 128,-1,30
 624 81 624 81 624 134 c 128,-1,31
EndSplineSet
Validated: 1
EndChar

StartChar: uF2A55
Encoding: 993877 993877 95
Width: 1824
Flags: W
LayerCount: 2
Fore
SplineSet
849 599 m 1,0,-1
 1136 256 l 1,1,-1
 1136 941 l 1,2,-1
 849 599 l 1,0,-1
1216 1190 m 2,3,4
 1249 1190 1249 1190 1272.5 1166.5 c 128,-1,5
 1296 1143 1296 1143 1296 1110 c 2,6,-1
 1296 86 l 2,7,8
 1296 53 1296 53 1272.5 29.5 c 128,-1,9
 1249 6 1249 6 1216 6 c 2,10,-1
 1136 6 l 1,11,-1
 1136 7 l 1,12,-1
 744 474 l 1,13,-1
 352 7 l 1,14,-1
 336 7 l 1,15,-1
 336 237 l 1,16,-1
 640 599 l 1,17,-1
 336 960 l 1,18,-1
 336 1190 l 1,19,-1
 352 1190 l 1,20,-1
 744 723 l 1,21,-1
 1136 1190 l 1,22,-1
 1216 1190 l 2,3,4
240 1190 m 1,23,-1
 240 6 l 1,24,-1
 80 6 l 1,25,-1
 80 1190 l 1,26,-1
 240 1190 l 1,23,-1
624 166 m 128,-1,28
 624 219 624 219 661.5 256.5 c 128,-1,29
 699 294 699 294 752 294 c 128,-1,30
 805 294 805 294 842.5 256.5 c 128,-1,31
 880 219 880 219 880 166 c 128,-1,32
 880 113 880 113 842.5 75.5 c 128,-1,33
 805 38 805 38 752 38 c 128,-1,34
 699 38 699 38 661.5 75.5 c 128,-1,27
 624 113 624 113 624 166 c 128,-1,28
1325 1206 m 0,35,36
 1298 1236 1298 1236 1282 1274 c 0,37,38
 1264 1318 1264 1318 1264 1366 c 1,39,-1
 1400 1366 l 1,40,41
 1400 1345 1400 1345 1407.5 1326 c 128,-1,42
 1415 1307 1415 1307 1430 1292 c 128,-1,43
 1445 1277 1445 1277 1464 1269.5 c 128,-1,44
 1483 1262 1483 1262 1504 1262 c 128,-1,45
 1525 1262 1525 1262 1544 1269.5 c 128,-1,46
 1563 1277 1563 1277 1578 1292 c 128,-1,47
 1593 1307 1593 1307 1600.5 1326 c 128,-1,48
 1608 1345 1608 1345 1608 1366 c 1,49,-1
 1744 1366 l 1,50,51
 1744 1318 1744 1318 1726 1274 c 0,52,53
 1710 1236 1710 1236 1683 1206 c 0,54,55
 1679 1201 1679 1201 1674 1196 c 0,56,57
 1640 1162 1640 1162 1596 1144 c 128,-1,58
 1552 1126 1552 1126 1504 1126 c 128,-1,59
 1456 1126 1456 1126 1412 1144.5 c 128,-1,60
 1368 1163 1368 1163 1334 1196 c 0,61,62
 1329 1201 1329 1201 1325 1206 c 0,35,36
EndSplineSet
Validated: 1
EndChar

StartChar: uF2A56
Encoding: 993878 993878 96
Width: 704
Flags: W
LayerCount: 2
Fore
SplineSet
240 1222 m 1,0,-1
 240 902 l 1,1,-1
 432 902 l 2,2,3
 512 902 512 902 568 846 c 128,-1,4
 624 790 624 790 624 710 c 2,5,-1
 624 550 l 2,6,7
 624 402 624 402 551 277 c 128,-1,8
 478 152 478 152 353 79 c 128,-1,9
 228 6 228 6 80 6 c 1,10,-1
 80 166 l 1,11,12
 239 166 239 166 351.5 278.5 c 128,-1,13
 464 391 464 391 464 550 c 2,14,-1
 464 710 l 2,15,16
 464 723 464 723 454.5 732.5 c 128,-1,17
 445 742 445 742 432 742 c 2,18,-1
 80 742 l 1,19,-1
 80 1222 l 1,20,-1
 240 1222 l 1,0,-1
208 -154 m 128,-1,22
 208 -101 208 -101 245.5 -63.5 c 128,-1,23
 283 -26 283 -26 336 -26 c 128,-1,24
 389 -26 389 -26 426.5 -63.5 c 128,-1,25
 464 -101 464 -101 464 -154 c 128,-1,26
 464 -207 464 -207 426.5 -244.5 c 128,-1,27
 389 -282 389 -282 336 -282 c 128,-1,28
 283 -282 283 -282 245.5 -244.5 c 128,-1,21
 208 -207 208 -207 208 -154 c 128,-1,22
EndSplineSet
Validated: 1
EndChar

StartChar: uF2A57
Encoding: 993879 993879 97
Width: 986
Flags: W
LayerCount: 2
Fore
SplineSet
906 1382 m 1,0,-1
 626 1062 l 1,1,-1
 400 1062 l 1,2,-1
 680 1382 l 1,3,-1
 906 1382 l 1,0,-1
240 1222 m 1,4,-1
 240 902 l 1,5,-1
 432 902 l 2,6,7
 512 902 512 902 568 846 c 128,-1,8
 624 790 624 790 624 710 c 2,9,-1
 624 550 l 2,10,11
 624 402 624 402 551 277 c 128,-1,12
 478 152 478 152 353 79 c 128,-1,13
 228 6 228 6 80 6 c 1,14,-1
 80 166 l 1,15,16
 239 166 239 166 351.5 278.5 c 128,-1,17
 464 391 464 391 464 550 c 2,18,-1
 464 710 l 2,19,20
 464 723 464 723 454.5 732.5 c 128,-1,21
 445 742 445 742 432 742 c 2,22,-1
 80 742 l 1,23,-1
 80 1222 l 1,24,-1
 240 1222 l 1,4,-1
208 -154 m 128,-1,26
 208 -101 208 -101 245.5 -63.5 c 128,-1,27
 283 -26 283 -26 336 -26 c 128,-1,28
 389 -26 389 -26 426.5 -63.5 c 128,-1,29
 464 -101 464 -101 464 -154 c 128,-1,30
 464 -207 464 -207 426.5 -244.5 c 128,-1,31
 389 -282 389 -282 336 -282 c 128,-1,32
 283 -282 283 -282 245.5 -244.5 c 128,-1,25
 208 -207 208 -207 208 -154 c 128,-1,26
EndSplineSet
Validated: 1
EndChar

StartChar: uF2A58
Encoding: 993880 993880 98
Width: 960
Flags: W
LayerCount: 2
Fore
SplineSet
461 1206 m 0,0,1
 434 1236 434 1236 418 1274 c 0,2,3
 400 1318 400 1318 400 1366 c 1,4,-1
 536 1366 l 1,5,6
 536 1345 536 1345 543.5 1326 c 128,-1,7
 551 1307 551 1307 566 1292 c 128,-1,8
 581 1277 581 1277 600 1269.5 c 128,-1,9
 619 1262 619 1262 640 1262 c 128,-1,10
 661 1262 661 1262 680 1269.5 c 128,-1,11
 699 1277 699 1277 714 1292 c 128,-1,12
 729 1307 729 1307 736.5 1326 c 128,-1,13
 744 1345 744 1345 744 1366 c 1,14,-1
 880 1366 l 1,15,16
 880 1318 880 1318 862 1274 c 0,17,18
 846 1236 846 1236 819 1206 c 0,19,20
 815 1201 815 1201 810 1196 c 0,21,22
 776 1162 776 1162 732 1144 c 128,-1,23
 688 1126 688 1126 640 1126 c 128,-1,24
 592 1126 592 1126 548 1144.5 c 128,-1,25
 504 1163 504 1163 470 1196 c 0,26,27
 465 1201 465 1201 461 1206 c 0,0,1
208 -154 m 128,-1,29
 208 -101 208 -101 245.5 -63.5 c 128,-1,30
 283 -26 283 -26 336 -26 c 128,-1,31
 389 -26 389 -26 426.5 -63.5 c 128,-1,32
 464 -101 464 -101 464 -154 c 128,-1,33
 464 -207 464 -207 426.5 -244.5 c 128,-1,34
 389 -282 389 -282 336 -282 c 128,-1,35
 283 -282 283 -282 245.5 -244.5 c 128,-1,28
 208 -207 208 -207 208 -154 c 128,-1,29
240 1222 m 1,36,-1
 240 902 l 1,37,-1
 432 902 l 2,38,39
 512 902 512 902 568 846 c 128,-1,40
 624 790 624 790 624 710 c 2,41,-1
 624 550 l 2,42,43
 624 439 624 439 581 338.5 c 128,-1,44
 538 238 538 238 465 165 c 128,-1,45
 392 92 392 92 291.5 49 c 128,-1,46
 191 6 191 6 80 6 c 1,47,-1
 80 166 l 1,48,49
 184 166 184 166 272.5 217.5 c 128,-1,50
 361 269 361 269 412.5 357.5 c 128,-1,51
 464 446 464 446 464 550 c 2,52,-1
 464 710 l 2,53,54
 464 723 464 723 454.5 732.5 c 128,-1,55
 445 742 445 742 432 742 c 2,56,-1
 80 742 l 1,57,-1
 80 1222 l 1,58,-1
 240 1222 l 1,36,-1
EndSplineSet
Validated: 1
EndChar

StartChar: uF2A59
Encoding: 993881 993881 99
Width: 1632
Flags: W
LayerCount: 2
Fore
SplineSet
240 1190 m 1,0,-1
 240 6 l 1,1,-1
 80 6 l 1,2,-1
 80 1190 l 1,3,-1
 240 1190 l 1,0,-1
849 599 m 1,4,-1
 1136 256 l 1,5,-1
 1136 941 l 1,6,-1
 849 599 l 1,4,-1
880 885 m 1,7,-1
 880 1366 l 2,8,9
 880 1426 880 1426 922 1468 c 128,-1,10
 964 1510 964 1510 1024 1510 c 2,11,-1
 1408 1510 l 2,12,13
 1468 1510 1468 1510 1510 1468 c 128,-1,14
 1552 1426 1552 1426 1552 1366 c 2,15,-1
 1552 6 l 1,16,-1
 1392 6 l 1,17,-1
 1392 1350 l 1,18,-1
 1040 1350 l 1,19,-1
 1040 1076 l 1,20,-1
 1136 1190 l 1,21,-1
 1216 1190 l 2,22,23
 1249 1190 1249 1190 1272.5 1166.5 c 128,-1,24
 1296 1143 1296 1143 1296 1110 c 2,25,-1
 1296 86 l 2,26,27
 1296 53 1296 53 1272.5 29.5 c 128,-1,28
 1249 6 1249 6 1216 6 c 2,29,-1
 1136 6 l 1,30,-1
 1136 7 l 1,31,-1
 744 474 l 1,32,-1
 352 7 l 1,33,-1
 336 7 l 1,34,-1
 336 237 l 1,35,-1
 640 599 l 1,36,-1
 336 960 l 1,37,-1
 336 1190 l 1,38,-1
 352 1190 l 1,39,-1
 744 723 l 1,40,-1
 880 885 l 1,7,-1
EndSplineSet
Validated: 1
EndChar

StartChar: uF2A5A
Encoding: 993882 993882 100
Width: 1818
Flags: W
LayerCount: 2
Fore
SplineSet
240 1190 m 1,0,-1
 240 6 l 1,1,-1
 80 6 l 1,2,-1
 80 1190 l 1,3,-1
 240 1190 l 1,0,-1
849 599 m 1,4,-1
 1136 256 l 1,5,-1
 1136 941 l 1,6,-1
 849 599 l 1,4,-1
1543 1415 m 1,7,8
 1552 1391 1552 1391 1552 1366 c 2,9,-1
 1552 6 l 1,10,-1
 1392 6 l 1,11,-1
 1392 1350 l 1,12,-1
 1040 1350 l 1,13,-1
 1040 1076 l 1,14,-1
 1136 1190 l 1,15,-1
 1216 1190 l 2,16,17
 1249 1190 1249 1190 1272.5 1166.5 c 128,-1,18
 1296 1143 1296 1143 1296 1110 c 2,19,-1
 1296 86 l 2,20,21
 1296 53 1296 53 1272.5 29.5 c 128,-1,22
 1249 6 1249 6 1216 6 c 2,23,-1
 1136 6 l 1,24,-1
 1136 7 l 1,25,-1
 744 474 l 1,26,-1
 352 7 l 1,27,-1
 336 7 l 1,28,-1
 336 237 l 1,29,-1
 640 599 l 1,30,-1
 336 960 l 1,31,-1
 336 1190 l 1,32,-1
 352 1190 l 1,33,-1
 744 723 l 1,34,-1
 880 885 l 1,35,-1
 880 1366 l 2,36,37
 880 1426 880 1426 922 1468 c 128,-1,38
 964 1510 964 1510 1024 1510 c 2,39,-1
 1400 1510 l 1,40,-1
 1512 1638 l 1,41,-1
 1738 1638 l 1,42,-1
 1543 1415 l 1,7,8
EndSplineSet
Validated: 1
EndChar

StartChar: uF2A5B
Encoding: 993883 993883 101
Width: 1883
Flags: W
LayerCount: 2
Fore
SplineSet
80 1190 m 1,0,-1
 240 1190 l 1,1,-1
 240 6 l 1,2,-1
 80 6 l 1,3,-1
 80 1190 l 1,0,-1
1136 256 m 1,4,-1
 1136 941 l 1,5,-1
 849 599 l 1,6,-1
 1136 256 l 1,4,-1
1552 1274 m 1,7,-1
 1552 6 l 1,8,-1
 1392 6 l 1,9,-1
 1392 1350 l 1,10,-1
 1040 1350 l 1,11,-1
 1040 1076 l 1,12,-1
 1136 1190 l 1,13,-1
 1216 1190 l 2,14,15
 1249 1190 1249 1190 1272.5 1166.5 c 128,-1,16
 1296 1143 1296 1143 1296 1110 c 2,17,-1
 1296 86 l 2,18,19
 1296 53 1296 53 1272.5 29.5 c 128,-1,20
 1249 6 1249 6 1216 6 c 2,21,-1
 1136 6 l 1,22,-1
 1136 7 l 1,23,-1
 744 474 l 1,24,-1
 352 7 l 1,25,-1
 336 7 l 1,26,-1
 336 237 l 1,27,-1
 640 599 l 1,28,-1
 336 960 l 1,29,-1
 336 1190 l 1,30,-1
 352 1190 l 1,31,-1
 744 723 l 1,32,-1
 880 885 l 1,33,-1
 880 1366 l 2,34,35
 880 1426 880 1426 922 1468 c 128,-1,36
 964 1510 964 1510 1024 1510 c 2,37,-1
 1408 1510 l 2,38,39
 1416 1510 1416 1510 1423 1509 c 1,40,41
 1427 1537 1427 1537 1438 1564 c 0,42,43
 1455 1605 1455 1605 1486 1636 c 1,44,-1
 1576 1547 l 1,45,46
 1562 1533 1562 1533 1554.5 1515 c 128,-1,47
 1547 1497 1547 1497 1547 1478 c 128,-1,48
 1547 1459 1547 1459 1554.5 1441 c 128,-1,49
 1562 1423 1562 1423 1576 1409 c 128,-1,50
 1590 1395 1590 1395 1607.5 1388 c 128,-1,51
 1625 1381 1625 1381 1644.5 1381 c 128,-1,52
 1664 1381 1664 1381 1682 1388 c 128,-1,53
 1700 1395 1700 1395 1714 1409 c 1,54,-1
 1803 1320 l 1,55,56
 1771 1288 1771 1288 1730 1271 c 128,-1,57
 1689 1254 1689 1254 1645 1254 c 0,58,59
 1644 1254 1644 1254 1642 1254 c 0,60,61
 1599 1254 1599 1254 1559 1271 c 0,62,63
 1556 1272 1556 1272 1552 1274 c 1,7,-1
EndSplineSet
Validated: 1
EndChar

StartChar: uF2A5C
Encoding: 993884 993884 102
Width: 1056
Flags: W
LayerCount: 2
Fore
SplineSet
304 902 m 1,0,-1
 304 1334 l 2,1,2
 304 1394 304 1394 346 1436 c 128,-1,3
 388 1478 388 1478 448 1478 c 2,4,-1
 832 1478 l 2,5,6
 892 1478 892 1478 934 1436 c 128,-1,7
 976 1394 976 1394 976 1334 c 2,8,-1
 976 6 l 1,9,-1
 816 6 l 1,10,-1
 816 1318 l 1,11,-1
 464 1318 l 1,12,-1
 464 899 l 1,13,14
 533 887 533 887 578.5 834 c 128,-1,15
 624 781 624 781 624 710 c 2,16,-1
 624 550 l 2,17,18
 624 402 624 402 551 277 c 128,-1,19
 478 152 478 152 353 79 c 128,-1,20
 228 6 228 6 80 6 c 1,21,-1
 80 166 l 1,22,23
 239 166 239 166 351.5 278.5 c 128,-1,24
 464 391 464 391 464 550 c 2,25,-1
 464 710 l 2,26,27
 464 723 464 723 454.5 732.5 c 128,-1,28
 445 742 445 742 432 742 c 2,29,-1
 80 742 l 1,30,-1
 80 1222 l 1,31,-1
 240 1222 l 1,32,-1
 240 902 l 1,33,-1
 304 902 l 1,0,-1
EndSplineSet
Validated: 1
EndChar

StartChar: uF2A5D
Encoding: 993885 993885 103
Width: 1242
Flags: W
LayerCount: 2
Fore
SplineSet
824 1478 m 1,0,-1
 936 1606 l 1,1,-1
 1162 1606 l 1,2,-1
 967 1383 l 1,3,4
 976 1359 976 1359 976 1334 c 2,5,-1
 976 6 l 1,6,-1
 816 6 l 1,7,-1
 816 1318 l 1,8,-1
 464 1318 l 1,9,-1
 464 899 l 1,10,11
 533 887 533 887 578.5 834 c 128,-1,12
 624 781 624 781 624 710 c 2,13,-1
 624 550 l 2,14,15
 624 439 624 439 581 338.5 c 128,-1,16
 538 238 538 238 465 165 c 128,-1,17
 392 92 392 92 291.5 49 c 128,-1,18
 191 6 191 6 80 6 c 1,19,-1
 80 166 l 1,20,21
 184 166 184 166 272.5 217.5 c 128,-1,22
 361 269 361 269 412.5 357.5 c 128,-1,23
 464 446 464 446 464 550 c 2,24,-1
 464 710 l 2,25,26
 464 723 464 723 454.5 732.5 c 128,-1,27
 445 742 445 742 432 742 c 2,28,-1
 80 742 l 1,29,-1
 80 1222 l 1,30,-1
 240 1222 l 1,31,-1
 240 902 l 1,32,-1
 304 902 l 1,33,-1
 304 1334 l 2,34,35
 304 1394 304 1394 346 1436 c 128,-1,36
 388 1478 388 1478 448 1478 c 2,37,-1
 824 1478 l 1,0,-1
EndSplineSet
Validated: 1
EndChar

StartChar: uF2A5E
Encoding: 993886 993886 104
Width: 1275
Flags: W
LayerCount: 2
Fore
SplineSet
976 1262 m 1,0,-1
 976 6 l 1,1,-1
 816 6 l 1,2,-1
 816 1318 l 1,3,-1
 464 1318 l 1,4,-1
 464 899 l 1,5,6
 533 887 533 887 578.5 834 c 128,-1,7
 624 781 624 781 624 710 c 2,8,-1
 624 550 l 2,9,10
 624 439 624 439 581 338.5 c 128,-1,11
 538 238 538 238 465 165 c 128,-1,12
 392 92 392 92 291.5 49 c 128,-1,13
 191 6 191 6 80 6 c 1,14,-1
 80 166 l 1,15,16
 184 166 184 166 272.5 217.5 c 128,-1,17
 361 269 361 269 412.5 357.5 c 128,-1,18
 464 446 464 446 464 550 c 2,19,-1
 464 710 l 2,20,21
 464 723 464 723 454.5 732.5 c 128,-1,22
 445 742 445 742 432 742 c 2,23,-1
 80 742 l 1,24,-1
 80 1222 l 1,25,-1
 240 1222 l 1,26,-1
 240 902 l 1,27,-1
 304 902 l 1,28,-1
 304 1334 l 2,29,30
 304 1394 304 1394 346 1436 c 128,-1,31
 388 1478 388 1478 448 1478 c 2,32,-1
 813 1478 l 1,33,34
 813 1523 813 1523 830 1564 c 128,-1,35
 847 1605 847 1605 878 1636 c 1,36,-1
 968 1547 l 1,37,38
 954 1533 954 1533 946.5 1515 c 128,-1,39
 939 1497 939 1497 939 1478 c 128,-1,40
 939 1459 939 1459 946.5 1441 c 128,-1,41
 954 1423 954 1423 968 1409 c 128,-1,42
 982 1395 982 1395 999.5 1388 c 128,-1,43
 1017 1381 1017 1381 1036.5 1381 c 128,-1,44
 1056 1381 1056 1381 1074 1388 c 128,-1,45
 1092 1395 1092 1395 1106 1409 c 1,46,-1
 1195 1320 l 1,47,48
 1163 1288 1163 1288 1122 1271 c 128,-1,49
 1081 1254 1081 1254 1037 1254 c 0,50,51
 1036 1254 1036 1254 1034 1254 c 0,52,53
 1005 1254 1005 1254 976 1262 c 1,0,-1
EndSplineSet
Validated: 1
EndChar

StartChar: uF2A5F
Encoding: 993887 993887 105
Width: 1376
Flags: W
LayerCount: 2
Fore
SplineSet
849 599 m 1,0,-1
 1136 256 l 1,1,-1
 1136 941 l 1,2,-1
 849 599 l 1,0,-1
1216 1190 m 2,3,4
 1249 1190 1249 1190 1272.5 1166.5 c 128,-1,5
 1296 1143 1296 1143 1296 1110 c 2,6,-1
 1296 86 l 2,7,8
 1296 53 1296 53 1272.5 29.5 c 128,-1,9
 1249 6 1249 6 1216 6 c 2,10,-1
 1136 6 l 1,11,-1
 1136 7 l 1,12,-1
 744 474 l 1,13,-1
 352 7 l 1,14,-1
 336 7 l 1,15,-1
 336 237 l 1,16,-1
 640 599 l 1,17,-1
 336 960 l 1,18,-1
 336 1190 l 1,19,-1
 352 1190 l 1,20,-1
 744 723 l 1,21,-1
 1136 1190 l 1,22,-1
 1216 1190 l 2,3,4
240 1190 m 1,23,-1
 240 6 l 1,24,-1
 80 6 l 1,25,-1
 80 1190 l 1,26,-1
 240 1190 l 1,23,-1
563 70 m 0,27,28
 594 100 594 100 634 117 c 0,29,30
 675 134 675 134 720 134 c 128,-1,31
 765 134 765 134 806 117 c 0,32,33
 846 100 846 100 877 70 c 0,34,35
 878 69 878 69 878 68 c 0,36,37
 910 36 910 36 927 -4.5 c 128,-1,38
 944 -45 944 -45 944 -90 c 1,39,-1
 817 -90 l 1,40,41
 817 -71 817 -71 810 -53 c 128,-1,42
 803 -35 803 -35 789 -21 c 128,-1,43
 775 -7 775 -7 757 0 c 128,-1,44
 739 7 739 7 720 7 c 128,-1,45
 701 7 701 7 683 0 c 128,-1,46
 665 -7 665 -7 651 -21 c 128,-1,47
 637 -35 637 -35 630 -53 c 128,-1,48
 623 -71 623 -71 623 -90 c 1,49,-1
 496 -90 l 1,50,51
 496 -45 496 -45 513 -4 c 128,-1,52
 530 37 530 37 562 68 c 0,53,54
 562 69 562 69 563 70 c 0,27,28
EndSplineSet
Validated: 1
EndChar

StartChar: uF2A60
Encoding: 993888 993888 106
Width: 1824
Flags: W
LayerCount: 2
Fore
SplineSet
849 599 m 1,0,-1
 1136 256 l 1,1,-1
 1136 941 l 1,2,-1
 849 599 l 1,0,-1
1216 1190 m 2,3,4
 1249 1190 1249 1190 1272.5 1166.5 c 128,-1,5
 1296 1143 1296 1143 1296 1110 c 2,6,-1
 1296 86 l 2,7,8
 1296 53 1296 53 1272.5 29.5 c 128,-1,9
 1249 6 1249 6 1216 6 c 2,10,-1
 1136 6 l 1,11,-1
 1136 7 l 1,12,-1
 744 474 l 1,13,-1
 352 7 l 1,14,-1
 336 7 l 1,15,-1
 336 237 l 1,16,-1
 640 599 l 1,17,-1
 336 960 l 1,18,-1
 336 1190 l 1,19,-1
 352 1190 l 1,20,-1
 744 723 l 1,21,-1
 1136 1190 l 1,22,-1
 1216 1190 l 2,3,4
240 1190 m 1,23,-1
 240 6 l 1,24,-1
 80 6 l 1,25,-1
 80 1190 l 1,26,-1
 240 1190 l 1,23,-1
563 70 m 0,27,28
 594 100 594 100 634 117 c 0,29,30
 675 134 675 134 720 134 c 128,-1,31
 765 134 765 134 806 117 c 0,32,33
 846 100 846 100 877 70 c 0,34,35
 878 69 878 69 878 68 c 0,36,37
 910 36 910 36 927 -4.5 c 128,-1,38
 944 -45 944 -45 944 -90 c 1,39,-1
 817 -90 l 1,40,41
 817 -71 817 -71 810 -53 c 128,-1,42
 803 -35 803 -35 789 -21 c 128,-1,43
 775 -7 775 -7 757 0 c 128,-1,44
 739 7 739 7 720 7 c 128,-1,45
 701 7 701 7 683 0 c 128,-1,46
 665 -7 665 -7 651 -21 c 128,-1,47
 637 -35 637 -35 630 -53 c 128,-1,48
 623 -71 623 -71 623 -90 c 1,49,-1
 496 -90 l 1,50,51
 496 -45 496 -45 513 -4 c 128,-1,52
 530 37 530 37 562 68 c 0,53,54
 562 69 562 69 563 70 c 0,27,28
1325 1206 m 0,55,56
 1298 1236 1298 1236 1282 1274 c 0,57,58
 1264 1318 1264 1318 1264 1366 c 1,59,-1
 1400 1366 l 1,60,61
 1400 1345 1400 1345 1407.5 1326 c 128,-1,62
 1415 1307 1415 1307 1430 1292 c 128,-1,63
 1445 1277 1445 1277 1464 1269.5 c 128,-1,64
 1483 1262 1483 1262 1504 1262 c 128,-1,65
 1525 1262 1525 1262 1544 1269.5 c 128,-1,66
 1563 1277 1563 1277 1578 1292 c 128,-1,67
 1593 1307 1593 1307 1600.5 1326 c 128,-1,68
 1608 1345 1608 1345 1608 1366 c 1,69,-1
 1744 1366 l 1,70,71
 1744 1318 1744 1318 1726 1274 c 0,72,73
 1710 1236 1710 1236 1683 1206 c 0,74,75
 1679 1201 1679 1201 1674 1196 c 0,76,77
 1640 1162 1640 1162 1596 1144 c 128,-1,78
 1552 1126 1552 1126 1504 1126 c 128,-1,79
 1456 1126 1456 1126 1412 1144.5 c 128,-1,80
 1368 1163 1368 1163 1334 1196 c 0,81,82
 1329 1201 1329 1201 1325 1206 c 0,55,56
EndSplineSet
Validated: 1
EndChar

StartChar: uF2A61
Encoding: 993889 993889 107
Width: 1754
Flags: W
LayerCount: 2
Fore
SplineSet
80 1190 m 1,0,-1
 240 1190 l 1,1,-1
 240 6 l 1,2,-1
 80 6 l 1,3,-1
 80 1190 l 1,0,-1
1136 256 m 1,4,-1
 1136 941 l 1,5,-1
 849 599 l 1,6,-1
 1136 256 l 1,4,-1
1394 1094 m 1,7,-1
 1296 1094 l 1,8,-1
 1296 86 l 2,9,10
 1296 53 1296 53 1272.5 29.5 c 128,-1,11
 1249 6 1249 6 1216 6 c 2,12,-1
 1136 6 l 1,13,-1
 1136 7 l 1,14,-1
 744 474 l 1,15,-1
 352 7 l 1,16,-1
 336 7 l 1,17,-1
 336 237 l 1,18,-1
 640 599 l 1,19,-1
 336 960 l 1,20,-1
 336 1190 l 1,21,-1
 352 1190 l 1,22,-1
 744 723 l 1,23,-1
 1136 1190 l 1,24,-1
 1216 1190 l 2,25,26
 1232 1190 1232 1190 1247 1184 c 1,27,-1
 1448 1414 l 1,28,-1
 1674 1414 l 1,29,-1
 1394 1094 l 1,7,-1
563 70 m 0,30,31
 594 100 594 100 634 117 c 0,32,33
 675 134 675 134 720 134 c 128,-1,34
 765 134 765 134 806 117 c 0,35,36
 846 100 846 100 877 70 c 0,37,38
 878 69 878 69 878 68 c 0,39,40
 910 36 910 36 927 -4.5 c 128,-1,41
 944 -45 944 -45 944 -90 c 1,42,-1
 817 -90 l 1,43,44
 817 -71 817 -71 810 -53 c 128,-1,45
 803 -35 803 -35 789 -21 c 128,-1,46
 775 -7 775 -7 757 0 c 128,-1,47
 739 7 739 7 720 7 c 128,-1,48
 701 7 701 7 683 0 c 128,-1,49
 665 -7 665 -7 651 -21 c 128,-1,50
 637 -35 637 -35 630 -53 c 128,-1,51
 623 -71 623 -71 623 -90 c 1,52,-1
 496 -90 l 1,53,54
 496 -45 496 -45 513 -4 c 128,-1,55
 530 37 530 37 562 68 c 0,56,57
 562 69 562 69 563 70 c 0,30,31
EndSplineSet
Validated: 1
EndChar

StartChar: uF2A62
Encoding: 993890 993890 108
Width: 704
Flags: W
LayerCount: 2
Fore
SplineSet
147 -90 m 0,0,1
 178 -60 178 -60 218 -43 c 0,2,3
 259 -26 259 -26 304 -26 c 128,-1,4
 349 -26 349 -26 390 -43 c 0,5,6
 430 -60 430 -60 461 -90 c 0,7,8
 462 -91 462 -91 462 -92 c 0,9,10
 494 -124 494 -124 511 -164.5 c 128,-1,11
 528 -205 528 -205 528 -250 c 1,12,-1
 401 -250 l 1,13,14
 401 -231 401 -231 394 -213 c 128,-1,15
 387 -195 387 -195 373 -181 c 128,-1,16
 359 -167 359 -167 341 -160 c 128,-1,17
 323 -153 323 -153 304 -153 c 128,-1,18
 285 -153 285 -153 267 -160 c 128,-1,19
 249 -167 249 -167 235 -181 c 128,-1,20
 221 -195 221 -195 214 -213 c 128,-1,21
 207 -231 207 -231 207 -250 c 1,22,-1
 80 -250 l 1,23,24
 80 -205 80 -205 97 -164 c 128,-1,25
 114 -123 114 -123 146 -92 c 0,26,27
 146 -91 146 -91 147 -90 c 0,0,1
80 1222 m 1,28,-1
 240 1222 l 1,29,-1
 240 902 l 1,30,-1
 432 902 l 2,31,32
 512 902 512 902 568 846 c 128,-1,33
 624 790 624 790 624 710 c 2,34,-1
 624 550 l 2,35,36
 624 402 624 402 551 277 c 128,-1,37
 478 152 478 152 353 79 c 128,-1,38
 228 6 228 6 80 6 c 1,39,-1
 80 166 l 1,40,41
 239 166 239 166 351.5 278.5 c 128,-1,42
 464 391 464 391 464 550 c 2,43,-1
 464 710 l 2,44,45
 464 723 464 723 454.5 732.5 c 128,-1,46
 445 742 445 742 432 742 c 2,47,-1
 80 742 l 1,48,-1
 80 1222 l 1,28,-1
EndSplineSet
Validated: 1
EndChar

StartChar: uF2A63
Encoding: 993891 993891 109
Width: 986
Flags: W
LayerCount: 2
Fore
SplineSet
906 1382 m 1,0,-1
 626 1062 l 1,1,-1
 400 1062 l 1,2,-1
 680 1382 l 1,3,-1
 906 1382 l 1,0,-1
147 -90 m 0,4,5
 178 -60 178 -60 218 -43 c 0,6,7
 259 -26 259 -26 304 -26 c 128,-1,8
 349 -26 349 -26 390 -43 c 0,9,10
 430 -60 430 -60 461 -90 c 0,11,12
 462 -91 462 -91 462 -92 c 0,13,14
 494 -124 494 -124 511 -164.5 c 128,-1,15
 528 -205 528 -205 528 -250 c 1,16,-1
 401 -250 l 1,17,18
 401 -231 401 -231 394 -213 c 128,-1,19
 387 -195 387 -195 373 -181 c 128,-1,20
 359 -167 359 -167 341 -160 c 128,-1,21
 323 -153 323 -153 304 -153 c 128,-1,22
 285 -153 285 -153 267 -160 c 128,-1,23
 249 -167 249 -167 235 -181 c 128,-1,24
 221 -195 221 -195 214 -213 c 128,-1,25
 207 -231 207 -231 207 -250 c 1,26,-1
 80 -250 l 1,27,28
 80 -205 80 -205 97 -164 c 128,-1,29
 114 -123 114 -123 146 -92 c 0,30,31
 146 -91 146 -91 147 -90 c 0,4,5
80 1222 m 1,32,-1
 240 1222 l 1,33,-1
 240 902 l 1,34,-1
 432 902 l 2,35,36
 512 902 512 902 568 846 c 128,-1,37
 624 790 624 790 624 710 c 2,38,-1
 624 550 l 2,39,40
 624 402 624 402 551 277 c 128,-1,41
 478 152 478 152 353 79 c 128,-1,42
 228 6 228 6 80 6 c 1,43,-1
 80 166 l 1,44,45
 239 166 239 166 351.5 278.5 c 128,-1,46
 464 391 464 391 464 550 c 2,47,-1
 464 710 l 2,48,49
 464 723 464 723 454.5 732.5 c 128,-1,50
 445 742 445 742 432 742 c 2,51,-1
 80 742 l 1,52,-1
 80 1222 l 1,32,-1
EndSplineSet
Validated: 1
EndChar

StartChar: uF2A64
Encoding: 993892 993892 110
Width: 960
Flags: W
LayerCount: 2
Fore
SplineSet
461 1206 m 0,0,1
 434 1236 434 1236 418 1274 c 0,2,3
 400 1318 400 1318 400 1366 c 1,4,-1
 536 1366 l 1,5,6
 536 1345 536 1345 543.5 1326 c 128,-1,7
 551 1307 551 1307 566 1292 c 128,-1,8
 581 1277 581 1277 600 1269.5 c 128,-1,9
 619 1262 619 1262 640 1262 c 128,-1,10
 661 1262 661 1262 680 1269.5 c 128,-1,11
 699 1277 699 1277 714 1292 c 128,-1,12
 729 1307 729 1307 736.5 1326 c 128,-1,13
 744 1345 744 1345 744 1366 c 1,14,-1
 880 1366 l 1,15,16
 880 1318 880 1318 862 1274 c 0,17,18
 846 1236 846 1236 819 1206 c 0,19,20
 815 1201 815 1201 810 1196 c 0,21,22
 776 1162 776 1162 732 1144 c 128,-1,23
 688 1126 688 1126 640 1126 c 128,-1,24
 592 1126 592 1126 548 1144.5 c 128,-1,25
 504 1163 504 1163 470 1196 c 0,26,27
 465 1201 465 1201 461 1206 c 0,0,1
179 -90 m 0,28,29
 210 -60 210 -60 250 -43 c 0,30,31
 291 -26 291 -26 336 -26 c 128,-1,32
 381 -26 381 -26 422 -43 c 0,33,34
 462 -60 462 -60 493 -90 c 0,35,36
 494 -91 494 -91 494 -92 c 0,37,38
 526 -124 526 -124 543 -164.5 c 128,-1,39
 560 -205 560 -205 560 -250 c 1,40,-1
 433 -250 l 1,41,42
 433 -231 433 -231 426 -213 c 128,-1,43
 419 -195 419 -195 405 -181 c 128,-1,44
 391 -167 391 -167 373 -160 c 128,-1,45
 355 -153 355 -153 336 -153 c 128,-1,46
 317 -153 317 -153 299 -160 c 128,-1,47
 281 -167 281 -167 267 -181 c 128,-1,48
 253 -195 253 -195 246 -213 c 128,-1,49
 239 -231 239 -231 239 -250 c 1,50,-1
 112 -250 l 1,51,52
 112 -205 112 -205 129 -164 c 128,-1,53
 146 -123 146 -123 178 -92 c 0,54,55
 178 -91 178 -91 179 -90 c 0,28,29
240 1222 m 1,56,-1
 240 902 l 1,57,-1
 432 902 l 2,58,59
 512 902 512 902 568 846 c 128,-1,60
 624 790 624 790 624 710 c 2,61,-1
 624 550 l 2,62,63
 624 402 624 402 551 277 c 128,-1,64
 478 152 478 152 353 79 c 128,-1,65
 228 6 228 6 80 6 c 1,66,-1
 80 166 l 1,67,68
 239 166 239 166 351.5 278.5 c 128,-1,69
 464 391 464 391 464 550 c 2,70,-1
 464 710 l 2,71,72
 464 723 464 723 454.5 732.5 c 128,-1,73
 445 742 445 742 432 742 c 2,74,-1
 80 742 l 1,75,-1
 80 1222 l 1,76,-1
 240 1222 l 1,56,-1
EndSplineSet
Validated: 1
EndChar

StartChar: uF2A65
Encoding: 993893 993893 111
Width: 1088
Flags: W
LayerCount: 2
Fore
SplineSet
464 230 m 1,0,-1
 464 1222 l 1,1,-1
 624 1222 l 1,2,-1
 624 230 l 1,3,-1
 464 230 l 1,0,-1
1008 326 m 2,4,5
 1008 239 1008 239 965 165.5 c 128,-1,6
 922 92 922 92 848.5 49 c 128,-1,7
 775 6 775 6 688 6 c 2,8,-1
 400 6 l 2,9,10
 313 6 313 6 239.5 49 c 128,-1,11
 166 92 166 92 123 165.5 c 128,-1,12
 80 239 80 239 80 326 c 2,13,-1
 80 998 l 1,14,-1
 240 998 l 1,15,-1
 240 326 l 2,16,17
 240 260 240 260 287 213 c 128,-1,18
 334 166 334 166 400 166 c 2,19,-1
 688 166 l 2,20,21
 754 166 754 166 801 213 c 128,-1,22
 848 260 848 260 848 326 c 2,23,-1
 848 998 l 1,24,-1
 1008 998 l 1,25,-1
 1008 326 l 2,4,5
EndSplineSet
Validated: 1
EndChar

StartChar: uF2A66
Encoding: 993894 993894 112
Width: 1242
Flags: W
LayerCount: 2
Fore
SplineSet
1162 1382 m 1,0,-1
 882 1062 l 1,1,-1
 656 1062 l 1,2,-1
 936 1382 l 1,3,-1
 1162 1382 l 1,0,-1
464 230 m 1,4,-1
 464 1222 l 1,5,-1
 624 1222 l 1,6,-1
 624 230 l 1,7,-1
 464 230 l 1,4,-1
1008 326 m 2,8,9
 1008 193 1008 193 914.5 99.5 c 128,-1,10
 821 6 821 6 688 6 c 2,11,-1
 400 6 l 2,12,13
 267 6 267 6 173.5 99.5 c 128,-1,14
 80 193 80 193 80 326 c 2,15,-1
 80 998 l 1,16,-1
 240 998 l 1,17,-1
 240 326 l 2,18,19
 240 260 240 260 287 213 c 128,-1,20
 334 166 334 166 400 166 c 2,21,-1
 688 166 l 2,22,23
 754 166 754 166 801 213 c 128,-1,24
 848 260 848 260 848 326 c 2,25,-1
 848 998 l 1,26,-1
 1008 998 l 1,27,-1
 1008 326 l 2,8,9
EndSplineSet
Validated: 1
EndChar

StartChar: uF2A67
Encoding: 993895 993895 113
Width: 1248
Flags: W
LayerCount: 2
Fore
SplineSet
1008 326 m 2,0,1
 1008 239 1008 239 965 165.5 c 128,-1,2
 922 92 922 92 848.5 49 c 128,-1,3
 775 6 775 6 688 6 c 2,4,-1
 400 6 l 2,5,6
 313 6 313 6 239.5 49 c 128,-1,7
 166 92 166 92 123 165.5 c 128,-1,8
 80 239 80 239 80 326 c 2,9,-1
 80 998 l 1,10,-1
 240 998 l 1,11,-1
 240 326 l 2,12,13
 240 260 240 260 287 213 c 128,-1,14
 334 166 334 166 400 166 c 2,15,-1
 688 166 l 2,16,17
 754 166 754 166 801 213 c 128,-1,18
 848 260 848 260 848 326 c 2,19,-1
 848 998 l 1,20,-1
 1008 998 l 1,21,-1
 1008 326 l 2,0,1
464 230 m 1,22,-1
 464 1222 l 1,23,-1
 624 1222 l 1,24,-1
 624 230 l 1,25,-1
 464 230 l 1,22,-1
749 1206 m 0,26,27
 722 1236 722 1236 706 1274 c 0,28,29
 688 1318 688 1318 688 1366 c 1,30,-1
 824 1366 l 1,31,32
 824 1345 824 1345 831.5 1326 c 128,-1,33
 839 1307 839 1307 854 1292 c 128,-1,34
 869 1277 869 1277 888 1269.5 c 128,-1,35
 907 1262 907 1262 928 1262 c 128,-1,36
 949 1262 949 1262 968 1269.5 c 128,-1,37
 987 1277 987 1277 1002 1292 c 128,-1,38
 1017 1307 1017 1307 1024.5 1326 c 128,-1,39
 1032 1345 1032 1345 1032 1366 c 1,40,-1
 1168 1366 l 1,41,42
 1168 1318 1168 1318 1150 1274 c 0,43,44
 1134 1236 1134 1236 1107 1206 c 0,45,46
 1103 1201 1103 1201 1098 1196 c 0,47,48
 1064 1162 1064 1162 1020 1144 c 128,-1,49
 976 1126 976 1126 928 1126 c 128,-1,50
 880 1126 880 1126 836 1144.5 c 128,-1,51
 792 1163 792 1163 758 1196 c 0,52,53
 753 1201 753 1201 749 1206 c 0,26,27
EndSplineSet
Validated: 1
EndChar

StartChar: uF2A68
Encoding: 993896 993896 114
Width: 1088
VWidth: 2016
Flags: W
LayerCount: 2
Fore
SplineSet
1008 870 m 2,0,-1
 1008 6 l 1,1,-1
 848 6 l 1,2,-1
 848 550 l 2,3,4
 848 563 848 563 838.5 572.5 c 128,-1,5
 829 582 829 582 816 582 c 2,6,-1
 624 582 l 2,7,8
 611 582 611 582 601.5 572.5 c 128,-1,9
 592 563 592 563 592 550 c 2,10,-1
 592 6 l 1,11,-1
 432 6 l 1,12,-1
 432 550 l 2,13,14
 432 630 432 630 488 686 c 128,-1,15
 544 742 544 742 624 742 c 2,16,-1
 816 742 l 2,17,18
 832 742 832 742 848 739 c 1,19,-1
 848 870 l 2,20,21
 848 936 848 936 801 983 c 128,-1,22
 754 1030 754 1030 688 1030 c 2,23,-1
 400 1030 l 2,24,25
 334 1030 334 1030 287 983 c 128,-1,26
 240 936 240 936 240 870 c 2,27,-1
 240 6 l 1,28,-1
 80 6 l 1,29,-1
 80 870 l 2,30,31
 80 1003 80 1003 173.5 1096.5 c 128,-1,32
 267 1190 267 1190 400 1190 c 2,33,-1
 688 1190 l 2,34,35
 821 1190 821 1190 914.5 1096.5 c 128,-1,36
 1008 1003 1008 1003 1008 870 c 2,0,-1
EndSplineSet
Validated: 1
EndChar

StartChar: uF2A69
Encoding: 993897 993897 115
Width: 1242
VWidth: 2016
Flags: W
LayerCount: 2
Fore
SplineSet
928 1082 m 1,0,1
 1008 991 1008 991 1008 870 c 2,2,-1
 1008 6 l 1,3,-1
 848 6 l 1,4,-1
 848 550 l 2,5,6
 848 563 848 563 838.5 572.5 c 128,-1,7
 829 582 829 582 816 582 c 2,8,-1
 624 582 l 2,9,10
 611 582 611 582 601.5 572.5 c 128,-1,11
 592 563 592 563 592 550 c 2,12,-1
 592 6 l 1,13,-1
 432 6 l 1,14,-1
 432 550 l 2,15,16
 432 630 432 630 488 686 c 128,-1,17
 544 742 544 742 624 742 c 2,18,-1
 816 742 l 2,19,20
 832 742 832 742 848 739 c 1,21,-1
 848 870 l 2,22,23
 848 936 848 936 801 983 c 128,-1,24
 754 1030 754 1030 688 1030 c 2,25,-1
 400 1030 l 2,26,27
 334 1030 334 1030 287 983 c 128,-1,28
 240 936 240 936 240 870 c 2,29,-1
 240 6 l 1,30,-1
 80 6 l 1,31,-1
 80 870 l 2,32,33
 80 1003 80 1003 173.5 1096.5 c 128,-1,34
 267 1190 267 1190 400 1190 c 2,35,-1
 688 1190 l 2,36,37
 737 1190 737 1190 783 1176 c 1,38,-1
 936 1350 l 1,39,-1
 1162 1350 l 1,40,-1
 928 1082 l 1,0,1
EndSplineSet
Validated: 1
EndChar

StartChar: uF2A6A
Encoding: 993898 993898 116
Width: 1248
VWidth: 2016
Flags: W
LayerCount: 2
Fore
SplineSet
916 1094 m 1,0,1
 1008 1001 1008 1001 1008 870 c 2,2,-1
 1008 6 l 1,3,-1
 848 6 l 1,4,-1
 848 550 l 2,5,6
 848 563 848 563 838.5 572.5 c 128,-1,7
 829 582 829 582 816 582 c 2,8,-1
 624 582 l 2,9,10
 611 582 611 582 601.5 572.5 c 128,-1,11
 592 563 592 563 592 550 c 2,12,-1
 592 6 l 1,13,-1
 432 6 l 1,14,-1
 432 550 l 2,15,16
 432 630 432 630 488 686 c 128,-1,17
 544 742 544 742 624 742 c 2,18,-1
 816 742 l 2,19,20
 832 742 832 742 848 739 c 1,21,-1
 848 870 l 2,22,23
 848 936 848 936 801 983 c 128,-1,24
 754 1030 754 1030 688 1030 c 2,25,-1
 400 1030 l 2,26,27
 334 1030 334 1030 287 983 c 128,-1,28
 240 936 240 936 240 870 c 2,29,-1
 240 6 l 1,30,-1
 80 6 l 1,31,-1
 80 870 l 2,32,33
 80 1003 80 1003 173.5 1096.5 c 128,-1,34
 267 1190 267 1190 400 1190 c 2,35,-1
 688 1190 l 2,36,37
 714 1190 714 1190 739 1186 c 1,38,39
 719 1212 719 1212 706 1242 c 0,40,41
 688 1286 688 1286 688 1334 c 1,42,-1
 824 1334 l 1,43,44
 824 1313 824 1313 831.5 1294 c 128,-1,45
 839 1275 839 1275 854 1260 c 128,-1,46
 869 1245 869 1245 888 1237.5 c 128,-1,47
 907 1230 907 1230 928 1230 c 128,-1,48
 949 1230 949 1230 968 1237.5 c 128,-1,49
 987 1245 987 1245 1002 1260 c 128,-1,50
 1017 1275 1017 1275 1024.5 1294 c 128,-1,51
 1032 1313 1032 1313 1032 1334 c 1,52,-1
 1168 1334 l 1,53,54
 1168 1286 1168 1286 1150 1242 c 0,55,56
 1134 1204 1134 1204 1107 1174 c 0,57,58
 1103 1169 1103 1169 1098 1164 c 0,59,60
 1064 1130 1064 1130 1020 1112 c 128,-1,61
 976 1094 976 1094 928 1094 c 0,62,63
 922 1094 922 1094 916 1094 c 1,0,1
EndSplineSet
Validated: 1
EndChar

StartChar: uF2A6B
Encoding: 993899 993899 117
Width: 1088
Flags: W
LayerCount: 2
Fore
SplineSet
144 -218 m 1,0,-1
 144 -58 l 1,1,-1
 912 -58 l 1,2,-1
 912 -218 l 1,3,-1
 144 -218 l 1,0,-1
464 230 m 1,4,-1
 464 1222 l 1,5,-1
 624 1222 l 1,6,-1
 624 230 l 1,7,-1
 464 230 l 1,4,-1
1008 326 m 2,8,9
 1008 193 1008 193 914.5 99.5 c 128,-1,10
 821 6 821 6 688 6 c 2,11,-1
 400 6 l 2,12,13
 267 6 267 6 173.5 99.5 c 128,-1,14
 80 193 80 193 80 326 c 2,15,-1
 80 998 l 1,16,-1
 240 998 l 1,17,-1
 240 326 l 2,18,19
 240 260 240 260 287 213 c 128,-1,20
 334 166 334 166 400 166 c 2,21,-1
 688 166 l 2,22,23
 754 166 754 166 801 213 c 128,-1,24
 848 260 848 260 848 326 c 2,25,-1
 848 998 l 1,26,-1
 1008 998 l 1,27,-1
 1008 326 l 2,8,9
EndSplineSet
Validated: 1
EndChar

StartChar: uF2A6C
Encoding: 993900 993900 118
Width: 1242
Flags: W
LayerCount: 2
Fore
SplineSet
1162 1382 m 1,0,-1
 882 1062 l 1,1,-1
 656 1062 l 1,2,-1
 936 1382 l 1,3,-1
 1162 1382 l 1,0,-1
144 -218 m 1,4,-1
 144 -58 l 1,5,-1
 912 -58 l 1,6,-1
 912 -218 l 1,7,-1
 144 -218 l 1,4,-1
464 230 m 1,8,-1
 464 1222 l 1,9,-1
 624 1222 l 1,10,-1
 624 230 l 1,11,-1
 464 230 l 1,8,-1
1008 326 m 2,12,13
 1008 193 1008 193 914.5 99.5 c 128,-1,14
 821 6 821 6 688 6 c 2,15,-1
 400 6 l 2,16,17
 267 6 267 6 173.5 99.5 c 128,-1,18
 80 193 80 193 80 326 c 2,19,-1
 80 998 l 1,20,-1
 240 998 l 1,21,-1
 240 326 l 2,22,23
 240 260 240 260 287 213 c 128,-1,24
 334 166 334 166 400 166 c 2,25,-1
 688 166 l 2,26,27
 754 166 754 166 801 213 c 128,-1,28
 848 260 848 260 848 326 c 2,29,-1
 848 998 l 1,30,-1
 1008 998 l 1,31,-1
 1008 326 l 2,12,13
EndSplineSet
Validated: 1
EndChar

StartChar: uF2A6D
Encoding: 993901 993901 119
Width: 1248
Flags: W
LayerCount: 2
Fore
SplineSet
144 -218 m 1,0,-1
 144 -58 l 1,1,-1
 912 -58 l 1,2,-1
 912 -218 l 1,3,-1
 144 -218 l 1,0,-1
749 1206 m 0,4,5
 722 1236 722 1236 706 1274 c 0,6,7
 688 1318 688 1318 688 1366 c 1,8,-1
 824 1366 l 1,9,10
 824 1345 824 1345 831.5 1326 c 128,-1,11
 839 1307 839 1307 854 1292 c 128,-1,12
 869 1277 869 1277 888 1269.5 c 128,-1,13
 907 1262 907 1262 928 1262 c 128,-1,14
 949 1262 949 1262 968 1269.5 c 128,-1,15
 987 1277 987 1277 1002 1292 c 128,-1,16
 1017 1307 1017 1307 1024.5 1326 c 128,-1,17
 1032 1345 1032 1345 1032 1366 c 1,18,-1
 1168 1366 l 1,19,20
 1168 1318 1168 1318 1150 1274 c 0,21,22
 1134 1236 1134 1236 1107 1206 c 0,23,24
 1103 1201 1103 1201 1098 1196 c 0,25,26
 1064 1162 1064 1162 1020 1144 c 128,-1,27
 976 1126 976 1126 928 1126 c 128,-1,28
 880 1126 880 1126 836 1144.5 c 128,-1,29
 792 1163 792 1163 758 1196 c 0,30,31
 753 1201 753 1201 749 1206 c 0,4,5
464 230 m 1,32,-1
 464 1222 l 1,33,-1
 624 1222 l 1,34,-1
 624 230 l 1,35,-1
 464 230 l 1,32,-1
1008 326 m 2,36,37
 1008 193 1008 193 914.5 99.5 c 128,-1,38
 821 6 821 6 688 6 c 2,39,-1
 400 6 l 2,40,41
 267 6 267 6 173.5 99.5 c 128,-1,42
 80 193 80 193 80 326 c 2,43,-1
 80 998 l 1,44,-1
 240 998 l 1,45,-1
 240 326 l 2,46,47
 240 260 240 260 287 213 c 128,-1,48
 334 166 334 166 400 166 c 2,49,-1
 688 166 l 2,50,51
 754 166 754 166 801 213 c 128,-1,52
 848 260 848 260 848 326 c 2,53,-1
 848 998 l 1,54,-1
 1008 998 l 1,55,-1
 1008 326 l 2,36,37
EndSplineSet
Validated: 1
EndChar

StartChar: uF2A6E
Encoding: 993902 993902 120
Width: 1088
VWidth: 2016
Flags: W
LayerCount: 2
Fore
SplineSet
1008 870 m 2,0,-1
 1008 6 l 1,1,-1
 848 6 l 1,2,-1
 848 550 l 2,3,4
 848 563 848 563 838.5 572.5 c 128,-1,5
 829 582 829 582 816 582 c 2,6,-1
 624 582 l 2,7,8
 611 582 611 582 601.5 572.5 c 128,-1,9
 592 563 592 563 592 550 c 2,10,-1
 592 6 l 1,11,-1
 432 6 l 1,12,-1
 432 550 l 2,13,14
 432 630 432 630 488 686 c 128,-1,15
 544 742 544 742 624 742 c 2,16,-1
 816 742 l 2,17,18
 832 742 832 742 848 739 c 1,19,-1
 848 870 l 2,20,21
 848 936 848 936 801 983 c 128,-1,22
 754 1030 754 1030 688 1030 c 2,23,-1
 400 1030 l 2,24,25
 334 1030 334 1030 287 983 c 128,-1,26
 240 936 240 936 240 870 c 2,27,-1
 240 6 l 1,28,-1
 80 6 l 1,29,-1
 80 870 l 2,30,31
 80 1003 80 1003 173.5 1096.5 c 128,-1,32
 267 1190 267 1190 400 1190 c 2,33,-1
 688 1190 l 2,34,35
 821 1190 821 1190 914.5 1096.5 c 128,-1,36
 1008 1003 1008 1003 1008 870 c 2,0,-1
144 -250 m 1,37,-1
 144 -90 l 1,38,-1
 912 -90 l 1,39,-1
 912 -250 l 1,40,-1
 144 -250 l 1,37,-1
EndSplineSet
Validated: 1
EndChar

StartChar: uF2A6F
Encoding: 993903 993903 121
Width: 1242
VWidth: 2016
Flags: W
LayerCount: 2
Fore
SplineSet
928 1082 m 1,0,1
 1008 991 1008 991 1008 870 c 2,2,-1
 1008 6 l 1,3,-1
 848 6 l 1,4,-1
 848 550 l 2,5,6
 848 563 848 563 838.5 572.5 c 128,-1,7
 829 582 829 582 816 582 c 2,8,-1
 624 582 l 2,9,10
 611 582 611 582 601.5 572.5 c 128,-1,11
 592 563 592 563 592 550 c 2,12,-1
 592 6 l 1,13,-1
 432 6 l 1,14,-1
 432 550 l 2,15,16
 432 630 432 630 488 686 c 128,-1,17
 544 742 544 742 624 742 c 2,18,-1
 816 742 l 2,19,20
 832 742 832 742 848 739 c 1,21,-1
 848 870 l 2,22,23
 848 936 848 936 801 983 c 128,-1,24
 754 1030 754 1030 688 1030 c 2,25,-1
 400 1030 l 2,26,27
 334 1030 334 1030 287 983 c 128,-1,28
 240 936 240 936 240 870 c 2,29,-1
 240 6 l 1,30,-1
 80 6 l 1,31,-1
 80 870 l 2,32,33
 80 1003 80 1003 173.5 1096.5 c 128,-1,34
 267 1190 267 1190 400 1190 c 2,35,-1
 688 1190 l 2,36,37
 737 1190 737 1190 783 1176 c 1,38,-1
 936 1350 l 1,39,-1
 1162 1350 l 1,40,-1
 928 1082 l 1,0,1
144 -250 m 1,41,-1
 144 -90 l 1,42,-1
 912 -90 l 1,43,-1
 912 -250 l 1,44,-1
 144 -250 l 1,41,-1
EndSplineSet
Validated: 1
EndChar

StartChar: uF2A70
Encoding: 993904 993904 122
Width: 1248
VWidth: 2016
Flags: W
LayerCount: 2
Fore
SplineSet
144 -250 m 1,0,-1
 144 -90 l 1,1,-1
 912 -90 l 1,2,-1
 912 -250 l 1,3,-1
 144 -250 l 1,0,-1
916 1094 m 1,4,5
 1008 1001 1008 1001 1008 870 c 2,6,-1
 1008 6 l 1,7,-1
 848 6 l 1,8,-1
 848 550 l 2,9,10
 848 563 848 563 838.5 572.5 c 128,-1,11
 829 582 829 582 816 582 c 2,12,-1
 624 582 l 2,13,14
 611 582 611 582 601.5 572.5 c 128,-1,15
 592 563 592 563 592 550 c 2,16,-1
 592 6 l 1,17,-1
 432 6 l 1,18,-1
 432 550 l 2,19,20
 432 630 432 630 488 686 c 128,-1,21
 544 742 544 742 624 742 c 2,22,-1
 816 742 l 2,23,24
 832 742 832 742 848 739 c 1,25,-1
 848 870 l 2,26,27
 848 936 848 936 801 983 c 128,-1,28
 754 1030 754 1030 688 1030 c 2,29,-1
 400 1030 l 2,30,31
 334 1030 334 1030 287 983 c 128,-1,32
 240 936 240 936 240 870 c 2,33,-1
 240 6 l 1,34,-1
 80 6 l 1,35,-1
 80 870 l 2,36,37
 80 1003 80 1003 173.5 1096.5 c 128,-1,38
 267 1190 267 1190 400 1190 c 2,39,-1
 688 1190 l 2,40,41
 714 1190 714 1190 739 1186 c 1,42,43
 719 1212 719 1212 706 1242 c 0,44,45
 688 1286 688 1286 688 1334 c 1,46,-1
 824 1334 l 1,47,48
 824 1313 824 1313 831.5 1294 c 128,-1,49
 839 1275 839 1275 854 1260 c 128,-1,50
 869 1245 869 1245 888 1237.5 c 128,-1,51
 907 1230 907 1230 928 1230 c 128,-1,52
 949 1230 949 1230 968 1237.5 c 128,-1,53
 987 1245 987 1245 1002 1260 c 128,-1,54
 1017 1275 1017 1275 1024.5 1294 c 128,-1,55
 1032 1313 1032 1313 1032 1334 c 1,56,-1
 1168 1334 l 1,57,58
 1168 1286 1168 1286 1150 1242 c 0,59,60
 1134 1204 1134 1204 1107 1174 c 0,61,62
 1103 1169 1103 1169 1098 1164 c 0,63,64
 1064 1130 1064 1130 1020 1112 c 128,-1,65
 976 1094 976 1094 928 1094 c 0,66,67
 922 1094 922 1094 916 1094 c 1,4,5
EndSplineSet
Validated: 1
EndChar

StartChar: uF2A71
Encoding: 993905 993905 123
Width: 1088
Flags: W
LayerCount: 2
Fore
SplineSet
400 -154 m 128,-1,1
 400 -101 400 -101 437.5 -63.5 c 128,-1,2
 475 -26 475 -26 528 -26 c 128,-1,3
 581 -26 581 -26 618.5 -63.5 c 128,-1,4
 656 -101 656 -101 656 -154 c 128,-1,5
 656 -207 656 -207 618.5 -244.5 c 128,-1,6
 581 -282 581 -282 528 -282 c 128,-1,7
 475 -282 475 -282 437.5 -244.5 c 128,-1,0
 400 -207 400 -207 400 -154 c 128,-1,1
464 230 m 1,8,-1
 464 1222 l 1,9,-1
 624 1222 l 1,10,-1
 624 230 l 1,11,-1
 464 230 l 1,8,-1
1008 326 m 2,12,13
 1008 193 1008 193 914.5 99.5 c 128,-1,14
 821 6 821 6 688 6 c 2,15,-1
 400 6 l 2,16,17
 267 6 267 6 173.5 99.5 c 128,-1,18
 80 193 80 193 80 326 c 2,19,-1
 80 998 l 1,20,-1
 240 998 l 1,21,-1
 240 326 l 2,22,23
 240 260 240 260 287 213 c 128,-1,24
 334 166 334 166 400 166 c 2,25,-1
 688 166 l 2,26,27
 754 166 754 166 801 213 c 128,-1,28
 848 260 848 260 848 326 c 2,29,-1
 848 998 l 1,30,-1
 1008 998 l 1,31,-1
 1008 326 l 2,12,13
EndSplineSet
Validated: 1
EndChar

StartChar: uF2A72
Encoding: 993906 993906 124
Width: 1242
Flags: W
LayerCount: 2
Fore
SplineSet
1162 1382 m 1,0,-1
 882 1062 l 1,1,-1
 656 1062 l 1,2,-1
 936 1382 l 1,3,-1
 1162 1382 l 1,0,-1
400 -154 m 128,-1,5
 400 -101 400 -101 437.5 -63.5 c 128,-1,6
 475 -26 475 -26 528 -26 c 128,-1,7
 581 -26 581 -26 618.5 -63.5 c 128,-1,8
 656 -101 656 -101 656 -154 c 128,-1,9
 656 -207 656 -207 618.5 -244.5 c 128,-1,10
 581 -282 581 -282 528 -282 c 128,-1,11
 475 -282 475 -282 437.5 -244.5 c 128,-1,4
 400 -207 400 -207 400 -154 c 128,-1,5
464 230 m 1,12,-1
 464 1222 l 1,13,-1
 624 1222 l 1,14,-1
 624 230 l 1,15,-1
 464 230 l 1,12,-1
1008 326 m 2,16,17
 1008 193 1008 193 914.5 99.5 c 128,-1,18
 821 6 821 6 688 6 c 2,19,-1
 400 6 l 2,20,21
 267 6 267 6 173.5 99.5 c 128,-1,22
 80 193 80 193 80 326 c 2,23,-1
 80 998 l 1,24,-1
 240 998 l 1,25,-1
 240 326 l 2,26,27
 240 260 240 260 287 213 c 128,-1,28
 334 166 334 166 400 166 c 2,29,-1
 688 166 l 2,30,31
 754 166 754 166 801 213 c 128,-1,32
 848 260 848 260 848 326 c 2,33,-1
 848 998 l 1,34,-1
 1008 998 l 1,35,-1
 1008 326 l 2,16,17
EndSplineSet
Validated: 1
EndChar

StartChar: uF2A73
Encoding: 993907 993907 125
Width: 1248
Flags: W
LayerCount: 2
Fore
SplineSet
749 1206 m 0,0,1
 722 1236 722 1236 706 1274 c 0,2,3
 688 1318 688 1318 688 1366 c 1,4,-1
 824 1366 l 1,5,6
 824 1345 824 1345 831.5 1326 c 128,-1,7
 839 1307 839 1307 854 1292 c 128,-1,8
 869 1277 869 1277 888 1269.5 c 128,-1,9
 907 1262 907 1262 928 1262 c 128,-1,10
 949 1262 949 1262 968 1269.5 c 128,-1,11
 987 1277 987 1277 1002 1292 c 128,-1,12
 1017 1307 1017 1307 1024.5 1326 c 128,-1,13
 1032 1345 1032 1345 1032 1366 c 1,14,-1
 1168 1366 l 1,15,16
 1168 1318 1168 1318 1150 1274 c 0,17,18
 1134 1236 1134 1236 1107 1206 c 0,19,20
 1103 1201 1103 1201 1098 1196 c 0,21,22
 1064 1162 1064 1162 1020 1144 c 128,-1,23
 976 1126 976 1126 928 1126 c 128,-1,24
 880 1126 880 1126 836 1144.5 c 128,-1,25
 792 1163 792 1163 758 1196 c 0,26,27
 753 1201 753 1201 749 1206 c 0,0,1
464 230 m 1,28,-1
 464 1222 l 1,29,-1
 624 1222 l 1,30,-1
 624 230 l 1,31,-1
 464 230 l 1,28,-1
1008 326 m 2,32,33
 1008 193 1008 193 914.5 99.5 c 128,-1,34
 821 6 821 6 688 6 c 2,35,-1
 400 6 l 2,36,37
 267 6 267 6 173.5 99.5 c 128,-1,38
 80 193 80 193 80 326 c 2,39,-1
 80 998 l 1,40,-1
 240 998 l 1,41,-1
 240 326 l 2,42,43
 240 260 240 260 287 213 c 128,-1,44
 334 166 334 166 400 166 c 2,45,-1
 688 166 l 2,46,47
 754 166 754 166 801 213 c 128,-1,48
 848 260 848 260 848 326 c 2,49,-1
 848 998 l 1,50,-1
 1008 998 l 1,51,-1
 1008 326 l 2,32,33
400 -154 m 128,-1,53
 400 -101 400 -101 437.5 -63.5 c 128,-1,54
 475 -26 475 -26 528 -26 c 128,-1,55
 581 -26 581 -26 618.5 -63.5 c 128,-1,56
 656 -101 656 -101 656 -154 c 128,-1,57
 656 -207 656 -207 618.5 -244.5 c 128,-1,58
 581 -282 581 -282 528 -282 c 128,-1,59
 475 -282 475 -282 437.5 -244.5 c 128,-1,52
 400 -207 400 -207 400 -154 c 128,-1,53
EndSplineSet
Validated: 1
EndChar

StartChar: uF2A74
Encoding: 993908 993908 126
Width: 1088
VWidth: 2016
Flags: W
LayerCount: 2
Fore
SplineSet
1008 870 m 2,0,-1
 1008 6 l 1,1,-1
 848 6 l 1,2,-1
 848 550 l 2,3,4
 848 563 848 563 838.5 572.5 c 128,-1,5
 829 582 829 582 816 582 c 2,6,-1
 624 582 l 2,7,8
 611 582 611 582 601.5 572.5 c 128,-1,9
 592 563 592 563 592 550 c 2,10,-1
 592 6 l 1,11,-1
 432 6 l 1,12,-1
 432 550 l 2,13,14
 432 630 432 630 488 686 c 128,-1,15
 544 742 544 742 624 742 c 2,16,-1
 816 742 l 2,17,18
 832 742 832 742 848 739 c 1,19,-1
 848 870 l 2,20,21
 848 936 848 936 801 983 c 128,-1,22
 754 1030 754 1030 688 1030 c 2,23,-1
 400 1030 l 2,24,25
 334 1030 334 1030 287 983 c 128,-1,26
 240 936 240 936 240 870 c 2,27,-1
 240 6 l 1,28,-1
 80 6 l 1,29,-1
 80 870 l 2,30,31
 80 1003 80 1003 173.5 1096.5 c 128,-1,32
 267 1190 267 1190 400 1190 c 2,33,-1
 688 1190 l 2,34,35
 821 1190 821 1190 914.5 1096.5 c 128,-1,36
 1008 1003 1008 1003 1008 870 c 2,0,-1
400 -186 m 128,-1,38
 400 -133 400 -133 437.5 -95.5 c 128,-1,39
 475 -58 475 -58 528 -58 c 128,-1,40
 581 -58 581 -58 618.5 -95.5 c 128,-1,41
 656 -133 656 -133 656 -186 c 128,-1,42
 656 -239 656 -239 618.5 -276.5 c 128,-1,43
 581 -314 581 -314 528 -314 c 128,-1,44
 475 -314 475 -314 437.5 -276.5 c 128,-1,37
 400 -239 400 -239 400 -186 c 128,-1,38
EndSplineSet
Validated: 1
EndChar

StartChar: uF2A75
Encoding: 993909 993909 127
Width: 1242
VWidth: 2016
Flags: W
LayerCount: 2
Fore
SplineSet
928 1082 m 1,0,1
 1008 991 1008 991 1008 870 c 2,2,-1
 1008 6 l 1,3,-1
 848 6 l 1,4,-1
 848 550 l 2,5,6
 848 563 848 563 838.5 572.5 c 128,-1,7
 829 582 829 582 816 582 c 2,8,-1
 624 582 l 2,9,10
 611 582 611 582 601.5 572.5 c 128,-1,11
 592 563 592 563 592 550 c 2,12,-1
 592 6 l 1,13,-1
 432 6 l 1,14,-1
 432 550 l 2,15,16
 432 630 432 630 488 686 c 128,-1,17
 544 742 544 742 624 742 c 2,18,-1
 816 742 l 2,19,20
 832 742 832 742 848 739 c 1,21,-1
 848 870 l 2,22,23
 848 936 848 936 801 983 c 128,-1,24
 754 1030 754 1030 688 1030 c 2,25,-1
 400 1030 l 2,26,27
 334 1030 334 1030 287 983 c 128,-1,28
 240 936 240 936 240 870 c 2,29,-1
 240 6 l 1,30,-1
 80 6 l 1,31,-1
 80 870 l 2,32,33
 80 1003 80 1003 173.5 1096.5 c 128,-1,34
 267 1190 267 1190 400 1190 c 2,35,-1
 688 1190 l 2,36,37
 737 1190 737 1190 783 1176 c 1,38,-1
 936 1350 l 1,39,-1
 1162 1350 l 1,40,-1
 928 1082 l 1,0,1
400 -186 m 128,-1,42
 400 -133 400 -133 437.5 -95.5 c 128,-1,43
 475 -58 475 -58 528 -58 c 128,-1,44
 581 -58 581 -58 618.5 -95.5 c 128,-1,45
 656 -133 656 -133 656 -186 c 128,-1,46
 656 -239 656 -239 618.5 -276.5 c 128,-1,47
 581 -314 581 -314 528 -314 c 128,-1,48
 475 -314 475 -314 437.5 -276.5 c 128,-1,41
 400 -239 400 -239 400 -186 c 128,-1,42
EndSplineSet
Validated: 1
EndChar

StartChar: uF2A76
Encoding: 993910 993910 128
Width: 1248
VWidth: 2016
Flags: W
LayerCount: 2
Fore
SplineSet
916 1094 m 1,0,1
 1008 1001 1008 1001 1008 870 c 2,2,-1
 1008 6 l 1,3,-1
 848 6 l 1,4,-1
 848 550 l 2,5,6
 848 563 848 563 838.5 572.5 c 128,-1,7
 829 582 829 582 816 582 c 2,8,-1
 624 582 l 2,9,10
 611 582 611 582 601.5 572.5 c 128,-1,11
 592 563 592 563 592 550 c 2,12,-1
 592 6 l 1,13,-1
 432 6 l 1,14,-1
 432 550 l 2,15,16
 432 630 432 630 488 686 c 128,-1,17
 544 742 544 742 624 742 c 2,18,-1
 816 742 l 2,19,20
 832 742 832 742 848 739 c 1,21,-1
 848 870 l 2,22,23
 848 936 848 936 801 983 c 128,-1,24
 754 1030 754 1030 688 1030 c 2,25,-1
 400 1030 l 2,26,27
 334 1030 334 1030 287 983 c 128,-1,28
 240 936 240 936 240 870 c 2,29,-1
 240 6 l 1,30,-1
 80 6 l 1,31,-1
 80 870 l 2,32,33
 80 1003 80 1003 173.5 1096.5 c 128,-1,34
 267 1190 267 1190 400 1190 c 2,35,-1
 688 1190 l 2,36,37
 714 1190 714 1190 739 1186 c 1,38,39
 719 1212 719 1212 706 1242 c 0,40,41
 688 1286 688 1286 688 1334 c 1,42,-1
 824 1334 l 1,43,44
 824 1313 824 1313 831.5 1294 c 128,-1,45
 839 1275 839 1275 854 1260 c 128,-1,46
 869 1245 869 1245 888 1237.5 c 128,-1,47
 907 1230 907 1230 928 1230 c 128,-1,48
 949 1230 949 1230 968 1237.5 c 128,-1,49
 987 1245 987 1245 1002 1260 c 128,-1,50
 1017 1275 1017 1275 1024.5 1294 c 128,-1,51
 1032 1313 1032 1313 1032 1334 c 1,52,-1
 1168 1334 l 1,53,54
 1168 1286 1168 1286 1150 1242 c 0,55,56
 1134 1204 1134 1204 1107 1174 c 0,57,58
 1103 1169 1103 1169 1098 1164 c 0,59,60
 1064 1130 1064 1130 1020 1112 c 128,-1,61
 976 1094 976 1094 928 1094 c 0,62,63
 922 1094 922 1094 916 1094 c 1,0,1
400 -186 m 128,-1,65
 400 -133 400 -133 437.5 -95.5 c 128,-1,66
 475 -58 475 -58 528 -58 c 128,-1,67
 581 -58 581 -58 618.5 -95.5 c 128,-1,68
 656 -133 656 -133 656 -186 c 128,-1,69
 656 -239 656 -239 618.5 -276.5 c 128,-1,70
 581 -314 581 -314 528 -314 c 128,-1,71
 475 -314 475 -314 437.5 -276.5 c 128,-1,64
 400 -239 400 -239 400 -186 c 128,-1,65
EndSplineSet
Validated: 1
EndChar

StartChar: uF2A77
Encoding: 993911 993911 129
Width: 1408
Flags: W
LayerCount: 2
Fore
SplineSet
816 1062 m 1,0,-1
 656 1062 l 1,1,-1
 656 1334 l 2,2,3
 656 1394 656 1394 698 1436 c 128,-1,4
 740 1478 740 1478 800 1478 c 2,5,-1
 1184 1478 l 2,6,7
 1244 1478 1244 1478 1286 1436 c 128,-1,8
 1328 1394 1328 1394 1328 1334 c 2,9,-1
 1328 1062 l 1,10,-1
 1328 6 l 1,11,-1
 1168 6 l 1,12,-1
 1168 1062 l 1,13,-1
 1168 1318 l 1,14,-1
 816 1318 l 1,15,-1
 816 1062 l 1,0,-1
464 230 m 1,16,-1
 464 1222 l 1,17,-1
 624 1222 l 1,18,-1
 624 230 l 1,19,-1
 464 230 l 1,16,-1
1008 326 m 2,20,21
 1008 193 1008 193 914.5 99.5 c 128,-1,22
 821 6 821 6 688 6 c 2,23,-1
 400 6 l 2,24,25
 267 6 267 6 173.5 99.5 c 128,-1,26
 80 193 80 193 80 326 c 2,27,-1
 80 998 l 1,28,-1
 240 998 l 1,29,-1
 240 326 l 2,30,31
 240 260 240 260 287 213 c 128,-1,32
 334 166 334 166 400 166 c 2,33,-1
 688 166 l 2,34,35
 754 166 754 166 801 213 c 128,-1,36
 848 260 848 260 848 326 c 2,37,-1
 848 998 l 1,38,-1
 1008 998 l 1,39,-1
 1008 326 l 2,20,21
EndSplineSet
Validated: 1
EndChar

StartChar: uF2A78
Encoding: 993912 993912 130
Width: 1626
Flags: W
LayerCount: 2
Fore
SplineSet
1321 1380 m 1,0,1
 1328 1358 1328 1358 1328 1334 c 2,2,-1
 1328 6 l 1,3,-1
 1168 6 l 1,4,-1
 1168 1318 l 1,5,-1
 816 1318 l 1,6,-1
 816 1062 l 1,7,-1
 656 1062 l 1,8,-1
 656 1334 l 2,9,10
 656 1394 656 1394 698 1436 c 128,-1,11
 740 1478 740 1478 800 1478 c 2,12,-1
 1180 1478 l 1,13,-1
 1320 1638 l 1,14,-1
 1546 1638 l 1,15,-1
 1321 1380 l 1,0,1
464 230 m 1,16,-1
 464 1222 l 1,17,-1
 624 1222 l 1,18,-1
 624 230 l 1,19,-1
 464 230 l 1,16,-1
1008 326 m 2,20,21
 1008 193 1008 193 914.5 99.5 c 128,-1,22
 821 6 821 6 688 6 c 2,23,-1
 400 6 l 2,24,25
 267 6 267 6 173.5 99.5 c 128,-1,26
 80 193 80 193 80 326 c 2,27,-1
 80 998 l 1,28,-1
 240 998 l 1,29,-1
 240 326 l 2,30,31
 240 260 240 260 287 213 c 128,-1,32
 334 166 334 166 400 166 c 2,33,-1
 688 166 l 2,34,35
 754 166 754 166 801 213 c 128,-1,36
 848 260 848 260 848 326 c 2,37,-1
 848 998 l 1,38,-1
 1008 998 l 1,39,-1
 1008 326 l 2,20,21
EndSplineSet
Validated: 1
EndChar

StartChar: uF2A79
Encoding: 993913 993913 131
Width: 1563
Flags: W
LayerCount: 2
Fore
SplineSet
1101 1478 m 0,0,1
 1101 1523 1101 1523 1118 1564 c 128,-1,2
 1135 1605 1135 1605 1166 1636 c 1,3,-1
 1256 1547 l 1,4,5
 1242 1533 1242 1533 1234.5 1515 c 128,-1,6
 1227 1497 1227 1497 1227 1478 c 128,-1,7
 1227 1459 1227 1459 1234.5 1441 c 128,-1,8
 1242 1423 1242 1423 1256 1409 c 128,-1,9
 1270 1395 1270 1395 1287.5 1388 c 128,-1,10
 1305 1381 1305 1381 1324.5 1381 c 128,-1,11
 1344 1381 1344 1381 1362 1388 c 128,-1,12
 1380 1395 1380 1395 1394 1409 c 1,13,-1
 1483 1320 l 1,14,15
 1451 1288 1451 1288 1410 1271 c 128,-1,16
 1369 1254 1369 1254 1325 1254 c 0,17,18
 1324 1254 1324 1254 1322 1254 c 0,19,20
 1292 1254 1292 1254 1264 1262 c 1,21,-1
 1264 6 l 1,22,-1
 1104 6 l 1,23,-1
 1104 1286 l 1,24,-1
 816 1286 l 1,25,-1
 816 1126 l 1,26,-1
 656 1126 l 1,27,-1
 656 1302 l 2,28,29
 656 1362 656 1362 698 1404 c 128,-1,30
 740 1446 740 1446 800 1446 c 2,31,-1
 1103 1446 l 1,32,33
 1101 1461 1101 1461 1101 1476 c 0,34,35
 1101 1477 1101 1477 1101 1478 c 0,0,1
464 230 m 1,36,-1
 464 1222 l 1,37,-1
 624 1222 l 1,38,-1
 624 230 l 1,39,-1
 464 230 l 1,36,-1
1008 326 m 2,40,41
 1008 239 1008 239 965 165.5 c 128,-1,42
 922 92 922 92 848.5 49 c 128,-1,43
 775 6 775 6 688 6 c 2,44,-1
 400 6 l 2,45,46
 313 6 313 6 239.5 49 c 128,-1,47
 166 92 166 92 123 165.5 c 128,-1,48
 80 239 80 239 80 326 c 2,49,-1
 80 998 l 1,50,-1
 240 998 l 1,51,-1
 240 326 l 2,52,53
 240 260 240 260 287 213 c 128,-1,54
 334 166 334 166 400 166 c 2,55,-1
 688 166 l 2,56,57
 754 166 754 166 801 213 c 128,-1,58
 848 260 848 260 848 326 c 2,59,-1
 848 998 l 1,60,-1
 1008 998 l 1,61,-1
 1008 326 l 2,40,41
EndSplineSet
Validated: 1
EndChar

StartChar: uF2A7A
Encoding: 993914 993914 132
Width: 1408
Flags: W
LayerCount: 2
Fore
SplineSet
656 1190 m 1,0,-1
 656 1302 l 2,1,2
 656 1362 656 1362 698 1404 c 128,-1,3
 740 1446 740 1446 800 1446 c 2,4,-1
 1184 1446 l 2,5,6
 1244 1446 1244 1446 1286 1404 c 128,-1,7
 1328 1362 1328 1362 1328 1302 c 2,8,-1
 1328 6 l 1,9,-1
 1168 6 l 1,10,-1
 1168 1286 l 1,11,-1
 816 1286 l 1,12,-1
 816 1163 l 1,13,14
 902 1125 902 1125 955 1046 c 128,-1,15
 1008 967 1008 967 1008 870 c 2,16,-1
 1008 6 l 1,17,-1
 848 6 l 1,18,-1
 848 550 l 2,19,20
 848 563 848 563 838.5 572.5 c 128,-1,21
 829 582 829 582 816 582 c 2,22,-1
 624 582 l 2,23,24
 611 582 611 582 601.5 572.5 c 128,-1,25
 592 563 592 563 592 550 c 2,26,-1
 592 6 l 1,27,-1
 432 6 l 1,28,-1
 432 550 l 2,29,30
 432 630 432 630 488 686 c 128,-1,31
 544 742 544 742 624 742 c 2,32,-1
 816 742 l 2,33,34
 832 742 832 742 848 739 c 1,35,-1
 848 870 l 2,36,37
 848 936 848 936 801 983 c 128,-1,38
 754 1030 754 1030 688 1030 c 2,39,-1
 400 1030 l 2,40,41
 334 1030 334 1030 287 983 c 128,-1,42
 240 936 240 936 240 870 c 2,43,-1
 240 6 l 1,44,-1
 80 6 l 1,45,-1
 80 870 l 2,46,47
 80 1003 80 1003 173.5 1096.5 c 128,-1,48
 267 1190 267 1190 400 1190 c 2,49,-1
 656 1190 l 1,0,-1
EndSplineSet
Validated: 1
EndChar

StartChar: uF2A7B
Encoding: 993915 993915 133
Width: 1626
Flags: W
LayerCount: 2
Fore
SplineSet
1546 1606 m 1,0,-1
 1321 1348 l 1,1,2
 1328 1326 1328 1326 1328 1302 c 2,3,-1
 1328 6 l 1,4,-1
 1168 6 l 1,5,-1
 1168 1286 l 1,6,-1
 816 1286 l 1,7,-1
 816 1163 l 1,8,9
 902 1125 902 1125 955 1046 c 128,-1,10
 1008 967 1008 967 1008 870 c 2,11,-1
 1008 6 l 1,12,-1
 848 6 l 1,13,-1
 848 550 l 2,14,15
 848 563 848 563 838.5 572.5 c 128,-1,16
 829 582 829 582 816 582 c 2,17,-1
 624 582 l 2,18,19
 611 582 611 582 601.5 572.5 c 128,-1,20
 592 563 592 563 592 550 c 2,21,-1
 592 6 l 1,22,-1
 432 6 l 1,23,-1
 432 550 l 2,24,25
 432 630 432 630 488 686 c 128,-1,26
 544 742 544 742 624 742 c 2,27,-1
 816 742 l 2,28,29
 832 742 832 742 848 739 c 1,30,-1
 848 870 l 2,31,32
 848 936 848 936 801 983 c 128,-1,33
 754 1030 754 1030 688 1030 c 2,34,-1
 400 1030 l 2,35,36
 334 1030 334 1030 287 983 c 128,-1,37
 240 936 240 936 240 870 c 2,38,-1
 240 6 l 1,39,-1
 80 6 l 1,40,-1
 80 870 l 2,41,42
 80 1003 80 1003 173.5 1096.5 c 128,-1,43
 267 1190 267 1190 400 1190 c 2,44,-1
 656 1190 l 1,45,-1
 656 1302 l 2,46,47
 656 1362 656 1362 698 1404 c 128,-1,48
 740 1446 740 1446 800 1446 c 2,49,-1
 1180 1446 l 1,50,-1
 1320 1606 l 1,51,-1
 1546 1606 l 1,0,-1
EndSplineSet
Validated: 1
EndChar

StartChar: uF2A7C
Encoding: 993916 993916 134
Width: 1627
Flags: W
LayerCount: 2
Fore
SplineSet
1328 6 m 1,0,-1
 1168 6 l 1,1,-1
 1168 1126 l 1,2,-1
 1168 1257 l 1,3,-1
 880 1257 l 1,4,-1
 880 1126 l 1,5,6
 939 1081 939 1081 973.5 1014 c 128,-1,7
 1008 947 1008 947 1008 870 c 2,8,-1
 1008 6 l 1,9,-1
 848 6 l 1,10,-1
 848 550 l 2,11,12
 848 563 848 563 838.5 572.5 c 128,-1,13
 829 582 829 582 816 582 c 2,14,-1
 624 582 l 2,15,16
 611 582 611 582 601.5 572.5 c 128,-1,17
 592 563 592 563 592 550 c 2,18,-1
 592 6 l 1,19,-1
 432 6 l 1,20,-1
 432 550 l 2,21,22
 432 630 432 630 488 686 c 128,-1,23
 544 742 544 742 624 742 c 2,24,-1
 816 742 l 2,25,26
 832 742 832 742 848 739 c 1,27,-1
 848 870 l 2,28,29
 848 936 848 936 801 983 c 128,-1,30
 754 1030 754 1030 688 1030 c 2,31,-1
 400 1030 l 2,32,33
 334 1030 334 1030 287 983 c 128,-1,34
 240 936 240 936 240 870 c 2,35,-1
 240 6 l 1,36,-1
 80 6 l 1,37,-1
 80 870 l 2,38,39
 80 1003 80 1003 173.5 1096.5 c 128,-1,40
 267 1190 267 1190 400 1190 c 2,41,-1
 688 1190 l 2,42,43
 704 1190 704 1190 720 1188 c 1,44,-1
 720 1273 l 2,45,46
 720 1333 720 1333 762 1375 c 128,-1,47
 804 1417 804 1417 864 1417 c 2,48,-1
 1167 1417 l 1,49,50
 1165 1432 1165 1432 1165 1447 c 0,51,52
 1165 1448 1165 1448 1165 1449 c 0,53,54
 1165 1494 1165 1494 1182 1535 c 128,-1,55
 1199 1576 1199 1576 1230 1608 c 1,56,-1
 1320 1518 l 1,57,58
 1306 1504 1306 1504 1298.5 1486.5 c 128,-1,59
 1291 1469 1291 1469 1291 1449.5 c 128,-1,60
 1291 1430 1291 1430 1298.5 1412 c 128,-1,61
 1306 1394 1306 1394 1320 1380.5 c 128,-1,62
 1334 1367 1334 1367 1351.5 1359.5 c 128,-1,63
 1369 1352 1369 1352 1388.5 1352 c 128,-1,64
 1408 1352 1408 1352 1426 1359.5 c 128,-1,65
 1444 1367 1444 1367 1458 1380 c 1,66,-1
 1547 1291 l 1,67,68
 1515 1259 1515 1259 1474 1242 c 128,-1,69
 1433 1225 1433 1225 1389 1225 c 0,70,71
 1388 1225 1388 1225 1386 1225 c 0,72,73
 1356 1225 1356 1225 1328 1234 c 1,74,-1
 1328 1126 l 1,75,-1
 1328 6 l 1,0,-1
EndSplineSet
Validated: 1
EndChar

StartChar: uF2A7D
Encoding: 993917 993917 135
Width: 1088
Flags: W
LayerCount: 2
Fore
SplineSet
464 230 m 1,0,-1
 464 1222 l 1,1,-1
 624 1222 l 1,2,-1
 624 230 l 1,3,-1
 464 230 l 1,0,-1
1008 326 m 2,4,5
 1008 193 1008 193 914.5 99.5 c 128,-1,6
 821 6 821 6 688 6 c 2,7,-1
 400 6 l 2,8,9
 267 6 267 6 173.5 99.5 c 128,-1,10
 80 193 80 193 80 326 c 2,11,-1
 80 998 l 1,12,-1
 240 998 l 1,13,-1
 240 326 l 2,14,15
 240 260 240 260 287 213 c 128,-1,16
 334 166 334 166 400 166 c 2,17,-1
 688 166 l 2,18,19
 754 166 754 166 801 213 c 128,-1,20
 848 260 848 260 848 326 c 2,21,-1
 848 998 l 1,22,-1
 1008 998 l 1,23,-1
 1008 326 l 2,4,5
784 -250 m 1,24,-1
 657 -250 l 1,25,26
 657 -231 657 -231 650 -213 c 128,-1,27
 643 -195 643 -195 629 -181 c 128,-1,28
 615 -167 615 -167 597 -160 c 128,-1,29
 579 -153 579 -153 560 -153 c 128,-1,30
 541 -153 541 -153 523 -160 c 128,-1,31
 505 -167 505 -167 491 -181 c 128,-1,32
 477 -195 477 -195 470 -213 c 128,-1,33
 463 -231 463 -231 463 -250 c 1,34,-1
 336 -250 l 1,35,36
 336 -205 336 -205 353 -164 c 128,-1,37
 370 -123 370 -123 401.5 -91.5 c 128,-1,38
 433 -60 433 -60 474 -43 c 128,-1,39
 515 -26 515 -26 560 -26 c 128,-1,40
 605 -26 605 -26 646 -43 c 128,-1,41
 687 -60 687 -60 718.5 -91.5 c 128,-1,42
 750 -123 750 -123 767 -164 c 128,-1,43
 784 -205 784 -205 784 -250 c 1,24,-1
EndSplineSet
Validated: 1
EndChar

StartChar: uF2A7E
Encoding: 993918 993918 136
Width: 1242
Flags: W
LayerCount: 2
Fore
SplineSet
1162 1382 m 1,0,-1
 882 1062 l 1,1,-1
 656 1062 l 1,2,-1
 936 1382 l 1,3,-1
 1162 1382 l 1,0,-1
464 230 m 1,4,-1
 464 1222 l 1,5,-1
 624 1222 l 1,6,-1
 624 230 l 1,7,-1
 464 230 l 1,4,-1
1008 326 m 2,8,9
 1008 193 1008 193 914.5 99.5 c 128,-1,10
 821 6 821 6 688 6 c 2,11,-1
 400 6 l 2,12,13
 267 6 267 6 173.5 99.5 c 128,-1,14
 80 193 80 193 80 326 c 2,15,-1
 80 998 l 1,16,-1
 240 998 l 1,17,-1
 240 326 l 2,18,19
 240 260 240 260 287 213 c 128,-1,20
 334 166 334 166 400 166 c 2,21,-1
 688 166 l 2,22,23
 754 166 754 166 801 213 c 128,-1,24
 848 260 848 260 848 326 c 2,25,-1
 848 998 l 1,26,-1
 1008 998 l 1,27,-1
 1008 326 l 2,8,9
784 -250 m 1,28,-1
 657 -250 l 1,29,30
 657 -231 657 -231 650 -213 c 128,-1,31
 643 -195 643 -195 629 -181 c 128,-1,32
 615 -167 615 -167 597 -160 c 128,-1,33
 579 -153 579 -153 560 -153 c 128,-1,34
 541 -153 541 -153 523 -160 c 128,-1,35
 505 -167 505 -167 491 -181 c 128,-1,36
 477 -195 477 -195 470 -213 c 128,-1,37
 463 -231 463 -231 463 -250 c 1,38,-1
 336 -250 l 1,39,40
 336 -205 336 -205 353 -164 c 128,-1,41
 370 -123 370 -123 401.5 -91.5 c 128,-1,42
 433 -60 433 -60 474 -43 c 128,-1,43
 515 -26 515 -26 560 -26 c 128,-1,44
 605 -26 605 -26 646 -43 c 128,-1,45
 687 -60 687 -60 718.5 -91.5 c 128,-1,46
 750 -123 750 -123 767 -164 c 128,-1,47
 784 -205 784 -205 784 -250 c 1,28,-1
EndSplineSet
Validated: 1
EndChar

StartChar: uF2A7F
Encoding: 993919 993919 137
Width: 1248
Flags: W
LayerCount: 2
Fore
SplineSet
403 -90 m 0,0,1
 434 -60 434 -60 474 -43 c 0,2,3
 515 -26 515 -26 560 -26 c 128,-1,4
 605 -26 605 -26 646 -43 c 0,5,6
 686 -60 686 -60 717 -90 c 0,7,8
 718 -91 718 -91 718 -92 c 0,9,10
 750 -124 750 -124 767 -164.5 c 128,-1,11
 784 -205 784 -205 784 -250 c 1,12,-1
 657 -250 l 1,13,14
 657 -231 657 -231 650 -213 c 128,-1,15
 643 -195 643 -195 629 -181 c 128,-1,16
 615 -167 615 -167 597 -160 c 128,-1,17
 579 -153 579 -153 560 -153 c 128,-1,18
 541 -153 541 -153 523 -160 c 128,-1,19
 505 -167 505 -167 491 -181 c 128,-1,20
 477 -195 477 -195 470 -213 c 128,-1,21
 463 -231 463 -231 463 -250 c 1,22,-1
 336 -250 l 1,23,24
 336 -205 336 -205 353 -164 c 128,-1,25
 370 -123 370 -123 402 -92 c 0,26,27
 402 -91 402 -91 403 -90 c 0,0,1
749 1206 m 0,28,29
 722 1236 722 1236 706 1274 c 0,30,31
 688 1318 688 1318 688 1366 c 1,32,-1
 824 1366 l 1,33,34
 824 1345 824 1345 831.5 1326 c 128,-1,35
 839 1307 839 1307 854 1292 c 128,-1,36
 869 1277 869 1277 888 1269.5 c 128,-1,37
 907 1262 907 1262 928 1262 c 128,-1,38
 949 1262 949 1262 968 1269.5 c 128,-1,39
 987 1277 987 1277 1002 1292 c 128,-1,40
 1017 1307 1017 1307 1024.5 1326 c 128,-1,41
 1032 1345 1032 1345 1032 1366 c 1,42,-1
 1168 1366 l 1,43,44
 1168 1318 1168 1318 1150 1274 c 0,45,46
 1134 1236 1134 1236 1107 1206 c 0,47,48
 1103 1201 1103 1201 1098 1196 c 0,49,50
 1064 1162 1064 1162 1020 1144 c 128,-1,51
 976 1126 976 1126 928 1126 c 128,-1,52
 880 1126 880 1126 836 1144.5 c 128,-1,53
 792 1163 792 1163 758 1196 c 0,54,55
 753 1201 753 1201 749 1206 c 0,28,29
464 230 m 1,56,-1
 464 1222 l 1,57,-1
 624 1222 l 1,58,-1
 624 230 l 1,59,-1
 464 230 l 1,56,-1
1008 326 m 2,60,61
 1008 193 1008 193 914.5 99.5 c 128,-1,62
 821 6 821 6 688 6 c 2,63,-1
 400 6 l 2,64,65
 267 6 267 6 173.5 99.5 c 128,-1,66
 80 193 80 193 80 326 c 2,67,-1
 80 998 l 1,68,-1
 240 998 l 1,69,-1
 240 326 l 2,70,71
 240 260 240 260 287 213 c 128,-1,72
 334 166 334 166 400 166 c 2,73,-1
 688 166 l 2,74,75
 754 166 754 166 801 213 c 128,-1,76
 848 260 848 260 848 326 c 2,77,-1
 848 998 l 1,78,-1
 1008 998 l 1,79,-1
 1008 326 l 2,60,61
EndSplineSet
Validated: 1
EndChar

StartChar: uF2A83
Encoding: 993923 993923 138
Width: 1280
Flags: W
LayerCount: 2
Fore
SplineSet
336 1030 m 1,0,-1
 320 1030 l 2,1,2
 287 1030 287 1030 263.5 1006.5 c 128,-1,3
 240 983 240 983 240 950 c 128,-1,4
 240 917 240 917 263.5 893.5 c 128,-1,5
 287 870 287 870 320 870 c 2,6,-1
 400 870 l 2,7,8
 427 870 427 870 445.5 888.5 c 128,-1,9
 464 907 464 907 464 934 c 0,10,11
 464 1040 464 1040 539 1115 c 128,-1,12
 614 1190 614 1190 720 1190 c 2,13,-1
 960 1190 l 2,14,15
 1059 1190 1059 1190 1129.5 1119.5 c 128,-1,16
 1200 1049 1200 1049 1200 950 c 128,-1,17
 1200 851 1200 851 1129.5 780.5 c 128,-1,18
 1059 710 1059 710 960 710 c 2,19,-1
 752 710 l 1,20,-1
 752 6 l 1,21,-1
 592 6 l 1,22,-1
 592 710 l 2,23,24
 592 776 592 776 639 823 c 128,-1,25
 686 870 686 870 752 870 c 2,26,-1
 960 870 l 2,27,28
 993 870 993 870 1016.5 893.5 c 128,-1,29
 1040 917 1040 917 1040 950 c 128,-1,30
 1040 983 1040 983 1016.5 1006.5 c 128,-1,31
 993 1030 993 1030 960 1030 c 2,32,-1
 720 1030 l 2,33,34
 680 1030 680 1030 652 1002 c 128,-1,35
 624 974 624 974 624 934 c 0,36,37
 624 841 624 841 558.5 775.5 c 128,-1,38
 493 710 493 710 400 710 c 2,39,-1
 320 710 l 2,40,41
 221 710 221 710 150.5 780.5 c 128,-1,42
 80 851 80 851 80 950 c 128,-1,43
 80 1049 80 1049 150.5 1119.5 c 128,-1,44
 221 1190 221 1190 320 1190 c 2,45,-1
 336 1190 l 1,46,-1
 336 1030 l 1,0,-1
EndSplineSet
Validated: 1
EndChar

StartChar: uF2A84
Encoding: 993924 993924 139
Width: 1466
Flags: W
LayerCount: 2
Fore
SplineSet
1129 1120 m 1,0,1
 1200 1050 1200 1050 1200 950 c 0,2,3
 1200 851 1200 851 1129.5 780.5 c 128,-1,4
 1059 710 1059 710 960 710 c 2,5,-1
 752 710 l 1,6,-1
 752 6 l 1,7,-1
 592 6 l 1,8,-1
 592 710 l 2,9,10
 592 776 592 776 639 823 c 128,-1,11
 686 870 686 870 752 870 c 2,12,-1
 960 870 l 2,13,14
 993 870 993 870 1016.5 893.5 c 128,-1,15
 1040 917 1040 917 1040 950 c 128,-1,16
 1040 983 1040 983 1016.5 1006.5 c 128,-1,17
 993 1030 993 1030 960 1030 c 2,18,-1
 720 1030 l 2,19,20
 680 1030 680 1030 652 1002 c 128,-1,21
 624 974 624 974 624 934 c 0,22,23
 624 841 624 841 558.5 775.5 c 128,-1,24
 493 710 493 710 400 710 c 2,25,-1
 320 710 l 2,26,27
 221 710 221 710 150.5 780.5 c 128,-1,28
 80 851 80 851 80 950 c 128,-1,29
 80 1049 80 1049 150.5 1119.5 c 128,-1,30
 221 1190 221 1190 320 1190 c 2,31,-1
 336 1190 l 1,32,-1
 336 1030 l 1,33,-1
 320 1030 l 2,34,35
 287 1030 287 1030 263.5 1006.5 c 128,-1,36
 240 983 240 983 240 950 c 128,-1,37
 240 917 240 917 263.5 893.5 c 128,-1,38
 287 870 287 870 320 870 c 2,39,-1
 400 870 l 2,40,41
 427 870 427 870 445.5 888.5 c 128,-1,42
 464 907 464 907 464 934 c 0,43,44
 464 1040 464 1040 539 1115 c 128,-1,45
 614 1190 614 1190 720 1190 c 2,46,-1
 960 1190 l 2,47,48
 962 1190 962 1190 964 1190 c 2,49,-1
 1160 1414 l 1,50,-1
 1386 1414 l 1,51,-1
 1129 1120 l 1,0,1
EndSplineSet
Validated: 1
EndChar

StartChar: uF2A85
Encoding: 993925 993925 140
Width: 1088
Flags: W
LayerCount: 2
Fore
SplineSet
464 1030 m 2,0,1
 464 1043 464 1043 454.5 1052.5 c 128,-1,2
 445 1062 445 1062 432 1062 c 2,3,-1
 272 1062 l 2,4,5
 259 1062 259 1062 249.5 1052.5 c 128,-1,6
 240 1043 240 1043 240 1030 c 2,7,-1
 240 6 l 1,8,-1
 80 6 l 1,9,-1
 80 1030 l 2,10,11
 80 1110 80 1110 136 1166 c 128,-1,12
 192 1222 192 1222 272 1222 c 2,13,-1
 432 1222 l 2,14,15
 512 1222 512 1222 568 1166 c 128,-1,16
 624 1110 624 1110 624 1030 c 2,17,-1
 624 771 l 1,18,19
 640 774 640 774 656 774 c 2,20,-1
 816 774 l 2,21,22
 896 774 896 774 952 718 c 128,-1,23
 1008 662 1008 662 1008 582 c 2,24,-1
 1008 6 l 1,25,-1
 848 6 l 1,26,-1
 848 582 l 2,27,28
 848 595 848 595 838.5 604.5 c 128,-1,29
 829 614 829 614 816 614 c 2,30,-1
 656 614 l 2,31,32
 643 614 643 614 633.5 604.5 c 128,-1,33
 624 595 624 595 624 582 c 2,34,-1
 624 6 l 1,35,-1
 464 6 l 1,36,-1
 464 1030 l 2,0,1
EndSplineSet
Validated: 1
EndChar

StartChar: uF2A86
Encoding: 993926 993926 141
Width: 1242
Flags: W
LayerCount: 2
Fore
SplineSet
1162 1414 m 1,0,-1
 882 1094 l 1,1,-1
 656 1094 l 1,2,-1
 936 1414 l 1,3,-1
 1162 1414 l 1,0,-1
464 1030 m 2,4,5
 464 1043 464 1043 454.5 1052.5 c 128,-1,6
 445 1062 445 1062 432 1062 c 2,7,-1
 272 1062 l 2,8,9
 259 1062 259 1062 249.5 1052.5 c 128,-1,10
 240 1043 240 1043 240 1030 c 2,11,-1
 240 6 l 1,12,-1
 80 6 l 1,13,-1
 80 1030 l 2,14,15
 80 1110 80 1110 136 1166 c 128,-1,16
 192 1222 192 1222 272 1222 c 2,17,-1
 432 1222 l 2,18,19
 512 1222 512 1222 568 1166 c 128,-1,20
 624 1110 624 1110 624 1030 c 2,21,-1
 624 771 l 1,22,23
 640 774 640 774 656 774 c 2,24,-1
 816 774 l 2,25,26
 896 774 896 774 952 718 c 128,-1,27
 1008 662 1008 662 1008 582 c 2,28,-1
 1008 6 l 1,29,-1
 848 6 l 1,30,-1
 848 582 l 2,31,32
 848 595 848 595 838.5 604.5 c 128,-1,33
 829 614 829 614 816 614 c 2,34,-1
 656 614 l 2,35,36
 643 614 643 614 633.5 604.5 c 128,-1,37
 624 595 624 595 624 582 c 2,38,-1
 624 6 l 1,39,-1
 464 6 l 1,40,-1
 464 1030 l 2,4,5
EndSplineSet
Validated: 1
EndChar

StartChar: uF2A87
Encoding: 993927 993927 142
Width: 1280
Flags: W
LayerCount: 2
Fore
SplineSet
320 1030 m 2,0,1
 287 1030 287 1030 263.5 1006.5 c 128,-1,2
 240 983 240 983 240 950 c 128,-1,3
 240 917 240 917 263.5 893.5 c 128,-1,4
 287 870 287 870 320 870 c 2,5,-1
 400 870 l 2,6,7
 427 870 427 870 445.5 888.5 c 128,-1,8
 464 907 464 907 464 934 c 0,9,10
 464 1040 464 1040 539 1115 c 128,-1,11
 614 1190 614 1190 720 1190 c 2,12,-1
 960 1190 l 2,13,14
 1059 1190 1059 1190 1129.5 1119.5 c 128,-1,15
 1200 1049 1200 1049 1200 950 c 128,-1,16
 1200 851 1200 851 1129.5 780.5 c 128,-1,17
 1059 710 1059 710 960 710 c 2,18,-1
 752 710 l 1,19,-1
 752 454 l 1,20,-1
 944 454 l 1,21,-1
 944 294 l 1,22,-1
 752 294 l 1,23,-1
 752 6 l 1,24,-1
 592 6 l 1,25,-1
 592 294 l 1,26,-1
 400 294 l 1,27,-1
 400 454 l 1,28,-1
 592 454 l 1,29,-1
 592 710 l 2,30,31
 592 776 592 776 639 823 c 128,-1,32
 686 870 686 870 752 870 c 2,33,-1
 960 870 l 2,34,35
 993 870 993 870 1016.5 893.5 c 128,-1,36
 1040 917 1040 917 1040 950 c 128,-1,37
 1040 983 1040 983 1016.5 1006.5 c 128,-1,38
 993 1030 993 1030 960 1030 c 2,39,-1
 720 1030 l 2,40,41
 680 1030 680 1030 652 1002 c 128,-1,42
 624 974 624 974 624 934 c 0,43,44
 624 841 624 841 558.5 775.5 c 128,-1,45
 493 710 493 710 400 710 c 2,46,-1
 320 710 l 2,47,48
 221 710 221 710 150.5 780.5 c 128,-1,49
 80 851 80 851 80 950 c 128,-1,50
 80 1049 80 1049 150.5 1119.5 c 128,-1,51
 221 1190 221 1190 320 1190 c 2,52,-1
 336 1190 l 1,53,-1
 336 1030 l 1,54,-1
 320 1030 l 2,0,1
EndSplineSet
Validated: 1
EndChar

StartChar: uF2A88
Encoding: 993928 993928 143
Width: 1466
Flags: W
LayerCount: 2
Fore
SplineSet
964 1190 m 2,0,-1
 1160 1414 l 1,1,-1
 1386 1414 l 1,2,-1
 1129 1120 l 1,3,4
 1200 1050 1200 1050 1200 950 c 0,5,6
 1200 851 1200 851 1129.5 780.5 c 128,-1,7
 1059 710 1059 710 960 710 c 2,8,-1
 752 710 l 1,9,-1
 752 454 l 1,10,-1
 944 454 l 1,11,-1
 944 294 l 1,12,-1
 752 294 l 1,13,-1
 752 6 l 1,14,-1
 592 6 l 1,15,-1
 592 294 l 1,16,-1
 400 294 l 1,17,-1
 400 454 l 1,18,-1
 592 454 l 1,19,-1
 592 710 l 2,20,21
 592 776 592 776 639 823 c 128,-1,22
 686 870 686 870 752 870 c 2,23,-1
 960 870 l 2,24,25
 993 870 993 870 1016.5 893.5 c 128,-1,26
 1040 917 1040 917 1040 950 c 128,-1,27
 1040 983 1040 983 1016.5 1006.5 c 128,-1,28
 993 1030 993 1030 960 1030 c 2,29,-1
 720 1030 l 2,30,31
 680 1030 680 1030 652 1002 c 128,-1,32
 624 974 624 974 624 934 c 0,33,34
 624 841 624 841 558.5 775.5 c 128,-1,35
 493 710 493 710 400 710 c 2,36,-1
 320 710 l 2,37,38
 221 710 221 710 150.5 780.5 c 128,-1,39
 80 851 80 851 80 950 c 128,-1,40
 80 1049 80 1049 150.5 1119.5 c 128,-1,41
 221 1190 221 1190 320 1190 c 2,42,-1
 336 1190 l 1,43,-1
 336 1030 l 1,44,-1
 320 1030 l 2,45,46
 287 1030 287 1030 263.5 1006.5 c 128,-1,47
 240 983 240 983 240 950 c 128,-1,48
 240 917 240 917 263.5 893.5 c 128,-1,49
 287 870 287 870 320 870 c 2,50,-1
 400 870 l 2,51,52
 427 870 427 870 445.5 888.5 c 128,-1,53
 464 907 464 907 464 934 c 0,54,55
 464 1040 464 1040 539 1115 c 128,-1,56
 614 1190 614 1190 720 1190 c 2,57,-1
 960 1190 l 2,58,59
 962 1190 962 1190 964 1190 c 2,0,-1
EndSplineSet
Validated: 1
EndChar

StartChar: uF2A89
Encoding: 993929 993929 144
Width: 1088
Flags: W
LayerCount: 2
Fore
SplineSet
464 1030 m 2,0,1
 464 1043 464 1043 454.5 1052.5 c 128,-1,2
 445 1062 445 1062 432 1062 c 2,3,-1
 272 1062 l 2,4,5
 259 1062 259 1062 249.5 1052.5 c 128,-1,6
 240 1043 240 1043 240 1030 c 2,7,-1
 240 6 l 1,8,-1
 80 6 l 1,9,-1
 80 1030 l 2,10,11
 80 1110 80 1110 136 1166 c 128,-1,12
 192 1222 192 1222 272 1222 c 2,13,-1
 432 1222 l 2,14,15
 512 1222 512 1222 568 1166 c 128,-1,16
 624 1110 624 1110 624 1030 c 2,17,-1
 624 771 l 1,18,19
 640 774 640 774 656 774 c 2,20,-1
 816 774 l 2,21,22
 896 774 896 774 952 718 c 128,-1,23
 1008 662 1008 662 1008 582 c 2,24,-1
 1008 6 l 1,25,-1
 848 6 l 1,26,-1
 848 582 l 2,27,28
 848 595 848 595 838.5 604.5 c 128,-1,29
 829 614 829 614 816 614 c 2,30,-1
 656 614 l 2,31,32
 643 614 643 614 633.5 604.5 c 128,-1,33
 624 595 624 595 624 582 c 2,34,-1
 624 6 l 1,35,-1
 464 6 l 1,36,-1
 464 1030 l 2,0,1
144 -218 m 1,37,-1
 144 -58 l 1,38,-1
 912 -58 l 1,39,-1
 912 -218 l 1,40,-1
 144 -218 l 1,37,-1
EndSplineSet
Validated: 1
EndChar

StartChar: uF2A8A
Encoding: 993930 993930 145
Width: 1242
Flags: W
LayerCount: 2
Fore
SplineSet
464 1030 m 2,0,1
 464 1043 464 1043 454.5 1052.5 c 128,-1,2
 445 1062 445 1062 432 1062 c 2,3,-1
 272 1062 l 2,4,5
 259 1062 259 1062 249.5 1052.5 c 128,-1,6
 240 1043 240 1043 240 1030 c 2,7,-1
 240 6 l 1,8,-1
 80 6 l 1,9,-1
 80 1030 l 2,10,11
 80 1110 80 1110 136 1166 c 128,-1,12
 192 1222 192 1222 272 1222 c 2,13,-1
 432 1222 l 2,14,15
 512 1222 512 1222 568 1166 c 128,-1,16
 624 1110 624 1110 624 1030 c 2,17,-1
 624 771 l 1,18,19
 640 774 640 774 656 774 c 2,20,-1
 816 774 l 2,21,22
 896 774 896 774 952 718 c 128,-1,23
 1008 662 1008 662 1008 582 c 2,24,-1
 1008 6 l 1,25,-1
 848 6 l 1,26,-1
 848 582 l 2,27,28
 848 595 848 595 838.5 604.5 c 128,-1,29
 829 614 829 614 816 614 c 2,30,-1
 656 614 l 2,31,32
 643 614 643 614 633.5 604.5 c 128,-1,33
 624 595 624 595 624 582 c 2,34,-1
 624 6 l 1,35,-1
 464 6 l 1,36,-1
 464 1030 l 2,0,1
144 -218 m 1,37,-1
 144 -58 l 1,38,-1
 912 -58 l 1,39,-1
 912 -218 l 1,40,-1
 144 -218 l 1,37,-1
1162 1414 m 1,41,-1
 882 1094 l 1,42,-1
 656 1094 l 1,43,-1
 936 1414 l 1,44,-1
 1162 1414 l 1,41,-1
EndSplineSet
Validated: 1
EndChar

StartChar: uF2A8B
Encoding: 993931 993931 146
Width: 1280
Flags: W
LayerCount: 2
Fore
SplineSet
336 1030 m 1,0,-1
 320 1030 l 2,1,2
 287 1030 287 1030 263.5 1006.5 c 128,-1,3
 240 983 240 983 240 950 c 128,-1,4
 240 917 240 917 263.5 893.5 c 128,-1,5
 287 870 287 870 320 870 c 2,6,-1
 400 870 l 2,7,8
 427 870 427 870 445.5 888.5 c 128,-1,9
 464 907 464 907 464 934 c 0,10,11
 464 1040 464 1040 539 1115 c 128,-1,12
 614 1190 614 1190 720 1190 c 2,13,-1
 960 1190 l 2,14,15
 1059 1190 1059 1190 1129.5 1119.5 c 128,-1,16
 1200 1049 1200 1049 1200 950 c 128,-1,17
 1200 851 1200 851 1129.5 780.5 c 128,-1,18
 1059 710 1059 710 960 710 c 2,19,-1
 752 710 l 1,20,-1
 752 6 l 1,21,-1
 592 6 l 1,22,-1
 592 710 l 2,23,24
 592 776 592 776 639 823 c 128,-1,25
 686 870 686 870 752 870 c 2,26,-1
 960 870 l 2,27,28
 993 870 993 870 1016.5 893.5 c 128,-1,29
 1040 917 1040 917 1040 950 c 128,-1,30
 1040 983 1040 983 1016.5 1006.5 c 128,-1,31
 993 1030 993 1030 960 1030 c 2,32,-1
 720 1030 l 2,33,34
 680 1030 680 1030 652 1002 c 128,-1,35
 624 974 624 974 624 934 c 0,36,37
 624 841 624 841 558.5 775.5 c 128,-1,38
 493 710 493 710 400 710 c 2,39,-1
 320 710 l 2,40,41
 221 710 221 710 150.5 780.5 c 128,-1,42
 80 851 80 851 80 950 c 128,-1,43
 80 1049 80 1049 150.5 1119.5 c 128,-1,44
 221 1190 221 1190 320 1190 c 2,45,-1
 336 1190 l 1,46,-1
 336 1030 l 1,0,-1
528 -154 m 128,-1,48
 528 -101 528 -101 565.5 -63.5 c 128,-1,49
 603 -26 603 -26 656 -26 c 128,-1,50
 709 -26 709 -26 746.5 -63.5 c 128,-1,51
 784 -101 784 -101 784 -154 c 128,-1,52
 784 -207 784 -207 746.5 -244.5 c 128,-1,53
 709 -282 709 -282 656 -282 c 128,-1,54
 603 -282 603 -282 565.5 -244.5 c 128,-1,47
 528 -207 528 -207 528 -154 c 128,-1,48
EndSplineSet
Validated: 1
EndChar

StartChar: uF2A8C
Encoding: 993932 993932 147
Width: 1466
Flags: W
LayerCount: 2
Fore
SplineSet
1129 1120 m 1,0,1
 1200 1050 1200 1050 1200 950 c 0,2,3
 1200 851 1200 851 1129.5 780.5 c 128,-1,4
 1059 710 1059 710 960 710 c 2,5,-1
 752 710 l 1,6,-1
 752 6 l 1,7,-1
 592 6 l 1,8,-1
 592 710 l 2,9,10
 592 776 592 776 639 823 c 128,-1,11
 686 870 686 870 752 870 c 2,12,-1
 960 870 l 2,13,14
 993 870 993 870 1016.5 893.5 c 128,-1,15
 1040 917 1040 917 1040 950 c 128,-1,16
 1040 983 1040 983 1016.5 1006.5 c 128,-1,17
 993 1030 993 1030 960 1030 c 2,18,-1
 720 1030 l 2,19,20
 680 1030 680 1030 652 1002 c 128,-1,21
 624 974 624 974 624 934 c 0,22,23
 624 841 624 841 558.5 775.5 c 128,-1,24
 493 710 493 710 400 710 c 2,25,-1
 320 710 l 2,26,27
 221 710 221 710 150.5 780.5 c 128,-1,28
 80 851 80 851 80 950 c 128,-1,29
 80 1049 80 1049 150.5 1119.5 c 128,-1,30
 221 1190 221 1190 320 1190 c 2,31,-1
 336 1190 l 1,32,-1
 336 1030 l 1,33,-1
 320 1030 l 2,34,35
 287 1030 287 1030 263.5 1006.5 c 128,-1,36
 240 983 240 983 240 950 c 128,-1,37
 240 917 240 917 263.5 893.5 c 128,-1,38
 287 870 287 870 320 870 c 2,39,-1
 400 870 l 2,40,41
 427 870 427 870 445.5 888.5 c 128,-1,42
 464 907 464 907 464 934 c 0,43,44
 464 1040 464 1040 539 1115 c 128,-1,45
 614 1190 614 1190 720 1190 c 2,46,-1
 960 1190 l 2,47,48
 962 1190 962 1190 964 1190 c 2,49,-1
 1160 1414 l 1,50,-1
 1386 1414 l 1,51,-1
 1129 1120 l 1,0,1
528 -154 m 128,-1,53
 528 -101 528 -101 565.5 -63.5 c 128,-1,54
 603 -26 603 -26 656 -26 c 128,-1,55
 709 -26 709 -26 746.5 -63.5 c 128,-1,56
 784 -101 784 -101 784 -154 c 128,-1,57
 784 -207 784 -207 746.5 -244.5 c 128,-1,58
 709 -282 709 -282 656 -282 c 128,-1,59
 603 -282 603 -282 565.5 -244.5 c 128,-1,52
 528 -207 528 -207 528 -154 c 128,-1,53
EndSplineSet
Validated: 1
EndChar

StartChar: uF2A8E
Encoding: 993934 993934 148
Width: 1242
Flags: W
LayerCount: 2
Fore
SplineSet
464 1030 m 2,0,1
 464 1043 464 1043 454.5 1052.5 c 128,-1,2
 445 1062 445 1062 432 1062 c 2,3,-1
 272 1062 l 2,4,5
 259 1062 259 1062 249.5 1052.5 c 128,-1,6
 240 1043 240 1043 240 1030 c 2,7,-1
 240 6 l 1,8,-1
 80 6 l 1,9,-1
 80 1030 l 2,10,11
 80 1110 80 1110 136 1166 c 128,-1,12
 192 1222 192 1222 272 1222 c 2,13,-1
 432 1222 l 2,14,15
 512 1222 512 1222 568 1166 c 128,-1,16
 624 1110 624 1110 624 1030 c 2,17,-1
 624 771 l 1,18,19
 640 774 640 774 656 774 c 2,20,-1
 816 774 l 2,21,22
 896 774 896 774 952 718 c 128,-1,23
 1008 662 1008 662 1008 582 c 2,24,-1
 1008 6 l 1,25,-1
 848 6 l 1,26,-1
 848 582 l 2,27,28
 848 595 848 595 838.5 604.5 c 128,-1,29
 829 614 829 614 816 614 c 2,30,-1
 656 614 l 2,31,32
 643 614 643 614 633.5 604.5 c 128,-1,33
 624 595 624 595 624 582 c 2,34,-1
 624 6 l 1,35,-1
 464 6 l 1,36,-1
 464 1030 l 2,0,1
400 -154 m 128,-1,38
 400 -101 400 -101 437.5 -63.5 c 128,-1,39
 475 -26 475 -26 528 -26 c 128,-1,40
 581 -26 581 -26 618.5 -63.5 c 128,-1,41
 656 -101 656 -101 656 -154 c 128,-1,42
 656 -207 656 -207 618.5 -244.5 c 128,-1,43
 581 -282 581 -282 528 -282 c 128,-1,44
 475 -282 475 -282 437.5 -244.5 c 128,-1,37
 400 -207 400 -207 400 -154 c 128,-1,38
1162 1414 m 1,45,-1
 882 1094 l 1,46,-1
 656 1094 l 1,47,-1
 936 1414 l 1,48,-1
 1162 1414 l 1,45,-1
EndSplineSet
Validated: 1
EndChar

StartChar: uF2A8F
Encoding: 993935 993935 149
Width: 1472
Flags: W
LayerCount: 2
Fore
SplineSet
784 1190 m 1,0,-1
 784 1302 l 2,1,2
 784 1362 784 1362 826 1404 c 128,-1,3
 868 1446 868 1446 928 1446 c 2,4,-1
 1248 1446 l 2,5,6
 1308 1446 1308 1446 1350 1404 c 128,-1,7
 1392 1362 1392 1362 1392 1302 c 2,8,-1
 1392 6 l 1,9,-1
 1232 6 l 1,10,-1
 1232 1286 l 1,11,-1
 944 1286 l 1,12,-1
 944 1190 l 1,13,-1
 960 1190 l 2,14,15
 1059 1190 1059 1190 1129.5 1119.5 c 128,-1,16
 1200 1049 1200 1049 1200 950 c 128,-1,17
 1200 851 1200 851 1129.5 780.5 c 128,-1,18
 1059 710 1059 710 960 710 c 2,19,-1
 752 710 l 1,20,-1
 752 6 l 1,21,-1
 592 6 l 1,22,-1
 592 710 l 2,23,24
 592 776 592 776 639 823 c 128,-1,25
 686 870 686 870 752 870 c 2,26,-1
 960 870 l 2,27,28
 993 870 993 870 1016.5 893.5 c 128,-1,29
 1040 917 1040 917 1040 950 c 128,-1,30
 1040 983 1040 983 1016.5 1006.5 c 128,-1,31
 993 1030 993 1030 960 1030 c 2,32,-1
 720 1030 l 2,33,34
 680 1030 680 1030 652 1002 c 128,-1,35
 624 974 624 974 624 934 c 0,36,37
 624 841 624 841 558.5 775.5 c 128,-1,38
 493 710 493 710 400 710 c 2,39,-1
 320 710 l 2,40,41
 221 710 221 710 150.5 780.5 c 128,-1,42
 80 851 80 851 80 950 c 128,-1,43
 80 1049 80 1049 150.5 1119.5 c 128,-1,44
 221 1190 221 1190 320 1190 c 2,45,-1
 336 1190 l 1,46,-1
 336 1030 l 1,47,-1
 320 1030 l 2,48,49
 287 1030 287 1030 263.5 1006.5 c 128,-1,50
 240 983 240 983 240 950 c 128,-1,51
 240 917 240 917 263.5 893.5 c 128,-1,52
 287 870 287 870 320 870 c 2,53,-1
 400 870 l 2,54,55
 427 870 427 870 445.5 888.5 c 128,-1,56
 464 907 464 907 464 934 c 0,57,58
 464 1040 464 1040 539 1115 c 128,-1,59
 614 1190 614 1190 720 1190 c 2,60,-1
 784 1190 l 1,0,-1
EndSplineSet
Validated: 1
EndChar

StartChar: uF2A90
Encoding: 993936 993936 150
Width: 1658
Flags: W
LayerCount: 2
Fore
SplineSet
1362 1390 m 1,0,1
 1392 1351 1392 1351 1392 1302 c 2,2,-1
 1392 6 l 1,3,-1
 1232 6 l 1,4,-1
 1232 1286 l 1,5,-1
 944 1286 l 1,6,-1
 944 1190 l 1,7,-1
 960 1190 l 2,8,9
 1059 1190 1059 1190 1129.5 1119.5 c 128,-1,10
 1200 1049 1200 1049 1200 950 c 128,-1,11
 1200 851 1200 851 1129.5 780.5 c 128,-1,12
 1059 710 1059 710 960 710 c 2,13,-1
 752 710 l 1,14,-1
 752 6 l 1,15,-1
 592 6 l 1,16,-1
 592 710 l 2,17,18
 592 776 592 776 639 823 c 128,-1,19
 686 870 686 870 752 870 c 2,20,-1
 960 870 l 2,21,22
 993 870 993 870 1016.5 893.5 c 128,-1,23
 1040 917 1040 917 1040 950 c 128,-1,24
 1040 983 1040 983 1016.5 1006.5 c 128,-1,25
 993 1030 993 1030 960 1030 c 2,26,-1
 720 1030 l 2,27,28
 680 1030 680 1030 652 1002 c 128,-1,29
 624 974 624 974 624 934 c 0,30,31
 624 841 624 841 558.5 775.5 c 128,-1,32
 493 710 493 710 400 710 c 2,33,-1
 320 710 l 2,34,35
 221 710 221 710 150.5 780.5 c 128,-1,36
 80 851 80 851 80 950 c 128,-1,37
 80 1049 80 1049 150.5 1119.5 c 128,-1,38
 221 1190 221 1190 320 1190 c 2,39,-1
 336 1190 l 1,40,-1
 336 1030 l 1,41,-1
 320 1030 l 2,42,43
 287 1030 287 1030 263.5 1006.5 c 128,-1,44
 240 983 240 983 240 950 c 128,-1,45
 240 917 240 917 263.5 893.5 c 128,-1,46
 287 870 287 870 320 870 c 2,47,-1
 400 870 l 2,48,49
 427 870 427 870 445.5 888.5 c 128,-1,50
 464 907 464 907 464 934 c 0,51,52
 464 1040 464 1040 539 1115 c 128,-1,53
 614 1190 614 1190 720 1190 c 2,54,-1
 784 1190 l 1,55,-1
 784 1302 l 2,56,57
 784 1362 784 1362 826 1404 c 128,-1,58
 868 1446 868 1446 928 1446 c 2,59,-1
 1184 1446 l 1,60,-1
 1352 1638 l 1,61,-1
 1578 1638 l 1,62,-1
 1362 1390 l 1,0,1
EndSplineSet
Validated: 1
EndChar

StartChar: uF2A91
Encoding: 993937 993937 151
Width: 1408
Flags: W
LayerCount: 2
Fore
SplineSet
720 774 m 1,0,-1
 720 1302 l 2,1,2
 720 1362 720 1362 762 1404 c 128,-1,3
 804 1446 804 1446 864 1446 c 2,4,-1
 1184 1446 l 2,5,6
 1244 1446 1244 1446 1286 1404 c 128,-1,7
 1328 1362 1328 1362 1328 1302 c 2,8,-1
 1328 6 l 1,9,-1
 1168 6 l 1,10,-1
 1168 1286 l 1,11,-1
 880 1286 l 1,12,-1
 880 763 l 1,13,14
 937 743 937 743 972.5 693.5 c 128,-1,15
 1008 644 1008 644 1008 582 c 2,16,-1
 1008 6 l 1,17,-1
 848 6 l 1,18,-1
 848 582 l 2,19,20
 848 595 848 595 838.5 604.5 c 128,-1,21
 829 614 829 614 816 614 c 2,22,-1
 656 614 l 2,23,24
 643 614 643 614 633.5 604.5 c 128,-1,25
 624 595 624 595 624 582 c 2,26,-1
 624 6 l 1,27,-1
 464 6 l 1,28,-1
 464 1030 l 2,29,30
 464 1043 464 1043 454.5 1052.5 c 128,-1,31
 445 1062 445 1062 432 1062 c 2,32,-1
 272 1062 l 2,33,34
 259 1062 259 1062 249.5 1052.5 c 128,-1,35
 240 1043 240 1043 240 1030 c 2,36,-1
 240 6 l 1,37,-1
 80 6 l 1,38,-1
 80 1030 l 2,39,40
 80 1110 80 1110 136 1166 c 128,-1,41
 192 1222 192 1222 272 1222 c 2,42,-1
 432 1222 l 2,43,44
 512 1222 512 1222 568 1166 c 128,-1,45
 624 1110 624 1110 624 1030 c 2,46,-1
 624 771 l 1,47,48
 640 774 640 774 656 774 c 2,49,-1
 720 774 l 1,0,-1
EndSplineSet
Validated: 1
EndChar

StartChar: uF2A92
Encoding: 993938 993938 152
Width: 1626
Flags: W
LayerCount: 2
Fore
SplineSet
1311 1369 m 1,0,1
 1328 1337 1328 1337 1328 1302 c 2,2,-1
 1328 6 l 1,3,-1
 1168 6 l 1,4,-1
 1168 1286 l 1,5,-1
 880 1286 l 1,6,-1
 880 763 l 1,7,8
 937 743 937 743 972.5 693.5 c 128,-1,9
 1008 644 1008 644 1008 582 c 2,10,-1
 1008 6 l 1,11,-1
 848 6 l 1,12,-1
 848 582 l 2,13,14
 848 595 848 595 838.5 604.5 c 128,-1,15
 829 614 829 614 816 614 c 2,16,-1
 656 614 l 2,17,18
 643 614 643 614 633.5 604.5 c 128,-1,19
 624 595 624 595 624 582 c 2,20,-1
 624 6 l 1,21,-1
 464 6 l 1,22,-1
 464 1030 l 2,23,24
 464 1043 464 1043 454.5 1052.5 c 128,-1,25
 445 1062 445 1062 432 1062 c 2,26,-1
 272 1062 l 2,27,28
 259 1062 259 1062 249.5 1052.5 c 128,-1,29
 240 1043 240 1043 240 1030 c 2,30,-1
 240 6 l 1,31,-1
 80 6 l 1,32,-1
 80 1030 l 2,33,34
 80 1110 80 1110 136 1166 c 128,-1,35
 192 1222 192 1222 272 1222 c 2,36,-1
 432 1222 l 2,37,38
 512 1222 512 1222 568 1166 c 128,-1,39
 624 1110 624 1110 624 1030 c 2,40,-1
 624 771 l 1,41,42
 640 774 640 774 656 774 c 2,43,-1
 720 774 l 1,44,-1
 720 1302 l 2,45,46
 720 1362 720 1362 762 1404 c 128,-1,47
 804 1446 804 1446 864 1446 c 2,48,-1
 1152 1446 l 1,49,-1
 1320 1638 l 1,50,-1
 1546 1638 l 1,51,-1
 1311 1369 l 1,0,1
EndSplineSet
Validated: 1
EndChar

StartChar: uF2A93
Encoding: 993939 993939 153
Width: 1280
Flags: W
LayerCount: 2
Fore
SplineSet
336 1030 m 1,0,-1
 320 1030 l 2,1,2
 287 1030 287 1030 263.5 1006.5 c 128,-1,3
 240 983 240 983 240 950 c 128,-1,4
 240 917 240 917 263.5 893.5 c 128,-1,5
 287 870 287 870 320 870 c 2,6,-1
 400 870 l 2,7,8
 427 870 427 870 445.5 888.5 c 128,-1,9
 464 907 464 907 464 934 c 0,10,11
 464 1040 464 1040 539 1115 c 128,-1,12
 614 1190 614 1190 720 1190 c 2,13,-1
 960 1190 l 2,14,15
 1059 1190 1059 1190 1129.5 1119.5 c 128,-1,16
 1200 1049 1200 1049 1200 950 c 128,-1,17
 1200 851 1200 851 1129.5 780.5 c 128,-1,18
 1059 710 1059 710 960 710 c 2,19,-1
 752 710 l 1,20,-1
 752 6 l 1,21,-1
 592 6 l 1,22,-1
 592 710 l 2,23,24
 592 776 592 776 639 823 c 128,-1,25
 686 870 686 870 752 870 c 2,26,-1
 960 870 l 2,27,28
 993 870 993 870 1016.5 893.5 c 128,-1,29
 1040 917 1040 917 1040 950 c 128,-1,30
 1040 983 1040 983 1016.5 1006.5 c 128,-1,31
 993 1030 993 1030 960 1030 c 2,32,-1
 720 1030 l 2,33,34
 680 1030 680 1030 652 1002 c 128,-1,35
 624 974 624 974 624 934 c 0,36,37
 624 841 624 841 558.5 775.5 c 128,-1,38
 493 710 493 710 400 710 c 2,39,-1
 320 710 l 2,40,41
 221 710 221 710 150.5 780.5 c 128,-1,42
 80 851 80 851 80 950 c 128,-1,43
 80 1049 80 1049 150.5 1119.5 c 128,-1,44
 221 1190 221 1190 320 1190 c 2,45,-1
 336 1190 l 1,46,-1
 336 1030 l 1,0,-1
912 -250 m 1,47,-1
 785 -250 l 1,48,49
 785 -231 785 -231 778 -213 c 128,-1,50
 771 -195 771 -195 757 -181 c 128,-1,51
 743 -167 743 -167 725 -160 c 128,-1,52
 707 -153 707 -153 688 -153 c 128,-1,53
 669 -153 669 -153 651 -160 c 128,-1,54
 633 -167 633 -167 619 -181 c 128,-1,55
 605 -195 605 -195 598 -213 c 128,-1,56
 591 -231 591 -231 591 -250 c 1,57,-1
 464 -250 l 1,58,59
 464 -205 464 -205 481 -164 c 128,-1,60
 498 -123 498 -123 529.5 -91.5 c 128,-1,61
 561 -60 561 -60 602 -43 c 128,-1,62
 643 -26 643 -26 688 -26 c 128,-1,63
 733 -26 733 -26 774 -43 c 128,-1,64
 815 -60 815 -60 846.5 -91.5 c 128,-1,65
 878 -123 878 -123 895 -164 c 128,-1,66
 912 -205 912 -205 912 -250 c 1,47,-1
EndSplineSet
Validated: 1
EndChar

StartChar: uF2A94
Encoding: 993940 993940 154
Width: 1466
Flags: W
LayerCount: 2
Fore
SplineSet
1129 1120 m 1,0,1
 1200 1050 1200 1050 1200 950 c 0,2,3
 1200 851 1200 851 1129.5 780.5 c 128,-1,4
 1059 710 1059 710 960 710 c 2,5,-1
 752 710 l 1,6,-1
 752 6 l 1,7,-1
 592 6 l 1,8,-1
 592 710 l 2,9,10
 592 776 592 776 639 823 c 128,-1,11
 686 870 686 870 752 870 c 2,12,-1
 960 870 l 2,13,14
 993 870 993 870 1016.5 893.5 c 128,-1,15
 1040 917 1040 917 1040 950 c 128,-1,16
 1040 983 1040 983 1016.5 1006.5 c 128,-1,17
 993 1030 993 1030 960 1030 c 2,18,-1
 720 1030 l 2,19,20
 680 1030 680 1030 652 1002 c 128,-1,21
 624 974 624 974 624 934 c 0,22,23
 624 841 624 841 558.5 775.5 c 128,-1,24
 493 710 493 710 400 710 c 2,25,-1
 320 710 l 2,26,27
 221 710 221 710 150.5 780.5 c 128,-1,28
 80 851 80 851 80 950 c 128,-1,29
 80 1049 80 1049 150.5 1119.5 c 128,-1,30
 221 1190 221 1190 320 1190 c 2,31,-1
 336 1190 l 1,32,-1
 336 1030 l 1,33,-1
 320 1030 l 2,34,35
 287 1030 287 1030 263.5 1006.5 c 128,-1,36
 240 983 240 983 240 950 c 128,-1,37
 240 917 240 917 263.5 893.5 c 128,-1,38
 287 870 287 870 320 870 c 2,39,-1
 400 870 l 2,40,41
 427 870 427 870 445.5 888.5 c 128,-1,42
 464 907 464 907 464 934 c 0,43,44
 464 1040 464 1040 539 1115 c 128,-1,45
 614 1190 614 1190 720 1190 c 2,46,-1
 960 1190 l 2,47,48
 962 1190 962 1190 964 1190 c 2,49,-1
 1160 1414 l 1,50,-1
 1386 1414 l 1,51,-1
 1129 1120 l 1,0,1
912 -250 m 1,52,-1
 785 -250 l 1,53,54
 785 -231 785 -231 778 -213 c 128,-1,55
 771 -195 771 -195 757 -181 c 128,-1,56
 743 -167 743 -167 725 -160 c 128,-1,57
 707 -153 707 -153 688 -153 c 128,-1,58
 669 -153 669 -153 651 -160 c 128,-1,59
 633 -167 633 -167 619 -181 c 128,-1,60
 605 -195 605 -195 598 -213 c 128,-1,61
 591 -231 591 -231 591 -250 c 1,62,-1
 464 -250 l 1,63,64
 464 -205 464 -205 481 -164 c 128,-1,65
 498 -123 498 -123 529.5 -91.5 c 128,-1,66
 561 -60 561 -60 602 -43 c 128,-1,67
 643 -26 643 -26 688 -26 c 128,-1,68
 733 -26 733 -26 774 -43 c 128,-1,69
 815 -60 815 -60 846.5 -91.5 c 128,-1,70
 878 -123 878 -123 895 -164 c 128,-1,71
 912 -205 912 -205 912 -250 c 1,52,-1
EndSplineSet
Validated: 1
EndChar

StartChar: uF2A95
Encoding: 993941 993941 155
Width: 1242
Flags: W
LayerCount: 2
Fore
SplineSet
464 1030 m 2,0,1
 464 1043 464 1043 454.5 1052.5 c 128,-1,2
 445 1062 445 1062 432 1062 c 2,3,-1
 272 1062 l 2,4,5
 259 1062 259 1062 249.5 1052.5 c 128,-1,6
 240 1043 240 1043 240 1030 c 2,7,-1
 240 6 l 1,8,-1
 80 6 l 1,9,-1
 80 1030 l 2,10,11
 80 1110 80 1110 136 1166 c 128,-1,12
 192 1222 192 1222 272 1222 c 2,13,-1
 432 1222 l 2,14,15
 512 1222 512 1222 568 1166 c 128,-1,16
 624 1110 624 1110 624 1030 c 2,17,-1
 624 771 l 1,18,19
 640 774 640 774 656 774 c 2,20,-1
 816 774 l 2,21,22
 896 774 896 774 952 718 c 128,-1,23
 1008 662 1008 662 1008 582 c 2,24,-1
 1008 6 l 1,25,-1
 848 6 l 1,26,-1
 848 582 l 2,27,28
 848 595 848 595 838.5 604.5 c 128,-1,29
 829 614 829 614 816 614 c 2,30,-1
 656 614 l 2,31,32
 643 614 643 614 633.5 604.5 c 128,-1,33
 624 595 624 595 624 582 c 2,34,-1
 624 6 l 1,35,-1
 464 6 l 1,36,-1
 464 1030 l 2,0,1
784 -250 m 1,37,-1
 657 -250 l 1,38,39
 657 -231 657 -231 650 -213 c 128,-1,40
 643 -195 643 -195 629 -181 c 128,-1,41
 615 -167 615 -167 597 -160 c 128,-1,42
 579 -153 579 -153 560 -153 c 128,-1,43
 541 -153 541 -153 523 -160 c 128,-1,44
 505 -167 505 -167 491 -181 c 128,-1,45
 477 -195 477 -195 470 -213 c 128,-1,46
 463 -231 463 -231 463 -250 c 1,47,-1
 336 -250 l 1,48,49
 336 -205 336 -205 353 -164 c 128,-1,50
 370 -123 370 -123 401.5 -91.5 c 128,-1,51
 433 -60 433 -60 474 -43 c 128,-1,52
 515 -26 515 -26 560 -26 c 128,-1,53
 605 -26 605 -26 646 -43 c 128,-1,54
 687 -60 687 -60 718.5 -91.5 c 128,-1,55
 750 -123 750 -123 767 -164 c 128,-1,56
 784 -205 784 -205 784 -250 c 1,37,-1
1162 1414 m 1,57,-1
 882 1094 l 1,58,-1
 656 1094 l 1,59,-1
 936 1414 l 1,60,-1
 1162 1414 l 1,57,-1
EndSplineSet
Validated: 1
EndChar

StartChar: uF2A96
Encoding: 993942 993942 156
Width: 1242
Flags: W
LayerCount: 2
Fore
SplineSet
1162 1414 m 1,0,-1
 882 1094 l 1,1,-1
 656 1094 l 1,2,-1
 936 1414 l 1,3,-1
 1162 1414 l 1,0,-1
784 -250 m 1,4,-1
 657 -250 l 1,5,6
 657 -231 657 -231 650 -213 c 128,-1,7
 643 -195 643 -195 629 -181 c 128,-1,8
 615 -167 615 -167 597 -160 c 128,-1,9
 579 -153 579 -153 560 -153 c 128,-1,10
 541 -153 541 -153 523 -160 c 128,-1,11
 505 -167 505 -167 491 -181 c 128,-1,12
 477 -195 477 -195 470 -213 c 128,-1,13
 463 -231 463 -231 463 -250 c 1,14,-1
 336 -250 l 1,15,16
 336 -205 336 -205 353 -164 c 128,-1,17
 370 -123 370 -123 401.5 -91.5 c 128,-1,18
 433 -60 433 -60 474 -43 c 128,-1,19
 515 -26 515 -26 560 -26 c 128,-1,20
 605 -26 605 -26 646 -43 c 128,-1,21
 687 -60 687 -60 718.5 -91.5 c 128,-1,22
 750 -123 750 -123 767 -164 c 128,-1,23
 784 -205 784 -205 784 -250 c 1,4,-1
464 1030 m 2,24,25
 464 1043 464 1043 454.5 1052.5 c 128,-1,26
 445 1062 445 1062 432 1062 c 2,27,-1
 272 1062 l 2,28,29
 259 1062 259 1062 249.5 1052.5 c 128,-1,30
 240 1043 240 1043 240 1030 c 2,31,-1
 240 6 l 1,32,-1
 80 6 l 1,33,-1
 80 1030 l 2,34,35
 80 1110 80 1110 136 1166 c 128,-1,36
 192 1222 192 1222 272 1222 c 2,37,-1
 432 1222 l 2,38,39
 512 1222 512 1222 568 1166 c 128,-1,40
 624 1110 624 1110 624 1030 c 2,41,-1
 624 771 l 1,42,43
 640 774 640 774 656 774 c 2,44,-1
 816 774 l 2,45,46
 896 774 896 774 952 718 c 128,-1,47
 1008 662 1008 662 1008 582 c 2,48,-1
 1008 6 l 1,49,-1
 848 6 l 1,50,-1
 848 582 l 2,51,52
 848 595 848 595 838.5 604.5 c 128,-1,53
 829 614 829 614 816 614 c 2,54,-1
 656 614 l 2,55,56
 643 614 643 614 633.5 604.5 c 128,-1,57
 624 595 624 595 624 582 c 2,58,-1
 624 6 l 1,59,-1
 464 6 l 1,60,-1
 464 1030 l 2,24,25
EndSplineSet
Validated: 1
EndChar

StartChar: uF2A97
Encoding: 993943 993943 157
Width: 1184
Flags: W
LayerCount: 2
Fore
SplineSet
656 902 m 1,0,-1
 528 902 l 1,1,-1
 528 454 l 1,2,-1
 656 454 l 1,3,-1
 656 902 l 1,0,-1
688 1190 m 1,4,-1
 688 1062 l 1,5,-1
 976 1062 l 1,6,-1
 976 902 l 1,7,-1
 816 902 l 1,8,-1
 816 454 l 1,9,-1
 1104 454 l 1,10,-1
 1104 294 l 1,11,-1
 838 294 l 1,12,13
 865 236 865 236 919.5 201 c 128,-1,14
 974 166 974 166 1040 166 c 1,15,-1
 1040 6 l 1,16,17
 907 6 907 6 803.5 87 c 128,-1,18
 700 168 700 168 668 294 c 1,19,-1
 522 294 l 1,20,21
 499 170 499 170 401.5 88 c 128,-1,22
 304 6 304 6 176 6 c 1,23,-1
 176 166 l 1,24,25
 238 166 238 166 287.5 201.5 c 128,-1,26
 337 237 337 237 357 294 c 1,27,-1
 80 294 l 1,28,-1
 80 454 l 1,29,-1
 368 454 l 1,30,-1
 368 902 l 1,31,-1
 208 902 l 1,32,-1
 208 1062 l 1,33,-1
 528 1062 l 1,34,-1
 528 1190 l 1,35,-1
 688 1190 l 1,4,-1
EndSplineSet
Validated: 1
EndChar

StartChar: uF2A98
Encoding: 993944 993944 158
Width: 1344
Flags: W
LayerCount: 2
Fore
SplineSet
1008 550 m 1,0,-1
 1008 598 l 2,1,2
 1008 671 1008 671 956.5 722.5 c 128,-1,3
 905 774 905 774 832 774 c 2,4,-1
 752 774 l 1,5,-1
 752 550 l 1,6,-1
 1008 550 l 1,0,-1
752 166 m 1,7,-1
 832 166 l 2,8,9
 905 166 905 166 956.5 217.5 c 128,-1,10
 1008 269 1008 269 1008 342 c 2,11,-1
 1008 390 l 1,12,-1
 752 390 l 1,13,-1
 752 166 l 1,7,-1
336 390 m 1,14,-1
 336 342 l 2,15,16
 336 269 336 269 387.5 217.5 c 128,-1,17
 439 166 439 166 512 166 c 2,18,-1
 592 166 l 1,19,-1
 592 390 l 1,20,-1
 336 390 l 1,14,-1
592 774 m 1,21,-1
 512 774 l 2,22,23
 439 774 439 774 387.5 722.5 c 128,-1,24
 336 671 336 671 336 598 c 2,25,-1
 336 550 l 1,26,-1
 592 550 l 1,27,-1
 592 774 l 1,21,-1
592 1190 m 1,28,-1
 752 1190 l 1,29,-1
 752 934 l 1,30,-1
 832 934 l 2,31,32
 971 934 971 934 1069.5 835.5 c 128,-1,33
 1168 737 1168 737 1168 598 c 2,34,-1
 1168 550 l 1,35,-1
 1264 550 l 1,36,-1
 1264 390 l 1,37,-1
 1168 390 l 1,38,-1
 1168 342 l 2,39,40
 1168 203 1168 203 1069.5 104.5 c 128,-1,41
 971 6 971 6 832 6 c 2,42,-1
 512 6 l 2,43,44
 373 6 373 6 274.5 104.5 c 128,-1,45
 176 203 176 203 176 342 c 2,46,-1
 176 390 l 1,47,-1
 80 390 l 1,48,-1
 80 550 l 1,49,-1
 176 550 l 1,50,-1
 176 598 l 2,51,52
 176 737 176 737 274.5 835.5 c 128,-1,53
 373 934 373 934 512 934 c 2,54,-1
 592 934 l 1,55,-1
 592 1190 l 1,28,-1
EndSplineSet
Validated: 1
EndChar

StartChar: uF2A99
Encoding: 993945 993945 159
Width: 1184
Flags: W
LayerCount: 2
Fore
SplineSet
656 902 m 1,0,-1
 528 902 l 1,1,-1
 528 454 l 1,2,-1
 656 454 l 1,3,-1
 656 902 l 1,0,-1
688 1190 m 1,4,-1
 688 1062 l 1,5,-1
 976 1062 l 1,6,-1
 976 902 l 1,7,-1
 816 902 l 1,8,-1
 816 454 l 1,9,-1
 1104 454 l 1,10,-1
 1104 294 l 1,11,-1
 838 294 l 1,12,13
 865 236 865 236 919.5 201 c 128,-1,14
 974 166 974 166 1040 166 c 1,15,-1
 1040 6 l 1,16,17
 907 6 907 6 803.5 87 c 128,-1,18
 700 168 700 168 668 294 c 1,19,-1
 522 294 l 1,20,21
 499 170 499 170 401.5 88 c 128,-1,22
 304 6 304 6 176 6 c 1,23,-1
 176 166 l 1,24,25
 238 166 238 166 287.5 201.5 c 128,-1,26
 337 237 337 237 357 294 c 1,27,-1
 80 294 l 1,28,-1
 80 454 l 1,29,-1
 368 454 l 1,30,-1
 368 902 l 1,31,-1
 208 902 l 1,32,-1
 208 1062 l 1,33,-1
 528 1062 l 1,34,-1
 528 1190 l 1,35,-1
 688 1190 l 1,4,-1
208 -218 m 1,36,-1
 208 -58 l 1,37,-1
 976 -58 l 1,38,-1
 976 -218 l 1,39,-1
 208 -218 l 1,36,-1
EndSplineSet
Validated: 1
EndChar

StartChar: uF2A9A
Encoding: 993946 993946 160
Width: 1344
Flags: W
LayerCount: 2
Fore
SplineSet
1008 550 m 1,0,-1
 1008 598 l 2,1,2
 1008 671 1008 671 956.5 722.5 c 128,-1,3
 905 774 905 774 832 774 c 2,4,-1
 752 774 l 1,5,-1
 752 550 l 1,6,-1
 1008 550 l 1,0,-1
752 166 m 1,7,-1
 832 166 l 2,8,9
 905 166 905 166 956.5 217.5 c 128,-1,10
 1008 269 1008 269 1008 342 c 2,11,-1
 1008 390 l 1,12,-1
 752 390 l 1,13,-1
 752 166 l 1,7,-1
336 390 m 1,14,-1
 336 342 l 2,15,16
 336 269 336 269 387.5 217.5 c 128,-1,17
 439 166 439 166 512 166 c 2,18,-1
 592 166 l 1,19,-1
 592 390 l 1,20,-1
 336 390 l 1,14,-1
592 774 m 1,21,-1
 512 774 l 2,22,23
 439 774 439 774 387.5 722.5 c 128,-1,24
 336 671 336 671 336 598 c 2,25,-1
 336 550 l 1,26,-1
 592 550 l 1,27,-1
 592 774 l 1,21,-1
592 1190 m 1,28,-1
 752 1190 l 1,29,-1
 752 934 l 1,30,-1
 832 934 l 2,31,32
 971 934 971 934 1069.5 835.5 c 128,-1,33
 1168 737 1168 737 1168 598 c 2,34,-1
 1168 550 l 1,35,-1
 1264 550 l 1,36,-1
 1264 390 l 1,37,-1
 1168 390 l 1,38,-1
 1168 342 l 2,39,40
 1168 203 1168 203 1069.5 104.5 c 128,-1,41
 971 6 971 6 832 6 c 2,42,-1
 512 6 l 2,43,44
 373 6 373 6 274.5 104.5 c 128,-1,45
 176 203 176 203 176 342 c 2,46,-1
 176 390 l 1,47,-1
 80 390 l 1,48,-1
 80 550 l 1,49,-1
 176 550 l 1,50,-1
 176 598 l 2,51,52
 176 737 176 737 274.5 835.5 c 128,-1,53
 373 934 373 934 512 934 c 2,54,-1
 592 934 l 1,55,-1
 592 1190 l 1,28,-1
272 -218 m 1,56,-1
 272 -58 l 1,57,-1
 1040 -58 l 1,58,-1
 1040 -218 l 1,59,-1
 272 -218 l 1,56,-1
EndSplineSet
Validated: 1
EndChar

StartChar: uF2A9B
Encoding: 993947 993947 161
Width: 1184
Flags: W
LayerCount: 2
Fore
SplineSet
656 902 m 1,0,-1
 528 902 l 1,1,-1
 528 454 l 1,2,-1
 656 454 l 1,3,-1
 656 902 l 1,0,-1
688 1190 m 1,4,-1
 688 1062 l 1,5,-1
 976 1062 l 1,6,-1
 976 902 l 1,7,-1
 816 902 l 1,8,-1
 816 454 l 1,9,-1
 1104 454 l 1,10,-1
 1104 294 l 1,11,-1
 838 294 l 1,12,13
 865 236 865 236 919.5 201 c 128,-1,14
 974 166 974 166 1040 166 c 1,15,-1
 1040 6 l 1,16,17
 907 6 907 6 803.5 87 c 128,-1,18
 700 168 700 168 668 294 c 1,19,-1
 522 294 l 1,20,21
 499 170 499 170 401.5 88 c 128,-1,22
 304 6 304 6 176 6 c 1,23,-1
 176 166 l 1,24,25
 238 166 238 166 287.5 201.5 c 128,-1,26
 337 237 337 237 357 294 c 1,27,-1
 80 294 l 1,28,-1
 80 454 l 1,29,-1
 368 454 l 1,30,-1
 368 902 l 1,31,-1
 208 902 l 1,32,-1
 208 1062 l 1,33,-1
 528 1062 l 1,34,-1
 528 1190 l 1,35,-1
 688 1190 l 1,4,-1
464 -154 m 128,-1,37
 464 -101 464 -101 501.5 -63.5 c 128,-1,38
 539 -26 539 -26 592 -26 c 128,-1,39
 645 -26 645 -26 682.5 -63.5 c 128,-1,40
 720 -101 720 -101 720 -154 c 128,-1,41
 720 -207 720 -207 682.5 -244.5 c 128,-1,42
 645 -282 645 -282 592 -282 c 128,-1,43
 539 -282 539 -282 501.5 -244.5 c 128,-1,36
 464 -207 464 -207 464 -154 c 128,-1,37
EndSplineSet
Validated: 1
EndChar

StartChar: uF2A9C
Encoding: 993948 993948 162
Width: 1344
Flags: W
LayerCount: 2
Fore
SplineSet
1008 550 m 1,0,-1
 1008 598 l 2,1,2
 1008 671 1008 671 956.5 722.5 c 128,-1,3
 905 774 905 774 832 774 c 2,4,-1
 752 774 l 1,5,-1
 752 550 l 1,6,-1
 1008 550 l 1,0,-1
752 166 m 1,7,-1
 832 166 l 2,8,9
 905 166 905 166 956.5 217.5 c 128,-1,10
 1008 269 1008 269 1008 342 c 2,11,-1
 1008 390 l 1,12,-1
 752 390 l 1,13,-1
 752 166 l 1,7,-1
336 390 m 1,14,-1
 336 342 l 2,15,16
 336 269 336 269 387.5 217.5 c 128,-1,17
 439 166 439 166 512 166 c 2,18,-1
 592 166 l 1,19,-1
 592 390 l 1,20,-1
 336 390 l 1,14,-1
592 774 m 1,21,-1
 512 774 l 2,22,23
 439 774 439 774 387.5 722.5 c 128,-1,24
 336 671 336 671 336 598 c 2,25,-1
 336 550 l 1,26,-1
 592 550 l 1,27,-1
 592 774 l 1,21,-1
592 1190 m 1,28,-1
 752 1190 l 1,29,-1
 752 934 l 1,30,-1
 832 934 l 2,31,32
 971 934 971 934 1069.5 835.5 c 128,-1,33
 1168 737 1168 737 1168 598 c 2,34,-1
 1168 550 l 1,35,-1
 1264 550 l 1,36,-1
 1264 390 l 1,37,-1
 1168 390 l 1,38,-1
 1168 342 l 2,39,40
 1168 203 1168 203 1069.5 104.5 c 128,-1,41
 971 6 971 6 832 6 c 2,42,-1
 512 6 l 2,43,44
 373 6 373 6 274.5 104.5 c 128,-1,45
 176 203 176 203 176 342 c 2,46,-1
 176 390 l 1,47,-1
 80 390 l 1,48,-1
 80 550 l 1,49,-1
 176 550 l 1,50,-1
 176 598 l 2,51,52
 176 737 176 737 274.5 835.5 c 128,-1,53
 373 934 373 934 512 934 c 2,54,-1
 592 934 l 1,55,-1
 592 1190 l 1,28,-1
528 -154 m 128,-1,57
 528 -101 528 -101 565.5 -63.5 c 128,-1,58
 603 -26 603 -26 656 -26 c 128,-1,59
 709 -26 709 -26 746.5 -63.5 c 128,-1,60
 784 -101 784 -101 784 -154 c 128,-1,61
 784 -207 784 -207 746.5 -244.5 c 128,-1,62
 709 -282 709 -282 656 -282 c 128,-1,63
 603 -282 603 -282 565.5 -244.5 c 128,-1,56
 528 -207 528 -207 528 -154 c 128,-1,57
EndSplineSet
Validated: 1
EndChar

StartChar: uF2A9D
Encoding: 993949 993949 163
Width: 1408
Flags: W
LayerCount: 2
Fore
SplineSet
528 902 m 1,0,-1
 528 454 l 1,1,-1
 656 454 l 1,2,-1
 656 902 l 1,3,-1
 528 902 l 1,0,-1
752 1302 m 2,4,5
 752 1362 752 1362 794 1404 c 128,-1,6
 836 1446 836 1446 896 1446 c 2,7,-1
 1184 1446 l 2,8,9
 1244 1446 1244 1446 1286 1404 c 128,-1,10
 1328 1362 1328 1362 1328 1302 c 2,11,-1
 1328 6 l 1,12,-1
 1168 6 l 1,13,-1
 1168 1286 l 1,14,-1
 912 1286 l 1,15,-1
 912 1062 l 1,16,-1
 976 1062 l 1,17,-1
 976 902 l 1,18,-1
 816 902 l 1,19,-1
 816 454 l 1,20,-1
 1104 454 l 1,21,-1
 1104 294 l 1,22,-1
 838 294 l 1,23,24
 865 236 865 236 919.5 201 c 128,-1,25
 974 166 974 166 1040 166 c 1,26,-1
 1040 6 l 1,27,28
 907 6 907 6 803.5 87 c 128,-1,29
 700 168 700 168 668 294 c 1,30,-1
 522 294 l 1,31,32
 499 170 499 170 401.5 88 c 128,-1,33
 304 6 304 6 176 6 c 1,34,-1
 176 166 l 1,35,36
 238 166 238 166 287.5 201.5 c 128,-1,37
 337 237 337 237 357 294 c 1,38,-1
 80 294 l 1,39,-1
 80 454 l 1,40,-1
 368 454 l 1,41,-1
 368 902 l 1,42,-1
 208 902 l 1,43,-1
 208 1062 l 1,44,-1
 528 1062 l 1,45,-1
 528 1190 l 1,46,-1
 688 1190 l 1,47,-1
 688 1062 l 1,48,-1
 752 1062 l 1,49,-1
 752 1302 l 2,4,5
EndSplineSet
Validated: 1
EndChar

